<?xml version="1.0" encoding="UTF-8" standalone="no"?>
<svg
   xmlns:dc="http://purl.org/dc/elements/1.1/"
   xmlns:cc="http://creativecommons.org/ns#"
   xmlns:rdf="http://www.w3.org/1999/02/22-rdf-syntax-ns#"
   xmlns:svg="http://www.w3.org/2000/svg"
   xmlns="http://www.w3.org/2000/svg"
   xmlns:sodipodi="http://sodipodi.sourceforge.net/DTD/sodipodi-0.dtd"
   xmlns:inkscape="http://www.inkscape.org/namespaces/inkscape"
   version="1.0"
   width="500.000000pt"
   height="500.000000pt"
   viewBox="0 0 500.000000 500.000000"
   preserveAspectRatio="xMidYMid meet"
   id="svg4082"
   sodipodi:docname="icon.svg"
   inkscape:version="0.92.2 (5c3e80d, 2017-08-06)">
  <defs
     id="defs4086" />
  <sodipodi:namedview
     pagecolor="#ffffff"
     bordercolor="#666666"
     borderopacity="1"
     objecttolerance="10"
     gridtolerance="10"
     guidetolerance="10"
     inkscape:pageopacity="0"
     inkscape:pageshadow="2"
     inkscape:window-width="640"
     inkscape:window-height="480"
     id="namedview4084"
     showgrid="false"
     inkscape:zoom="0.354"
     inkscape:cx="333.33333"
     inkscape:cy="333.33333"
     inkscape:window-x="67"
     inkscape:window-y="27"
     inkscape:window-maximized="0"
     inkscape:current-layer="svg4082" />
  <metadata
     id="metadata4062">
Created by potrace 1.13, written by Peter Selinger 2001-2015
<rdf:RDF>
  <cc:Work
     rdf:about="">
    <dc:format>image/svg+xml</dc:format>
    <dc:type
       rdf:resource="http://purl.org/dc/dcmitype/StillImage" />
  </cc:Work>
</rdf:RDF>
</metadata>
  <path
     style="fill:#000000;stroke-width:1.62956607"
     d="m 63.922886,484.20242 c -3.58717,-1.1361 -9.45709,-3.57356 -13.04427,-5.41658 -7.45077,-3.82804 -23.64274,-19.34809 -23.64274,-22.66162 0,-1.21564 -0.68102,-2.21024 -1.51338,-2.21024 -0.83236,0 -3.04571,-4.09063 -4.91854,-9.09028 -3.38987,-9.04949 -3.40321,-9.92488 -2.97059,-195.02468 l 0.43457,-185.934404 3.93396,-8.14299 c 4.01513,-8.31101 4.58014,-9.04993 15.24057,-19.93145 6.53397,-6.66949 19.05552,-13.68541 29.74149,-16.66438 4.67045,-1.30201 57.906404,-1.68246 187.511414,-1.34007 l 180.98927,0.47813 8.96794,3.63333 c 9.77609,3.96075 24.57888,15.24361 26.44364,20.15565 0.64368,1.69559 1.82753,3.0829 2.63075,3.0829 2.55281,0 10.2325,19.2729 11.86584,29.77847 0.96113,6.18192 1.39169,78.273474 1.10607,185.196544 l -0.46769,175.07435 -6.0084,12.62164 c -3.30462,6.9419 -6.78989,12.62164 -7.74504,12.62164 -0.95515,0 -1.73663,0.94411 -1.73663,2.09802 0,2.53936 -11.81765,12.62859 -19.34757,16.51782 -14.69676,7.59099 -9.78333,7.41196 -200.77452,7.31517 -140.80741,-0.0713 -181.599044,-0.54266 -186.696144,-2.15697 z m 19.10506,-11.1524 c 1.46056,-4.70257 3.14575,-9.80199 3.74487,-11.332 0.82816,-2.11494 -0.0212,-3.04822 -3.5429,-3.89291 -5.60717,-1.34488 -12.5039,-4.71162 -15.48385,-7.55862 -1.20595,-1.15217 -4.21043,-3.38475 -6.67661,-4.96131 -2.46619,-1.57657 -4.48397,-3.58245 -4.48397,-4.45753 0,-0.87507 -1.41273,-3.00211 -3.13939,-4.72673 -1.72667,-1.7246 -4.40155,-7.13492 -5.94418,-12.02288 l -2.80478,-8.88723 -11.87182,3.98681 -11.87182,3.98682 0.91049,6.00032 c 1.49964,9.88303 10.96889,28.33899 17.79439,34.68198 7.42893,6.90378 16.49289,12.07605 26.71031,15.24198 12.60861,3.90687 13.68576,3.51513 16.65926,-6.0587 z M 414.82282,471.01427 411.377,460.42838 H 251.23289 91.08878 l -2.814344,8.55015 c -1.54788,4.70257 -3.15283,9.46623 -3.56655,10.58589 -0.59869,1.62024 33.364914,2.03574 166.404264,2.03574 h 167.15648 z m 30.72226,4.24878 c 5.42324,-2.52071 12.5234,-6.91842 15.77812,-9.77273 9.69909,-8.50579 20.24908,-30.33507 18.94883,-39.20751 -0.45983,-3.13773 -2.57707,-4.51865 -11.55597,-7.53696 l -10.99298,-3.69537 -2.49718,8.57979 c -1.37344,4.71888 -3.84819,10.02821 -5.49943,11.7985 -1.65125,1.7703 -3.86105,4.82151 -4.91072,6.78047 -1.04965,1.95896 -2.64838,3.56175 -3.55278,3.56175 -0.90438,0 -3.62169,1.83134 -6.03849,4.06966 -2.4168,2.23831 -7.88782,5.22869 -12.15784,6.64528 -4.27001,1.41659 -7.76367,3.01472 -7.76367,3.55137 0,0.53667 1.59148,5.68171 3.53662,11.43345 l 3.53663,10.45768 6.65421,-1.04116 c 3.65982,-0.57264 11.0914,-3.10355 16.51465,-5.62422 z M 410.41136,441.69949 V 427.85641 H 250.61903 90.8267 v 13.84308 13.84309 H 250.61903 410.41136 Z M 87.565626,440.18065 c 0,-12.15458 -0.36311,-13.84846 -3.15864,-14.73466 -1.73726,-0.55074 -4.11759,-3.16517 -5.28964,-5.80985 -2.12608,-4.79745 -2.16385,-4.80852 -16.40776,-4.80852 -7.85222,0 -14.27677,0.19356 -14.27677,0.43014 0,2.99532 7.10316,18.49403 8.94873,19.52564 1.35575,0.75781 2.46501,2.41496 2.46501,3.68253 0,1.26757 1.52552,3.12013 3.39005,4.11682 1.86453,0.99667 4.80512,3.03785 6.53464,4.53594 2.66504,2.30842 12.45459,6.24878 16.57148,6.67013 0.6726,0.0689 1.2229,-6.05485 1.2229,-13.60817 z m 335.074744,11.6532 c 8.05003,-2.50638 18.70377,-9.42846 18.73095,-12.17011 0.0114,-1.11966 0.57049,-2.05877 1.24309,-2.08691 2.27607,-0.0953 7.07652,-8.06118 9.29522,-15.42463 l 2.20699,-7.32458 h -14.51523 c -10.1043,0 -14.51522,0.58673 -14.51522,1.93079 0,2.68539 -6.62838,9.46941 -9.25216,9.46941 -1.62554,0 -2.16158,3.43283 -2.16158,13.84307 0,7.6137 0.55031,13.83197 1.2229,13.81837 0.6726,-0.013 4.15786,-0.93853 7.74504,-2.05541 z m -3.51131,-31.91269 c 2.4754,-2.05224 2.69604,-15.80671 2.69604,-168.06046 V 86.035396 l -3.62388,-2.53525 c -3.10615,-2.17304 -11.48774,-2.53524 -58.66814,-2.53524 h -55.04431 l -1.00138,4.47864 c -8.66805,38.767794 -14.32127,48.914184 -33.67814,60.445734 -9.84166,5.86301 -26.8817,5.52318 -37.94136,-0.75667 -9.43439,-5.35698 -22.0122,-17.97078 -22.0122,-22.07516 0,-1.54767 -0.6045,-3.18709 -1.34331,-3.64317 -0.73883,-0.45607 -3.47447,-9.29376 -6.0792,-19.6393 l -4.73591,-18.810074 h -54.88518 c -51.61017,0 -55.114874,0.18577 -58.734524,3.1133 l -3.84934,3.11331 V 251.96776 416.74401 l 3.87758,3.13614 c 3.77835,3.05589 8.080124,3.12513 168.102414,2.70615 136.3273,-0.35694 164.6828,-0.80967 166.92084,-2.66514 z m -384.555784,-4.95318 8.15267,-2.86442 V 251.99107 91.878566 l -5.70687,-1.94294 c -3.13878,-1.06861 -8.09152,-2.40656 -11.0061,-2.97322 l -5.29924,-1.03028 V 252.00848 c 0,157.1303 0.15371,166.06954 2.85344,165.95012 1.56938,-0.0694 6.52213,-1.4152 11.0061,-2.99062 z M 480.52432,252.12023 V 86.155636 l -3.6687,0.81503 c -2.01778,0.44826 -7.15397,1.90429 -11.41374,3.23561 l -7.74503,2.42059 V 251.96292 411.29898 l 9.37557,3.26436 c 5.15656,1.79538 10.29274,3.32218 11.41374,3.39291 1.61804,0.1021 2.03816,-34.08152 2.03816,-165.83602 z M 76.151896,251.96776 V 92.365096 h -14.67481 -14.6748 V 251.96776 411.57042 h 14.6748 14.67481 z m 378.283884,0 V 92.365096 H 439.76096 425.08617 V 251.96776 411.57042 h 14.67479 14.67482 z M 266.92438,138.89901 c 8.98509,-3.98734 15.7656,-10.84986 20.2698,-20.51494 7.29576,-15.65527 9.8283,-14.61879 -35.71912,-14.61879 h -39.90732 l 1.01174,5.29295 c 2.72985,14.2813 12.07527,25.65262 25.23015,30.69955 7.47966,2.8696 21.65543,2.45148 29.11475,-0.85877 z M 295.9616,87.072146 c 1.87671,-7.38976 3.82176,-17.64993 4.32233,-22.80038 l 0.91014,-9.36444 h -49.95614 -49.95614 l 1.1485,10.17874 c 1.03193,9.14557 4.79129,28.11017 6.61816,33.38627 0.53899,1.556654 10.44745,2.035754 42.10293,2.035754 h 41.39804 z M 54.208396,67.474376 c 1.3074,-0.73079 2.37709,-2.3916 2.37709,-3.69068 0,-1.29909 0.5578,-2.36197 1.23956,-2.36197 0.68176,0 3.06642,-1.6557 5.29924,-3.67933 5.89631,-5.34389 11.37691,-8.58204 18.43861,-10.89427 4.75451,-1.55678 5.97741,-2.67381 5.17344,-4.72558 -0.57906,-1.4778 -2.27041,-6.60771 -3.75857,-11.39981 l -2.70573,-8.7129 -6.13201,0.8215 c -9.11559,1.2212 -27.28883,10.25377 -34.40839,17.10185 -3.44046,3.30927 -8.03245,9.48566 -10.20442,13.72533 -4.07821,7.96059 -9.35487,25.67991 -8.03873,26.99448 0.41001,0.40953 5.72304,2.35952 11.80673,4.33332 l 11.06126,3.58872 3.73741,-9.88597 c 2.05558,-5.43729 4.8071,-10.4839 6.11451,-11.21469 z m 24.90895,16.825 c 1.17205,-2.64468 3.55238,-5.25911 5.28964,-5.80984 2.79553,-0.88621 3.15864,-2.58009 3.15864,-14.73466 0,-7.55334 -0.33934,-13.73334 -0.7541,-13.73334 -2.42015,0 -18.8123,6.95758 -18.8123,7.9848 0,0.68001 -1.83435,2.21694 -4.07634,3.41539 -2.24198,1.19845 -4.07633,2.92401 -4.07633,3.83458 0,0.91057 -1.36584,3.16855 -3.0352,5.01774 -1.66936,1.84919 -3.79554,5.56077 -4.72483,8.24796 -0.92929,2.68719 -2.21005,6.16832 -2.84612,7.73584 -1.04968,2.58684 0.17812,2.85005 13.29473,2.85005 14.43712,0 14.45331,-0.005 16.58221,-4.80852 z m 372.703974,-2.80909 c -2.45577,-8.15028 -4.42327,-10.96102 -14.26539,-20.37941 -5.26821,-5.0414 -17.56301,-11.08934 -22.54343,-11.08934 -0.73703,0 -1.34005,5.67973 -1.34002,12.62163 5e-5,12.47265 0.0673,12.67533 5.70687,17.16972 3.13874,2.50144 5.70682,5.61614 5.70682,6.92154 0,1.90115 2.88854,2.37347 14.51522,2.37347 h 14.51523 z m 27.23875,0.18627 c 3.78967,-2.33936 0.27245,-16.58528 -7.51614,-30.44291 -7.34006,-13.05959 -27.43954,-26.34243 -43.01953,-28.42966 l -6.12483,-0.82054 -3.5483,10.79604 c -1.95157,5.93783 -3.5483,11.09026 -3.5483,11.44985 0,0.35959 2.75152,1.54523 6.1145,2.63476 14.13454,4.57926 29.93381,20.12874 33.74021,33.20676 l 2.53155,8.69786 9.95329,-3.09414 c 5.47432,-1.70178 10.61221,-3.50088 11.41755,-3.99802 z M 196.81141,62.236016 V 48.392936 H 143.81905 90.8267 v 13.84308 13.84309 h 52.99235 52.99236 z m 213.59995,0 v -13.84308 h -52.17708 -52.17709 v 13.84308 13.84309 h 52.17709 52.17708 z M 301.16558,36.178446 v -13.84309 h -50.54655 -50.54656 v 3.83259 c 0,2.10793 0.47141,8.33732 1.04756,13.84309 l 1.04753,10.0105 h 49.49902 49.499 z m -104.35417,-3.2572 v -10.58589 h -56.42787 c -44.45645,0 -56.268294,0.43189 -55.675654,2.03575 0.41372,1.11966 2.01867,5.88331 3.56655,10.58589 l 2.814344,8.55014 h 52.86131 52.86132 z m 218.01141,0 3.44581,-10.58589 h -56.10572 -56.10572 v 10.58589 10.58589 h 52.65989 52.65992 z"
     id="path7964"
     inkscape:connector-curvature="0" />
</svg>
