<?xml version="1.0" standalone="no"?>
<!DOCTYPE svg PUBLIC "-//W3C//DTD SVG 20010904//EN"
 "http://www.w3.org/TR/2001/REC-SVG-20010904/DTD/svg10.dtd">
<svg version="1.0" xmlns="http://www.w3.org/2000/svg"
 width="800.000000pt" height="800.000000pt" viewBox="0 0 800.000000 800.000000"
 preserveAspectRatio="xMidYMid meet">

<g transform="translate(0.000000,800.000000) scale(0.100000,-0.100000)"
fill="#000000" stroke="none">
<path d="M0 7989 c0 -5 5 -7 10 -4 5 3 10 8 10 11 0 2 -4 4 -10 4 -5 0 -10 -5
-10 -11z"/>
<path d="M5486 6903 c-6 -14 -5 -15 5 -6 7 7 10 15 7 18 -3 3 -9 -2 -12 -12z"/>
<path d="M5594 6873 c-12 -2 -54 -43 -95 -90 -104 -121 -109 -128 -109 -154 1
-13 1 -36 1 -51 1 -17 -10 -42 -27 -62 -16 -19 -90 -105 -164 -192 -137 -160
-327 -386 -390 -464 -19 -24 -58 -71 -85 -104 -106 -127 -243 -293 -285 -346
-25 -30 -48 -57 -51 -60 -12 -9 -220 -272 -237 -299 -14 -22 -35 -50 -110
-146 -4 -5 -48 -64 -97 -130 -48 -66 -101 -137 -117 -157 -15 -20 -28 -39 -28
-41 0 -3 12 -7 28 -9 15 -3 44 -13 64 -21 l37 -17 78 109 c342 478 389 539
629 823 66 79 172 206 235 284 114 140 250 307 291 354 12 14 69 81 127 150
200 237 203 240 236 240 45 1 67 17 138 107 82 102 87 112 87 163 0 88 -60
132 -156 113z m43 -56 c-12 20 33 27 52 8 12 -14 13 -16 1 -10 -11 6 -10 3 3
-12 18 -20 23 -43 9 -43 -4 0 -8 -9 -9 -20 -2 -23 -27 -52 -37 -43 -3 4 -6 1
-6 -6 0 -7 -7 -19 -15 -28 -17 -16 -10 -37 8 -26 7 4 6 0 -2 -10 -15 -18 -26
-23 -16 -7 8 12 -15 13 -34 1 -11 -7 -22 -3 -38 15 -12 13 -25 24 -28 24 -3 0
-14 9 -24 19 -17 17 -17 22 -6 31 8 6 20 13 27 14 25 3 37 17 33 37 -4 18 -1
20 23 15 15 -4 23 -3 17 1 -12 10 -13 33 -1 51 6 11 12 10 29 -5 11 -10 17
-13 14 -6z m-93 -78 c-3 -5 -10 -7 -15 -3 -5 3 -7 10 -3 15 3 5 10 7 15 3 5
-3 7 -10 3 -15z m-31 -128 c43 -49 40 -85 -8 -101 -30 -10 -40 -9 -60 4 -24
16 -30 36 -25 81 5 52 53 60 93 16z m-73 -108 c0 -16 -17 -33 -35 -36 -11 -1
-27 -6 -35 -11 -8 -4 0 6 18 23 31 30 52 39 52 24z m-70 -89 c0 -12 -59 -48
-67 -41 -2 2 7 15 19 29 25 26 48 32 48 12z m-60 -74 c0 -13 -7 -20 -20 -20
-14 0 -20 -7 -20 -23 0 -26 -36 -54 -43 -34 -6 18 14 57 30 57 7 0 13 6 13 14
0 13 13 23 33 25 4 1 7 -8 7 -19z m-86 -98 c7 -11 -16 -37 -36 -40 -18 -3 -26
27 -11 41 9 9 41 9 47 -1z m-54 -72 c0 -11 -5 -19 -11 -17 -6 1 -16 -6 -22
-16 -12 -19 -125 -137 -131 -137 -3 0 -1 29 3 53 0 4 7 7 14 7 7 0 27 20 45
45 17 25 38 45 47 45 8 0 15 6 15 14 0 13 13 23 33 25 4 1 7 -8 7 -19z m-177
-200 c-6 -23 -28 -27 -36 -6 -5 13 4 19 35 25 3 0 4 -8 1 -19z m-40 -26 c6 -7
-25 -62 -34 -60 -4 1 -16 -8 -28 -18 -17 -16 -21 -16 -21 -4 0 9 7 19 16 22 9
4 14 9 10 13 -3 4 4 17 16 30 22 24 30 27 41 17z m-87 -109 c9 -8 11 -15 5
-15 -6 0 -11 -7 -11 -15 0 -9 -7 -18 -15 -21 -8 -4 -12 -11 -8 -17 3 -6 1 -7
-5 -3 -6 4 -19 -11 -30 -38 -11 -24 -30 -49 -41 -55 -12 -7 -21 -18 -21 -26 0
-8 -10 -21 -22 -29 -13 -8 -32 -31 -42 -51 -11 -19 -25 -35 -33 -35 -7 0 -13
-3 -13 -7 0 -5 -10 -19 -21 -33 -11 -14 -17 -19 -13 -11 5 9 3 12 -4 7 -7 -4
-12 -15 -12 -24 -1 -19 -89 -118 -102 -114 -4 1 -8 -5 -8 -13 0 -8 -5 -14 -12
-13 -7 2 -13 -4 -14 -12 -3 -32 -4 -33 -18 -15 -12 17 -11 23 10 48 13 16 24
33 24 39 0 6 7 7 16 4 9 -3 12 -2 9 5 -4 6 1 19 11 30 14 16 20 17 33 6 14
-10 14 -10 3 4 -10 13 -8 21 13 43 14 15 25 31 25 37 0 5 11 14 25 19 15 6 25
17 25 30 0 12 22 40 50 67 28 26 50 51 50 57 1 14 46 66 58 66 6 0 13 11 16
24 7 28 36 42 48 24 6 -8 7 -1 4 20 -5 36 -1 39 20 17z m-458 -572 c2 -13 -6
-27 -20 -37 -12 -9 -19 -16 -14 -16 4 0 -7 -15 -25 -32 -17 -18 -40 -50 -49
-71 -10 -22 -28 -44 -41 -51 -14 -7 -23 -19 -21 -29 2 -10 -1 -17 -5 -16 -21
4 -32 -2 -27 -15 7 -19 -13 -56 -30 -56 -8 0 -17 -12 -20 -26 -8 -29 -29 -54
-46 -54 -6 0 -9 -4 -6 -9 3 -4 -3 -16 -14 -26 -11 -10 -20 -26 -20 -36 0 -11
-9 -19 -22 -21 -17 -2 -24 -11 -26 -30 -2 -16 -8 -29 -13 -29 -39 -5 -52 -18
-38 -35 10 -13 6 -18 -13 -15 -4 0 -5 -6 -1 -15 9 -25 -36 -64 -74 -64 -38 0
-41 9 -13 35 11 10 20 22 20 27 0 6 20 33 44 61 24 29 45 57 45 62 1 6 7 10
14 10 6 0 11 -7 9 -15 -3 -12 1 -11 15 3 15 15 16 19 4 27 -12 7 -9 15 15 45
16 21 36 47 44 60 8 12 43 57 78 100 34 43 62 84 62 91 0 8 7 14 15 14 8 0 21
15 28 33 8 17 35 51 61 75 26 23 45 42 41 42 -3 0 -1 9 5 21 14 24 34 20 38
-8z"/>
<path d="M5605 6690 c-3 -5 -1 -10 4 -10 6 0 11 5 11 10 0 6 -2 10 -4 10 -3 0
-8 -4 -11 -10z"/>
<path d="M5775 6620 c-19 -8 -19 -9 3 -9 12 -1 22 4 22 9 0 6 -1 10 -2 9 -2 0
-12 -4 -23 -9z"/>
<path d="M5831 6584 c0 -11 3 -14 6 -6 3 7 2 16 -1 19 -3 4 -6 -2 -5 -13z"/>
<path d="M5120 6550 c0 -5 5 -10 10 -10 6 0 10 5 10 10 0 6 -4 10 -10 10 -5 0
-10 -4 -10 -10z"/>
<path d="M5228 6513 c6 -2 18 -2 25 0 6 3 1 5 -13 5 -14 0 -19 -2 -12 -5z"/>
<path d="M5610 6460 c0 -5 5 -10 10 -10 6 0 10 5 10 10 0 6 -4 10 -10 10 -5 0
-10 -4 -10 -10z"/>
<path d="M5160 6444 c0 -8 5 -12 10 -9 6 3 10 10 10 16 0 5 -4 9 -10 9 -5 0
-10 -7 -10 -16z"/>
<path d="M5586 6415 c-9 -26 -7 -32 5 -12 6 10 9 21 6 23 -2 3 -7 -2 -11 -11z"/>
<path d="M5170 6390 c0 -5 5 -10 11 -10 5 0 7 5 4 10 -3 6 -8 10 -11 10 -2 0
-4 -4 -4 -10z"/>
<path d="M5421 6194 c0 -11 3 -14 6 -6 3 7 2 16 -1 19 -3 4 -6 -2 -5 -13z"/>
<path d="M4893 6183 c9 -2 25 -2 35 0 9 3 1 5 -18 5 -19 0 -27 -2 -17 -5z"/>
<path d="M5271 6074 c0 -11 3 -14 6 -6 3 7 2 16 -1 19 -3 4 -6 -2 -5 -13z"/>
<path d="M5231 5974 c0 -11 3 -14 6 -6 3 7 2 16 -1 19 -3 4 -6 -2 -5 -13z"/>
<path d="M5241 5934 c0 -11 3 -14 6 -6 3 7 2 16 -1 19 -3 4 -6 -2 -5 -13z"/>
<path d="M5070 5839 c0 -5 5 -7 10 -4 6 3 10 8 10 11 0 2 -4 4 -10 4 -5 0 -10
-5 -10 -11z"/>
<path d="M4680 5814 c0 -14 3 -14 15 -4 8 7 15 14 15 16 0 2 -7 4 -15 4 -8 0
-15 -7 -15 -16z"/>
<path d="M4330 5590 c0 -5 5 -10 10 -10 6 0 10 5 10 10 0 6 -4 10 -10 10 -5 0
-10 -4 -10 -10z"/>
<path d="M4770 5520 c-9 -6 -10 -10 -3 -10 6 0 15 5 18 10 8 12 4 12 -15 0z"/>
<path d="M4210 5280 l-25 -8 28 -1 c15 -1 27 4 27 9 0 6 -1 10 -2 9 -2 -1 -14
-5 -28 -9z"/>
<path d="M4622 5240 c0 -14 2 -19 5 -12 2 6 2 18 0 25 -3 6 -5 1 -5 -13z"/>
<path d="M4040 5109 c0 -5 5 -7 10 -4 6 3 10 8 10 11 0 2 -4 4 -10 4 -5 0 -10
-5 -10 -11z"/>
<path d="M4472 5075 c0 -16 2 -22 5 -12 2 9 2 23 0 30 -3 6 -5 -1 -5 -18z"/>
<path d="M4312 4900 c0 -14 2 -19 5 -12 2 6 2 18 0 25 -3 6 -5 1 -5 -13z"/>
<path d="M3925 4900 c-3 -5 -1 -10 4 -10 6 0 11 5 11 10 0 6 -2 10 -4 10 -3 0
-8 -4 -11 -10z"/>
<path d="M3842 4870 c0 -14 2 -19 5 -12 2 6 2 18 0 25 -3 6 -5 1 -5 -13z"/>
<path d="M3910 4865 c0 -8 2 -15 4 -15 2 0 6 7 10 15 3 8 1 15 -4 15 -6 0 -10
-7 -10 -15z"/>
<path d="M3896 4827 c3 -10 9 -15 12 -12 3 3 0 11 -7 18 -10 9 -11 8 -5 -6z"/>
<path d="M4259 4813 c-13 -16 -12 -17 4 -4 16 13 21 21 13 21 -2 0 -10 -8 -17
-17z"/>
<path d="M3247 4673 c-13 -12 -7 -23 11 -22 10 0 12 3 4 6 -6 2 -10 9 -6 14 6
10 0 12 -9 2z"/>
<path d="M3285 4669 c-5 -7 18 -10 74 -7 45 2 81 -1 81 -5 0 -5 5 -5 10 -2 6
4 8 11 5 16 -9 13 -162 11 -170 -2z"/>
<path d="M3475 4660 c3 -5 12 -10 20 -10 8 0 17 5 20 10 4 6 -5 10 -20 10 -15
0 -24 -4 -20 -10z"/>
<path d="M3638 4663 c6 -2 18 -2 25 0 6 3 1 5 -13 5 -14 0 -19 -2 -12 -5z"/>
<path d="M3525 4650 c-3 -5 -2 -10 4 -10 5 0 13 5 16 10 3 6 2 10 -4 10 -5 0
-13 -4 -16 -10z"/>
<path d="M3152 4629 c-12 -11 -20 -24 -17 -30 8 -11 54 21 55 39 0 18 -13 15
-38 -9z m18 -3 c0 -2 -8 -10 -17 -17 -16 -13 -17 -12 -4 4 13 16 21 21 21 13z"/>
<path d="M3448 4623 c7 -3 16 -2 19 1 4 3 -2 6 -13 5 -11 0 -14 -3 -6 -6z"/>
<path d="M3605 4621 c-3 -5 -2 -12 3 -15 5 -3 9 1 9 9 0 17 -3 19 -12 6z"/>
<path d="M3680 4610 c0 -5 0 -13 0 -17 0 -9 20 -12 33 -5 9 4 -11 32 -24 32
-5 0 -9 -4 -9 -10z"/>
<path d="M3096 4591 c-4 -5 -2 -12 3 -15 5 -4 12 -2 15 3 4 5 2 12 -3 15 -5 4
-12 2 -15 -3z"/>
<path d="M3744 4559 c0 -13 3 -15 13 -7 7 6 13 14 13 18 0 3 -6 7 -13 7 -7 0
-13 -8 -13 -18z"/>
<path d="M3026 4533 c-18 -15 -25 -28 -19 -34 6 -6 17 -2 30 10 11 11 24 17
27 14 8 -9 7 10 -2 24 -5 8 -16 4 -36 -14z m14 -7 c0 -2 -8 -10 -17 -17 -16
-13 -17 -12 -4 4 13 16 21 21 21 13z"/>
<path d="M3371 4534 c0 -11 3 -14 6 -6 3 7 2 16 -1 19 -3 4 -6 -2 -5 -13z"/>
<path d="M4141 4524 c0 -11 3 -14 6 -6 3 7 2 16 -1 19 -3 4 -6 -2 -5 -13z"/>
<path d="M3683 4515 c0 -8 4 -15 9 -15 4 0 8 4 8 9 0 6 -4 12 -8 15 -5 3 -9
-1 -9 -9z"/>
<path d="M3080 4510 c0 -5 5 -10 11 -10 5 0 7 5 4 10 -3 6 -8 10 -11 10 -2 0
-4 -4 -4 -10z"/>
<path d="M3799 4508 c-8 -27 -5 -35 12 -31 15 4 17 8 8 19 -11 13 -18 17 -20
12z"/>
<path d="M3170 4489 c0 -5 5 -7 10 -4 6 3 10 8 10 11 0 2 -4 4 -10 4 -5 0 -10
-5 -10 -11z"/>
<path d="M4018 4481 c-7 -9 -8 -13 -4 -9 5 4 14 4 20 -1 14 -12 81 -20 94 -12
6 3 -14 13 -44 22 -49 15 -55 15 -66 0z"/>
<path d="M2926 4446 c-39 -35 -45 -44 -31 -50 27 -10 34 -7 30 13 -2 12 5 22
21 30 13 6 23 16 22 23 -2 7 3 12 10 10 8 -1 11 2 7 8 -8 13 -5 16 -59 -34z"/>
<path d="M3547 4463 c3 -7 6 -13 8 -13 2 0 5 6 8 13 3 8 -1 14 -8 14 -7 0 -11
-6 -8 -14z"/>
<path d="M3921 4447 c-1 -12 -6 -16 -13 -11 -10 5 -10 4 -1 -6 16 -17 26 -8
20 17 -4 17 -5 17 -6 0z"/>
<path d="M4145 4450 c-8 -13 15 -24 27 -12 6 6 4 11 -6 15 -8 3 -18 2 -21 -3z"/>
<path d="M4185 4430 c-5 -9 -1 -10 15 -5 17 5 20 4 15 -5 -6 -10 -2 -11 16 -7
25 6 50 -3 52 -19 1 -5 11 -14 22 -20 17 -9 22 -8 22 3 0 29 -128 76 -142 53z"/>
<path d="M3368 4413 c7 -3 16 -2 19 1 4 3 -2 6 -13 5 -11 0 -14 -3 -6 -6z"/>
<path d="M3693 4401 c-26 -12 -52 -35 -70 -63 -15 -24 -31 -45 -34 -48 -4 -3
-15 -19 -25 -35 -49 -79 -199 -269 -273 -347 -79 -84 -91 -108 -52 -108 18 0
147 128 213 210 75 94 227 319 234 345 13 51 43 53 169 11 83 -27 116 -42 120
-56 11 -35 -6 -84 -39 -109 l-31 -25 30 34 30 33 -30 -21 c-34 -24 -88 -69
-232 -194 -90 -78 -273 -266 -281 -289 -2 -5 10 -9 26 -9 25 0 45 16 119 95
48 51 144 142 213 201 69 59 155 134 193 168 103 93 93 120 -70 178 -136 49
-159 52 -210 29z m327 -121 c0 -5 -4 -10 -10 -10 -5 0 -10 5 -10 10 0 6 5 10
10 10 6 0 10 -4 10 -10z m-425 -38 c-15 -16 -16 -15 -4 12 7 15 15 23 17 16 3
-7 -3 -19 -13 -28z m-61 -89 c-15 -21 -32 -39 -36 -41 -4 -2 -8 -9 -8 -15 -1
-7 -12 -25 -26 -42 -18 -20 -24 -24 -20 -11 8 25 109 157 114 151 3 -3 -8 -21
-24 -42z m306 -36 c0 -2 -10 -12 -22 -23 l-23 -19 19 23 c18 21 26 27 26 19z"/>
<path d="M4410 4416 c0 -2 7 -7 16 -10 8 -3 12 -2 9 4 -6 10 -25 14 -25 6z"/>
<path d="M4362 4373 c2 -9 11 -17 20 -19 28 -4 29 10 2 23 -22 10 -25 9 -22
-4z"/>
<path d="M2837 4364 c-3 -3 -3 -13 0 -22 5 -11 3 -13 -7 -7 -9 5 -11 4 -6 -3
12 -21 26 -13 24 13 -3 28 -2 27 -11 19z"/>
<path d="M4175 4350 c3 -5 8 -10 11 -10 2 0 4 5 4 10 0 6 -5 10 -11 10 -5 0
-7 -4 -4 -10z"/>
<path d="M4416 4344 c-5 -14 -4 -15 9 -4 17 14 19 20 6 20 -5 0 -12 -7 -15
-16z"/>
<path d="M3720 4330 c6 -12 32 -26 68 -36 31 -8 71 -22 89 -30 44 -20 62 -19
40 3 -19 19 -102 53 -132 53 -11 0 -29 7 -39 15 -28 21 -39 19 -26 -5z"/>
<path d="M4450 4335 c0 -17 18 -19 38 -6 11 7 10 10 -3 15 -26 10 -35 7 -35
-9z"/>
<path d="M4510 4319 c0 -6 6 -9 13 -6 8 3 20 1 28 -5 11 -8 10 -9 -3 -4 -10 3
-18 0 -18 -6 0 -6 11 -8 30 -4 17 3 29 2 26 -3 -3 -5 0 -14 8 -20 10 -9 16 -8
26 4 11 13 10 14 -5 9 -12 -5 -16 -4 -12 3 4 6 -10 18 -33 27 -48 19 -60 20
-60 5z"/>
<path d="M2771 4306 c-9 -11 -9 -16 0 -22 8 -5 9 -3 4 6 -6 9 -2 10 16 5 21
-7 22 -6 10 9 -16 19 -16 19 -30 2z"/>
<path d="M3470 4310 c0 -5 5 -10 10 -10 6 0 10 5 10 10 0 6 -4 10 -10 10 -5 0
-10 -4 -10 -10z"/>
<path d="M2888 4303 c6 -2 18 -2 25 0 6 3 1 5 -13 5 -14 0 -19 -2 -12 -5z"/>
<path d="M2736 4272 c-3 -6 -1 -14 5 -17 15 -10 25 3 12 16 -7 7 -13 7 -17 1z"/>
<path d="M4650 4270 c-13 -8 -13 -10 2 -10 9 0 20 5 23 10 8 13 -5 13 -25 0z"/>
<path d="M4703 4257 c0 -8 6 -14 14 -14 9 0 10 4 2 14 -6 7 -12 13 -14 13 -1
0 -2 -6 -2 -13z"/>
<path d="M4745 4240 c-8 -13 15 -24 27 -12 6 6 4 11 -6 15 -8 3 -18 2 -21 -3z"/>
<path d="M2682 4228 c-8 -11 -6 -17 11 -27 18 -11 20 -11 10 0 -18 18 -16 29
3 29 9 0 18 -9 21 -20 3 -11 10 -20 15 -20 15 0 -17 44 -34 48 -8 2 -20 -3
-26 -10z"/>
<path d="M4812 4222 c-9 -6 -6 -12 12 -21 25 -14 51 -7 40 10 -3 5 -15 7 -26
3 -14 -4 -18 -2 -14 5 8 13 6 14 -12 3z"/>
<path d="M3277 4199 c7 -7 15 -10 18 -7 3 3 -2 9 -12 12 -14 6 -15 5 -6 -5z"/>
<path d="M4924 4192 c4 -7 1 -12 -9 -12 -22 0 -11 -16 15 -23 16 -4 19 -2 11
7 -6 7 -8 15 -5 18 3 3 0 9 -7 14 -8 4 -10 3 -5 -4z"/>
<path d="M2640 4181 c0 -6 4 -13 10 -16 6 -3 7 1 4 9 -7 18 -14 21 -14 7z"/>
<path d="M2620 4161 c0 -6 4 -13 10 -16 6 -3 7 1 4 9 -7 18 -14 21 -14 7z"/>
<path d="M4995 4150 c-19 -8 -19 -9 2 -9 12 -1 25 4 28 9 7 12 -2 12 -30 0z"/>
<path d="M2593 4143 c-15 -5 -18 -33 -4 -33 13 0 33 28 24 33 -4 2 -14 2 -20
0z"/>
<path d="M3685 4140 c3 -5 10 -10 16 -10 5 0 9 5 9 10 0 6 -7 10 -16 10 -8 0
-12 -4 -9 -10z"/>
<path d="M5056 4138 c5 -8 1 -9 -10 -5 -11 4 -15 3 -10 -4 3 -6 16 -8 28 -5
27 7 51 -8 41 -25 -6 -11 -5 -12 6 -1 17 15 43 16 33 0 -5 -7 -3 -8 5 -4 17
11 9 16 -49 37 -28 10 -47 13 -44 7z"/>
<path d="M2639 4123 c-13 -16 -12 -17 4 -4 16 13 21 21 13 21 -2 0 -10 -8 -17
-17z"/>
<path d="M4045 4130 c-3 -5 -1 -10 4 -10 6 0 11 5 11 10 0 6 -2 10 -4 10 -3 0
-8 -4 -11 -10z"/>
<path d="M3998 4113 c7 -3 16 -2 19 1 4 3 -2 6 -13 5 -11 0 -14 -3 -6 -6z"/>
<path d="M2551 4096 c-8 -10 -9 -16 -1 -21 5 -3 10 -5 11 -3 4 18 7 38 4 38
-1 0 -8 -6 -14 -14z"/>
<path d="M5180 4095 c7 -8 9 -15 4 -16 -5 0 2 -4 14 -10 15 -6 30 -5 40 1 14
8 14 9 2 10 -8 0 -28 7 -44 15 -25 14 -27 14 -16 0z"/>
<path d="M5438 4073 c7 -3 16 -2 19 1 4 3 -2 6 -13 5 -11 0 -14 -3 -6 -6z"/>
<path d="M2497 4048 c-10 -11 -17 -22 -14 -24 2 -2 10 2 16 10 7 8 19 12 28 9
10 -4 14 -2 11 7 -7 21 -21 20 -41 -2z"/>
<path d="M5259 4066 c0 0 -2 -9 -4 -18 -3 -18 6 -24 19 -11 12 13 35 11 40 -3
3 -8 12 -11 22 -7 11 4 15 2 11 -4 -8 -12 19 -12 28 0 3 4 2 5 -1 2 -4 -2 -19
4 -33 14 -20 14 -78 33 -82 27z"/>
<path d="M4615 4050 c-3 -5 1 -10 9 -10 9 0 16 5 16 10 0 6 -4 10 -9 10 -6 0
-13 -4 -16 -10z"/>
<path d="M5133 4045 c0 -8 4 -12 9 -9 5 3 6 10 3 15 -9 13 -12 11 -12 -6z"/>
<path d="M4795 4040 c-3 -5 -1 -10 4 -10 6 0 11 5 11 10 0 6 -2 10 -4 10 -3 0
-8 -4 -11 -10z"/>
<path d="M4928 4023 c6 -2 18 -2 25 0 6 3 1 5 -13 5 -14 0 -19 -2 -12 -5z"/>
<path d="M2505 4010 c-3 -5 -1 -10 4 -10 6 0 11 5 11 10 0 6 -2 10 -4 10 -3 0
-8 -4 -11 -10z"/>
<path d="M5196 4007 c3 -10 9 -15 12 -12 3 3 0 11 -7 18 -10 9 -11 8 -5 -6z"/>
<path d="M5395 4010 c3 -5 11 -10 16 -10 6 0 7 5 4 10 -3 6 -11 10 -16 10 -6
0 -7 -4 -4 -10z"/>
<path d="M4838 4003 c6 -2 18 -2 25 0 6 3 1 5 -13 5 -14 0 -19 -2 -12 -5z"/>
<path d="M2430 3986 c0 -15 18 -31 26 -23 7 7 -7 37 -17 37 -5 0 -9 -6 -9 -14z"/>
<path d="M5412 3981 c-11 -7 -11 -9 0 -14 9 -3 15 1 15 9 0 8 -1 14 -1 14 -1
0 -7 -4 -14 -9z"/>
<path d="M5470 3980 c-13 -8 -13 -10 2 -10 9 0 20 5 23 10 8 13 -5 13 -25 0z"/>
<path d="M5515 3972 c-13 -13 -3 -23 18 -17 18 6 20 5 10 -6 -16 -16 -17 -29
-2 -29 5 0 8 4 5 9 -3 5 2 12 11 15 10 4 20 1 25 -9 5 -8 13 -13 18 -10 5 3
14 -4 20 -15 6 -11 15 -20 21 -20 6 0 7 4 4 10 -3 6 1 7 9 4 9 -3 13 -10 10
-16 -3 -5 0 -8 7 -7 21 3 50 -12 43 -22 -3 -5 0 -8 8 -7 8 2 14 -8 16 -24 2
-16 8 -28 13 -28 5 0 9 -7 9 -16 0 -8 -4 -12 -10 -9 -6 3 -7 -1 -4 -9 3 -9 10
-14 14 -11 4 3 11 -3 14 -12 4 -9 2 -20 -5 -23 -8 -6 -8 -9 0 -14 16 -10 14
-36 -3 -30 -8 3 -17 -1 -22 -8 -4 -7 -4 -10 1 -6 4 4 14 1 21 -7 16 -15 19
-101 5 -110 -5 -3 -8 7 -7 22 2 16 -2 31 -8 36 -8 5 -7 10 3 16 8 5 9 11 3 15
-17 10 -24 -11 -17 -50 6 -44 13 -56 26 -49 14 9 11 -99 -3 -113 -9 -9 -9 -15
0 -24 15 -15 15 -51 0 -66 -8 -8 -8 -15 1 -26 9 -11 11 -30 5 -68 -5 -29 -8
-66 -9 -83 0 -16 -4 -36 -9 -44 -6 -9 -5 -12 1 -8 18 11 12 -82 -6 -96 -9 -7
-16 -19 -16 -28 0 -20 -63 -119 -87 -137 -10 -7 -18 -19 -18 -25 -1 -16 -36
-57 -49 -57 -6 0 -11 -8 -11 -19 0 -21 -23 -45 -33 -34 -4 3 -7 -4 -7 -16 0
-15 -5 -21 -17 -19 -13 2 -17 -3 -15 -15 4 -22 -29 -65 -46 -59 -6 2 -13 -2
-13 -10 -1 -7 -2 -18 -3 -25 -2 -20 -67 -94 -77 -87 -5 3 -6 -1 -3 -9 3 -8 -6
-25 -20 -38 -14 -13 -26 -30 -26 -36 0 -7 -5 -13 -12 -13 -6 0 -9 -3 -5 -6 3
-3 -5 -16 -19 -29 -13 -12 -24 -27 -24 -33 0 -6 -3 -12 -7 -14 -5 -1 -16 -16
-25 -33 -10 -16 -22 -29 -28 -27 -5 1 -10 -4 -10 -11 0 -7 -9 -23 -20 -35 -11
-12 -20 -24 -20 -27 0 -3 -11 -18 -25 -33 -14 -15 -25 -32 -25 -39 0 -6 -3
-13 -7 -15 -9 -4 -75 -86 -89 -109 -5 -9 -24 -34 -41 -55 -18 -22 -57 -68 -87
-104 -112 -135 -180 -180 -301 -198 -71 -10 -120 -8 -117 6 3 15 -15 16 -20 0
-3 -7 -31 -2 -91 17 -78 25 -86 29 -70 41 16 13 15 13 -10 4 -36 -13 -40 -13
-31 2 4 6 3 8 -3 5 -14 -9 -83 14 -77 25 3 5 0 8 -7 7 -22 -5 -69 10 -69 22 0
6 -5 7 -10 4 -14 -8 -52 4 -45 15 3 4 -3 6 -14 3 -10 -3 -22 0 -25 6 -4 6 -19
11 -33 11 -19 0 -24 4 -19 15 4 12 2 14 -11 7 -11 -7 -31 -4 -62 9 -25 10 -90
35 -143 56 -86 33 -97 40 -93 58 5 18 5 18 -5 3 -11 -19 -29 -14 -147 38 -21
9 -44 18 -52 20 -8 1 -17 8 -21 14 -4 7 -10 11 -14 11 -19 -3 -27 0 -22 8 4 5
-2 7 -12 4 -11 -2 -25 1 -33 9 -8 7 -18 13 -24 13 -22 1 -85 27 -85 36 0 6 -4
8 -9 5 -4 -3 -28 4 -52 16 -24 12 -47 23 -51 24 -5 1 -9 2 -10 4 -2 1 -10 3
-19 5 -9 1 -50 19 -91 39 -41 20 -83 36 -92 36 -9 0 -16 5 -16 10 0 6 -9 10
-20 10 -11 0 -28 4 -38 9 -9 5 -32 15 -50 22 -25 9 -30 14 -20 21 10 7 8 8 -5
4 -29 -9 -70 11 -62 32 5 14 4 15 -6 5 -17 -17 -43 -17 -36 0 4 10 -3 12 -25
9 -23 -4 -29 -2 -23 8 5 9 4 11 -4 6 -7 -4 -29 0 -49 10 -20 10 -41 18 -45 19
-4 0 -11 5 -15 10 -4 6 -16 10 -27 10 -12 0 -19 6 -17 14 2 9 -4 12 -18 8 -11
-3 -23 -1 -26 4 -3 5 -14 9 -25 9 -10 0 -19 5 -19 10 0 6 -3 9 -7 8 -17 -5
-152 56 -146 65 3 6 1 7 -5 3 -20 -12 -89 34 -74 49 4 4 0 5 -8 3 -8 -2 -14 3
-13 9 2 7 -2 12 -8 10 -6 -1 -20 17 -30 41 -10 23 -14 42 -9 42 6 0 10 5 10
11 0 5 -4 7 -10 4 -5 -3 -11 4 -12 17 -2 31 -3 40 -11 63 -3 11 -9 47 -12 79
-3 32 -13 73 -22 89 l-16 31 31 -26 c43 -36 150 -95 227 -123 36 -14 73 -29
82 -35 10 -5 72 -30 138 -55 66 -25 140 -55 165 -65 25 -11 167 -67 315 -126
432 -169 498 -195 540 -214 22 -10 51 -21 65 -25 14 -4 90 -33 170 -65 144
-57 254 -100 380 -147 76 -29 136 -37 146 -21 4 7 3 8 -4 4 -6 -4 -22 0 -34 8
-13 7 -52 24 -88 36 -36 12 -78 27 -95 34 -16 7 -75 30 -130 50 -55 21 -143
53 -195 73 -52 20 -122 46 -155 58 -33 13 -98 37 -145 55 -47 18 -202 78 -345
134 -143 57 -321 126 -395 155 -74 29 -154 61 -177 72 -24 10 -45 19 -48 19
-9 0 -249 102 -310 131 -78 39 -129 84 -122 110 3 10 2 19 -3 19 -4 0 -8 10
-7 23 0 12 -3 48 -7 81 -6 47 -5 57 6 50 7 -4 5 2 -4 13 -10 11 -18 30 -18 43
0 20 2 21 18 9 16 -13 16 -12 1 6 -8 11 -14 28 -12 37 4 15 8 16 25 7 11 -6
17 -17 14 -24 -5 -15 17 -39 27 -29 6 6 -20 53 -35 64 -11 8 -47 98 -42 103 3
3 7 13 9 24 2 10 4 20 4 22 1 2 7 -2 14 -8 18 -15 29 -3 17 20 -7 13 -6 22 6
33 8 9 12 16 8 16 -4 0 1 9 11 20 10 11 14 20 10 20 -4 0 2 9 15 20 13 11 27
20 33 20 5 0 7 6 4 14 -7 18 12 36 30 29 12 -5 14 -1 8 17 -4 14 -3 20 3 16 5
-3 15 1 21 8 7 9 8 17 3 20 -6 3 -35 -22 -65 -57 -119 -133 -157 -205 -157
-293 0 -72 23 -277 49 -450 37 -238 55 -300 99 -348 30 -32 155 -93 367 -181
77 -31 192 -79 255 -105 63 -27 178 -74 255 -105 77 -31 230 -94 340 -140 277
-115 558 -228 630 -253 33 -11 105 -37 160 -57 340 -125 321 -120 435 -119
168 0 251 44 386 201 57 67 349 449 454 594 19 26 89 118 155 204 324 422 299
362 305 735 3 162 2 334 -1 383 -8 109 -31 149 -121 203 -64 39 -154 75 -163
66z"/>
<path d="M3780 3959 c0 -5 9 -9 20 -9 11 0 20 2 20 4 0 2 -9 6 -20 9 -11 3
-20 1 -20 -4z"/>
<path d="M2402 3944 c10 -10 20 -16 22 -13 3 3 -5 11 -17 18 -21 13 -21 12 -5
-5z"/>
<path d="M2361 3926 c-9 -10 -8 -15 3 -19 16 -6 40 16 29 26 -10 11 -19 8 -32
-7z"/>
<path d="M3850 3930 c0 -5 5 -10 10 -10 6 0 10 5 10 10 0 6 -4 10 -10 10 -5 0
-10 -4 -10 -10z"/>
<path d="M4860 3909 c0 -5 5 -7 10 -4 6 3 10 8 10 11 0 2 -4 4 -10 4 -5 0 -10
-5 -10 -11z"/>
<path d="M5480 3906 c0 -2 7 -6 15 -10 8 -3 15 -1 15 4 0 6 -7 10 -15 10 -8 0
-15 -2 -15 -4z"/>
<path d="M3725 3889 c-4 -6 -17 -14 -29 -19 -14 -6 -16 -9 -5 -9 9 -1 24 8 34
19 10 11 15 20 12 20 -3 0 -9 -5 -12 -11z"/>
<path d="M2306 3881 c-3 -5 1 -11 9 -15 15 -6 29 7 18 18 -9 9 -21 8 -27 -3z"/>
<path d="M3165 3870 c-3 -5 -1 -10 4 -10 6 0 11 5 11 10 0 6 -2 10 -4 10 -3 0
-8 -4 -11 -10z"/>
<path d="M5415 3860 c3 -5 8 -10 11 -10 2 0 4 5 4 10 0 6 -5 10 -11 10 -5 0
-7 -4 -4 -10z"/>
<path d="M2264 3828 c-19 -23 -19 -23 2 -5 11 9 24 14 29 10 4 -5 5 -2 1 5 -9
16 -10 16 -32 -10z"/>
<path d="M3125 3820 c-3 -5 -1 -10 4 -10 6 0 11 5 11 10 0 6 -2 10 -4 10 -3 0
-8 -4 -11 -10z"/>
<path d="M4230 3820 c0 -5 5 -10 11 -10 5 0 7 5 4 10 -3 6 -8 10 -11 10 -2 0
-4 -4 -4 -10z"/>
<path d="M4975 3820 c-3 -5 1 -10 10 -10 9 0 13 5 10 10 -3 6 -8 10 -10 10 -2
0 -7 -4 -10 -10z"/>
<path d="M5465 3820 c3 -5 8 -10 11 -10 2 0 4 5 4 10 0 6 -5 10 -11 10 -5 0
-7 -4 -4 -10z"/>
<path d="M2968 3813 c7 -3 16 -2 19 1 4 3 -2 6 -13 5 -11 0 -14 -3 -6 -6z"/>
<path d="M5620 3810 c0 -5 5 -10 10 -10 6 0 10 5 10 10 0 6 -4 10 -10 10 -5 0
-10 -4 -10 -10z"/>
<path d="M2225 3790 c3 -5 8 -10 11 -10 2 0 4 5 4 10 0 6 -5 10 -11 10 -5 0
-7 -4 -4 -10z"/>
<path d="M2203 3768 c4 -13 2 -15 -10 -11 -10 4 -14 2 -11 -7 2 -8 9 -15 15
-17 16 -6 26 29 12 41 -9 8 -10 7 -6 -6z"/>
<path d="M2260 3755 c-7 -9 -10 -18 -7 -21 3 -3 10 4 17 15 13 25 8 27 -10 6z"/>
<path d="M3255 3740 c-3 -6 1 -7 9 -4 18 7 21 14 7 14 -6 0 -13 -4 -16 -10z"/>
<path d="M5025 3729 c-4 -6 -5 -12 -2 -15 2 -3 7 2 10 11 7 17 1 20 -8 4z"/>
<path d="M2145 3722 c-10 -10 -5 -19 10 -19 8 0 16 6 19 12 4 11 -19 17 -29 7z"/>
<path d="M5735 3710 c-3 -5 -1 -10 4 -10 6 0 11 5 11 10 0 6 -2 10 -4 10 -3 0
-8 -4 -11 -10z"/>
<path d="M3281 3694 c0 -11 3 -14 6 -6 3 7 2 16 -1 19 -3 4 -6 -2 -5 -13z"/>
<path d="M4800 3695 c0 -8 4 -15 10 -15 5 0 7 7 4 15 -4 8 -8 15 -10 15 -2 0
-4 -7 -4 -15z"/>
<path d="M4938 3693 c7 -3 16 -2 19 1 4 3 -2 6 -13 5 -11 0 -14 -3 -6 -6z"/>
<path d="M5520 3654 c0 -8 5 -12 10 -9 6 4 8 11 5 16 -9 14 -15 11 -15 -7z"/>
<path d="M4968 3653 c7 -3 16 -2 19 1 4 3 -2 6 -13 5 -11 0 -14 -3 -6 -6z"/>
<path d="M5018 3653 c7 -3 16 -2 19 1 4 3 -2 6 -13 5 -11 0 -14 -3 -6 -6z"/>
<path d="M4988 3603 c6 -2 18 -2 25 0 6 3 1 5 -13 5 -14 0 -19 -2 -12 -5z"/>
<path d="M5412 3570 c0 -19 2 -27 5 -17 2 9 2 25 0 35 -3 9 -5 1 -5 -18z"/>
<path d="M5475 3590 c3 -5 8 -10 11 -10 2 0 4 5 4 10 0 6 -5 10 -11 10 -5 0
-7 -4 -4 -10z"/>
<path d="M3048 3573 c7 -3 16 -2 19 1 4 3 -2 6 -13 5 -11 0 -14 -3 -6 -6z"/>
<path d="M2201 3554 c0 -11 3 -14 6 -6 3 7 2 16 -1 19 -3 4 -6 -2 -5 -13z"/>
<path d="M3267 3556 c-3 -8 -2 -18 3 -21 13 -8 20 9 11 24 -6 10 -10 9 -14 -3z"/>
<path d="M5700 3553 c0 -15 18 -35 27 -32 5 2 1 12 -9 22 -10 9 -18 14 -18 10z"/>
<path d="M2538 3543 c7 -3 16 -2 19 1 4 3 -2 6 -13 5 -11 0 -14 -3 -6 -6z"/>
<path d="M2315 3525 c-100 -44 -77 -139 37 -152 125 -14 216 110 113 153 -42
17 -110 17 -150 -1z m163 -41 c12 -8 20 -19 16 -25 -4 -7 -10 -7 -18 0 -6 5
-34 13 -61 16 -42 5 -58 2 -100 -19 -27 -14 -50 -24 -52 -23 -1 2 4 14 10 27
23 46 147 60 205 24z m-24 -40 c31 -12 16 -26 -21 -20 -21 3 -32 3 -25 0 26
-12 10 -24 -32 -24 -73 0 -101 21 -53 40 26 10 108 13 131 4z"/>
<path d="M2850 3510 c-9 -6 -10 -10 -3 -10 6 0 15 5 18 10 8 12 4 12 -15 0z"/>
<path d="M2030 3506 c0 -2 7 -7 16 -10 8 -3 12 -2 9 4 -6 10 -25 14 -25 6z"/>
<path d="M5667 3503 c-12 -11 -8 -41 6 -46 10 -4 12 3 9 24 -5 31 -5 32 -15
22z"/>
<path d="M4098 3493 c12 -2 30 -2 40 0 9 3 -1 5 -23 4 -22 0 -30 -2 -17 -4z"/>
<path d="M5290 3461 c0 -25 6 -27 13 -6 4 8 2 17 -3 20 -6 4 -10 -3 -10 -14z"/>
<path d="M3870 3450 c8 -5 20 -10 25 -10 6 0 3 5 -5 10 -8 5 -19 10 -25 10 -5
0 -3 -5 5 -10z"/>
<path d="M5580 3451 c0 -5 5 -13 10 -16 6 -3 10 -2 10 4 0 5 -4 13 -10 16 -5
3 -10 2 -10 -4z"/>
<path d="M2141 3434 c0 -11 3 -14 6 -6 3 7 2 16 -1 19 -3 4 -6 -2 -5 -13z"/>
<path d="M2625 3423 c-34 -9 -75 -43 -81 -68 -20 -82 122 -128 213 -68 45 29
57 52 43 89 -16 41 -104 64 -175 47z m153 -57 c19 -19 8 -34 -12 -17 -25 21
-130 17 -170 -7 -35 -21 -36 -21 -36 -2 0 24 43 47 89 48 18 0 35 3 38 5 8 9
76 -12 91 -27z m-22 -41 c17 -13 14 -15 -41 -12 -41 1 -59 -2 -58 -10 1 -6 -5
-10 -15 -8 -9 2 -25 4 -34 4 -10 1 -18 5 -18 9 0 30 132 43 166 17z"/>
<path d="M5645 3420 c-3 -5 -1 -10 4 -10 6 0 11 5 11 10 0 6 -2 10 -4 10 -3 0
-8 -4 -11 -10z"/>
<path d="M3360 3416 c0 -2 7 -6 15 -10 8 -3 15 -1 15 4 0 6 -7 10 -15 10 -8 0
-15 -2 -15 -4z"/>
<path d="M5579 3403 c-1 -10 -3 -28 -4 -41 -1 -12 2 -25 8 -29 6 -3 7 -1 3 5
-3 5 0 13 6 15 10 4 10 6 1 6 -9 1 -10 8 -3 27 12 32 12 34 0 34 -5 0 -11 -8
-11 -17z"/>
<path d="M2420 3329 c0 -5 5 -7 10 -4 6 3 10 8 10 11 0 2 -4 4 -10 4 -5 0 -10
-5 -10 -11z"/>
<path d="M3293 3333 c9 -2 23 -2 30 0 6 3 -1 5 -18 5 -16 0 -22 -2 -12 -5z"/>
<path d="M5517 3326 c-3 -8 2 -16 14 -19 26 -7 34 10 10 22 -14 8 -20 7 -24
-3z"/>
<path d="M3135 3320 c3 -5 12 -7 20 -3 21 7 19 13 -6 13 -11 0 -18 -4 -14 -10z"/>
<path d="M2917 3306 c-50 -18 -77 -44 -77 -73 0 -42 19 -62 72 -78 63 -18 58
-18 58 1 0 13 7 15 38 9 32 -5 42 -2 65 19 50 46 32 100 -42 125 -43 14 -67
13 -114 -3z m156 -54 c27 -24 20 -34 -13 -17 -41 21 -118 19 -165 -5 -41 -21
-49 -21 -40 1 6 16 58 42 95 47 13 2 26 5 28 7 6 6 77 -19 95 -33z m-39 -32
c59 -22 3 -36 -61 -15 -18 6 -23 3 -23 -9 0 -17 -17 -20 -44 -10 -24 9 -19 21
12 32 36 14 84 14 116 2z"/>
<path d="M4036 3298 c3 -4 15 -8 26 -8 12 0 18 3 14 7 -10 10 -46 11 -40 1z"/>
<path d="M5743 3285 c0 -8 4 -12 9 -9 5 3 6 10 3 15 -9 13 -12 11 -12 -6z"/>
<path d="M5500 3286 c0 -2 7 -7 16 -10 8 -3 12 -2 9 4 -6 10 -25 14 -25 6z"/>
<path d="M5453 3260 c-13 -5 -23 -12 -23 -15 0 -3 10 -10 23 -15 17 -7 18 -9
5 -9 -10 -1 -18 -6 -18 -12 0 -5 5 -7 11 -3 6 3 15 1 19 -6 5 -9 9 -9 14 -1 4
6 3 11 -3 11 -5 0 -8 14 -6 30 2 17 3 30 2 29 -1 0 -12 -4 -24 -9z"/>
<path d="M3390 3240 c0 -5 5 -10 10 -10 6 0 10 5 10 10 0 6 -4 10 -10 10 -5 0
-10 -4 -10 -10z"/>
<path d="M5722 3238 c-7 -7 -12 -8 -12 -4 0 5 -47 -51 -105 -125 -165 -209
-222 -280 -386 -485 -85 -104 -192 -237 -238 -295 -103 -128 -206 -235 -246
-255 -48 -24 -133 -52 -180 -59 -66 -10 -215 -11 -215 -1 0 4 -6 6 -14 3 -8
-3 -17 -2 -20 4 -2 5 -3 4 -2 -3 2 -11 7 -15 56 -37 27 -12 82 -12 74 1 -3 4
-1 8 5 8 5 0 13 -5 17 -11 3 -6 20 -9 38 -6 101 18 146 29 210 53 56 21 82 38
124 83 61 64 210 244 360 436 138 176 259 330 405 514 131 165 150 191 145
191 -2 0 -9 -5 -16 -12z"/>
<path d="M1990 3211 c0 -6 4 -13 10 -16 6 -3 7 1 4 9 -7 18 -14 21 -14 7z"/>
<path d="M2033 3205 c0 -8 3 -13 5 -10 3 3 13 -2 23 -11 10 -9 19 -11 23 -5 4
5 -4 17 -16 25 -28 20 -35 20 -35 1z"/>
<path d="M3660 3210 c-9 -6 -10 -10 -3 -10 6 0 15 5 18 10 8 12 4 12 -15 0z"/>
<path d="M3227 3195 c-67 -17 -89 -40 -85 -89 3 -37 7 -43 43 -60 82 -38 205
-4 218 61 7 35 -6 59 -41 76 -43 22 -83 26 -135 12z m146 -53 c18 -18 19 -22
5 -22 -9 0 -20 5 -23 10 -11 18 -118 12 -158 -9 -28 -14 -37 -16 -37 -6 0 8
21 24 48 37 58 29 130 24 165 -10z m-28 -34 c31 -14 33 -33 3 -24 -48 15 -108
19 -108 7 0 -6 14 -11 30 -11 17 0 30 -4 30 -10 0 -15 -86 -12 -99 4 -29 35
83 62 144 34z"/>
<path d="M2628 3193 c6 -2 18 -2 25 0 6 3 1 5 -13 5 -14 0 -19 -2 -12 -5z"/>
<path d="M5410 3189 c0 -6 -6 -9 -14 -6 -8 3 -20 0 -26 -8 -10 -12 -7 -13 19
-5 32 9 48 -1 35 -22 -5 -9 -4 -10 4 -3 12 11 5 55 -9 55 -5 0 -9 -5 -9 -11z"/>
<path d="M2728 3183 c7 -3 16 -2 19 1 4 3 -2 6 -13 5 -11 0 -14 -3 -6 -6z"/>
<path d="M3545 3180 c-3 -5 -1 -10 4 -10 6 0 11 5 11 10 0 6 -2 10 -4 10 -3 0
-8 -4 -11 -10z"/>
<path d="M4348 3173 c6 -2 18 -2 25 0 6 3 1 5 -13 5 -14 0 -19 -2 -12 -5z"/>
<path d="M4460 3171 c0 -6 5 -13 10 -16 6 -3 10 1 10 9 0 9 -4 16 -10 16 -5 0
-10 -4 -10 -9z"/>
<path d="M2288 3163 c6 -2 18 -2 25 0 6 3 1 5 -13 5 -14 0 -19 -2 -12 -5z"/>
<path d="M2582 3161 c2 -7 7 -12 11 -12 12 1 9 15 -3 20 -7 2 -11 -2 -8 -8z"/>
<path d="M2114 3142 c-4 -9 -9 -28 -11 -42 -3 -23 -2 -24 9 -5 14 24 29 35 40
29 4 -3 8 -1 8 3 0 5 -9 14 -19 20 -16 10 -21 9 -27 -5z"/>
<path d="M5390 3139 c0 -5 5 -7 10 -4 6 3 10 8 10 11 0 2 -4 4 -10 4 -5 0 -10
-5 -10 -11z"/>
<path d="M2179 3138 c0 -2 -2 -12 -4 -23 -3 -19 -3 -19 9 -3 7 10 16 14 20 10
4 -4 11 -7 14 -7 4 0 21 -13 37 -29 17 -16 24 -26 18 -22 -8 5 -13 1 -13 -10
0 -16 1 -16 19 0 11 10 25 15 30 11 6 -3 11 1 11 9 0 10 -9 16 -25 16 -13 0
-32 8 -42 19 -15 15 -71 37 -74 29z"/>
<path d="M4348 3123 c6 -2 18 -2 25 0 6 3 1 5 -13 5 -14 0 -19 -2 -12 -5z"/>
<path d="M5352 3109 c-16 -26 -5 -40 23 -29 17 7 17 9 3 9 -19 1 -26 21 -8 21
6 0 10 5 10 10 0 17 -14 11 -28 -11z"/>
<path d="M5481 3114 c0 -11 3 -14 6 -6 3 7 2 16 -1 19 -3 4 -6 -2 -5 -13z"/>
<path d="M2686 3105 c4 -8 8 -15 10 -15 2 0 4 7 4 15 0 8 -4 15 -10 15 -5 0
-7 -7 -4 -15z"/>
<path d="M2730 3099 c0 -5 5 -7 10 -4 6 3 10 8 10 11 0 2 -4 4 -10 4 -5 0 -10
-5 -10 -11z"/>
<path d="M2044 3089 c-5 -8 -3 -9 6 -4 10 6 12 1 8 -18 -3 -15 -1 -24 3 -21
12 7 11 41 0 49 -5 3 -13 0 -17 -6z"/>
<path d="M2361 3091 c-10 -7 -7 -9 12 -8 14 1 23 5 20 10 -6 9 -15 9 -32 -2z"/>
<path d="M3515 3076 c-52 -24 -77 -55 -70 -85 3 -14 14 -34 23 -43 19 -20 112
-41 112 -26 0 5 13 7 28 3 21 -4 36 0 58 17 38 29 44 38 44 70 0 57 -124 98
-195 64z m153 -42 c26 -17 31 -39 5 -25 -43 22 -110 23 -158 2 -54 -24 -72
-19 -35 9 51 39 137 45 188 14z m-35 -35 c20 -5 37 -14 37 -19 0 -12 -7 -12
-49 0 -21 6 -40 6 -50 0 -14 -8 -13 -9 4 -9 43 -1 55 -5 47 -13 -13 -13 -115
-5 -119 8 -2 6 13 19 34 27 46 19 49 20 96 6z"/>
<path d="M2464 3072 c6 -10 42 -9 52 1 4 4 -7 7 -25 7 -18 0 -30 -4 -27 -8z"/>
<path d="M2376 3062 c-3 -6 -1 -14 5 -17 14 -9 20 -2 10 14 -6 8 -11 9 -15 3z"/>
<path d="M2530 3060 c0 -5 5 -10 11 -10 5 0 7 5 4 10 -3 6 -8 10 -11 10 -2 0
-4 -4 -4 -10z"/>
<path d="M5436 3051 c-4 -5 3 -7 14 -4 23 6 26 13 6 13 -8 0 -17 -4 -20 -9z"/>
<path d="M2414 3033 c2 -10 -4 -21 -13 -25 -12 -6 -12 -7 4 -5 11 2 19 9 17
16 -1 7 2 9 8 6 6 -4 9 -14 5 -22 -4 -12 -3 -13 8 -5 8 7 18 8 22 4 5 -4 0 5
-11 20 -22 31 -44 37 -40 11z"/>
<path d="M2598 3043 c7 -3 16 -2 19 1 4 3 -2 6 -13 5 -11 0 -14 -3 -6 -6z"/>
<path d="M3045 3040 c-3 -5 -1 -10 4 -10 6 0 11 5 11 10 0 6 -2 10 -4 10 -3 0
-8 -4 -11 -10z"/>
<path d="M5285 3036 c-22 -16 -29 -46 -10 -46 7 0 20 -3 29 -6 10 -4 16 -1 16
7 0 7 -3 9 -6 6 -10 -9 -45 13 -39 24 4 5 18 7 31 5 21 -4 24 -3 14 10 -15 17
-12 17 -35 0z"/>
<path d="M2643 3026 c0 -8 9 -17 20 -20 18 -4 18 -4 1 15 -21 23 -21 23 -21 5z"/>
<path d="M2480 3021 c0 -20 13 -41 21 -35 6 3 20 -1 33 -10 22 -14 24 -14 19
4 -3 11 -14 20 -24 20 -11 0 -22 7 -25 15 -7 16 -24 21 -24 6z"/>
<path d="M2940 3009 c0 -5 5 -7 10 -4 6 3 10 8 10 11 0 2 -4 4 -10 4 -5 0 -10
-5 -10 -11z"/>
<path d="M2990 3009 c0 -5 5 -7 10 -4 6 3 10 8 10 11 0 2 -4 4 -10 4 -5 0 -10
-5 -10 -11z"/>
<path d="M4010 3010 c0 -5 4 -10 9 -10 6 0 13 5 16 10 3 6 -1 10 -9 10 -9 0
-16 -4 -16 -10z"/>
<path d="M4092 2980 c0 -14 2 -19 5 -12 2 6 2 18 0 25 -3 6 -5 1 -5 -13z"/>
<path d="M2700 2980 c-9 -6 -10 -10 -3 -10 6 0 15 5 18 10 8 12 4 12 -15 0z"/>
<path d="M2570 2960 c-8 -14 -5 -16 14 -13 33 7 69 -14 61 -35 -5 -13 -4 -14
6 -5 10 10 9 15 -1 28 -7 8 -9 15 -4 15 5 0 0 6 -11 14 -27 18 -54 16 -65 -4z"/>
<path d="M4190 2964 c0 -8 5 -12 10 -9 6 4 8 11 5 16 -9 14 -15 11 -15 -7z"/>
<path d="M5230 2963 c0 -13 -9 -23 -22 -27 -19 -5 -20 -8 -8 -15 9 -7 19 -6
29 2 11 9 13 9 8 0 -5 -7 0 -9 13 -6 25 7 25 14 0 43 -19 22 -20 22 -20 3z"/>
<path d="M2350 2966 c0 -2 11 -6 25 -8 13 -3 22 -1 19 3 -5 9 -44 13 -44 5z"/>
<path d="M3810 2952 c-71 -35 -75 -109 -8 -136 32 -13 116 -32 91 -20 -27 12
-11 24 25 18 32 -5 43 -2 71 21 94 80 -57 179 -179 117z m100 -12 c0 -5 11
-10 24 -10 13 0 34 -9 47 -20 l24 -20 -30 7 c-58 15 -152 9 -175 -12 -11 -10
-23 -15 -28 -11 -4 4 8 21 25 37 26 23 39 27 63 23 19 -4 30 -2 30 5 0 6 5 11
10 11 6 0 10 -4 10 -10z m51 -60 c34 -19 20 -31 -17 -15 -34 14 -36 14 -41 -5
-4 -16 -14 -20 -49 -20 -41 0 -53 8 -37 23 3 4 12 2 19 -4 9 -8 15 -5 24 10
12 23 67 29 101 11z"/>
<path d="M2342 2920 c0 -14 2 -19 5 -12 2 6 2 18 0 25 -3 6 -5 1 -5 -13z"/>
<path d="M3205 2930 c3 -5 8 -10 11 -10 2 0 4 5 4 10 0 6 -5 10 -11 10 -5 0
-7 -4 -4 -10z"/>
<path d="M3253 2933 c9 -2 25 -2 35 0 9 3 1 5 -18 5 -19 0 -27 -2 -17 -5z"/>
<path d="M2679 2921 c7 -5 11 -13 7 -19 -12 -19 17 -26 30 -7 17 23 9 35 -24
35 -19 0 -23 -3 -13 -9z"/>
<path d="M2748 2923 c7 -3 16 -2 19 1 4 3 -2 6 -13 5 -11 0 -14 -3 -6 -6z"/>
<path d="M4088 2923 c7 -3 16 -2 19 1 4 3 -2 6 -13 5 -11 0 -14 -3 -6 -6z"/>
<path d="M2171 2904 c0 -11 3 -14 6 -6 3 7 2 16 -1 19 -3 4 -6 -2 -5 -13z"/>
<path d="M2600 2910 c0 -5 5 -10 11 -10 5 0 7 5 4 10 -3 6 -8 10 -11 10 -2 0
-4 -4 -4 -10z"/>
<path d="M2755 2890 c-3 -5 3 -7 12 -6 10 2 22 -2 26 -8 6 -7 7 -6 5 3 -5 16
-35 24 -43 11z"/>
<path d="M2945 2890 c-28 -7 -27 -8 11 -7 22 0 46 -3 52 -7 7 -4 12 -2 12 3 0
6 -4 11 -9 11 -5 0 -15 2 -23 4 -7 2 -26 0 -43 -4z"/>
<path d="M5173 2893 c-7 -2 -13 -11 -13 -18 0 -8 -12 -26 -27 -40 -16 -14 -29
-30 -29 -35 -1 -6 -2 -14 -3 -19 0 -5 -8 -8 -17 -7 -10 0 -18 -8 -20 -20 -2
-13 2 -21 11 -21 8 0 12 4 10 8 -3 3 2 13 11 20 13 10 17 10 24 -1 5 -8 12
-11 17 -6 4 4 0 12 -10 17 -9 6 -15 15 -12 20 4 5 11 6 17 3 6 -4 8 -2 5 3 -8
13 17 36 28 25 5 -4 5 1 2 11 -8 21 2 49 14 41 5 -3 9 0 9 6 0 7 7 9 16 6 8
-3 12 -2 9 4 -7 11 -22 12 -42 3z"/>
<path d="M5291 2891 c-7 -5 -11 -15 -9 -22 3 -10 8 -7 17 9 13 24 12 26 -8 13z"/>
<path d="M5060 2879 c0 -5 5 -7 10 -4 6 3 10 8 10 11 0 2 -4 4 -10 4 -5 0 -10
-5 -10 -11z"/>
<path d="M4721 2854 c0 -11 3 -14 6 -6 3 7 2 16 -1 19 -3 4 -6 -2 -5 -13z"/>
<path d="M2841 2849 c18 -11 39 -11 39 0 0 5 -12 9 -26 9 -18 0 -22 -3 -13 -9z"/>
<path d="M3090 2850 c8 -5 24 -10 34 -10 26 0 18 6 -19 14 -22 5 -26 4 -15 -4z"/>
<path d="M3457 2849 c7 -7 15 -10 18 -7 3 3 -2 9 -12 12 -14 6 -15 5 -6 -5z"/>
<path d="M2893 2843 c4 -3 2 -12 -4 -19 -14 -17 9 -30 24 -15 9 9 7 11 -8 6
-19 -6 -19 -6 -3 8 17 14 15 27 -5 27 -6 0 -7 -3 -4 -7z"/>
<path d="M3048 2843 c7 -3 16 -2 19 1 4 3 -2 6 -13 5 -11 0 -14 -3 -6 -6z"/>
<path d="M4123 2835 c-103 -45 -49 -155 77 -155 77 0 124 30 128 81 3 30 -2
41 -28 63 -26 21 -41 26 -88 26 -31 -1 -71 -7 -89 -15z m156 -28 c14 -6 26
-18 29 -25 3 -11 0 -12 -16 -3 -29 15 -100 14 -156 -3 -56 -17 -59 -1 -5 26
39 21 113 23 148 5z m7 -52 c10 -8 14 -15 7 -15 -6 0 -15 5 -18 10 -4 6 -9 9
-13 6 -4 -2 -16 0 -27 5 -18 7 -17 8 6 8 14 1 34 -6 45 -14z m-43 -20 c4 0 7
-4 7 -10 1 -16 -46 -17 -59 -1 -19 23 -4 39 22 24 12 -7 25 -12 30 -13z m-73
11 c0 -11 -33 -36 -41 -31 -16 10 -10 23 14 28 12 2 23 5 25 6 1 0 2 -1 2 -3z"/>
<path d="M4881 2834 c0 -11 3 -14 6 -6 3 7 2 16 -1 19 -3 4 -6 -2 -5 -13z"/>
<path d="M3515 2830 c3 -5 8 -10 11 -10 2 0 4 5 4 10 0 6 -5 10 -11 10 -5 0
-7 -4 -4 -10z"/>
<path d="M5250 2825 c-7 -8 -17 -12 -24 -8 -6 4 -4 -1 4 -11 11 -14 15 -15 18
-5 3 8 9 20 15 27 14 17 2 15 -13 -3z"/>
<path d="M2943 2813 c1 -16 5 -19 13 -12 14 11 44 2 44 -14 0 -7 4 -7 12 1 15
15 7 22 -28 25 -16 1 -32 6 -36 12 -4 5 -6 0 -5 -12z"/>
<path d="M3330 2826 c0 -2 11 -6 25 -8 14 -3 25 -1 25 3 0 5 -11 9 -25 9 -14
0 -25 -2 -25 -4z"/>
<path d="M4764 2816 c-3 -8 -1 -23 5 -33 8 -15 10 -13 9 15 -1 35 -5 40 -14
18z"/>
<path d="M2019 2803 c-13 -16 -12 -17 4 -4 9 7 17 15 17 17 0 8 -8 3 -21 -13z"/>
<path d="M3135 2810 c3 -5 8 -10 11 -10 2 0 4 5 4 10 0 6 -5 10 -11 10 -5 0
-7 -4 -4 -10z"/>
<path d="M3208 2808 c5 -5 16 -8 23 -6 8 3 3 7 -10 11 -17 4 -21 3 -13 -5z"/>
<path d="M5591 2804 c0 -11 3 -14 6 -6 3 7 2 16 -1 19 -3 4 -6 -2 -5 -13z"/>
<path d="M2110 2780 c-33 -61 81 -180 162 -168 20 3 23 8 22 46 -1 34 -7 50
-35 78 -61 64 -128 84 -149 44z m50 -19 c0 -10 7 -24 15 -31 8 -7 12 -16 9
-21 -3 -5 -2 -9 3 -9 4 0 19 -9 33 -20 l25 -20 -27 0 c-45 0 -102 78 -81 113
8 14 23 7 23 -12z m115 -120 c10 -17 -11 -21 -31 -6 -18 14 -18 14 3 15 12 0
24 -4 28 -9z"/>
<path d="M2845 2790 c-3 -5 -2 -10 4 -10 5 0 13 5 16 10 3 6 2 10 -4 10 -5 0
-13 -4 -16 -10z"/>
<path d="M3044 2777 c3 -12 5 -23 5 -25 1 -1 10 2 20 8 13 7 21 7 24 0 3 -6 4
-5 3 2 -2 7 -9 12 -15 11 -6 -2 -11 1 -11 6 0 5 -7 11 -15 15 -11 4 -14 0 -11
-17z"/>
<path d="M3290 2770 c-9 -6 -10 -10 -3 -10 6 0 15 5 18 10 8 12 4 12 -15 0z"/>
<path d="M3115 2760 c4 -6 11 -8 16 -5 14 9 11 15 -7 15 -8 0 -12 -5 -9 -10z"/>
<path d="M3478 2763 c7 -3 16 -2 19 1 4 3 -2 6 -13 5 -11 0 -14 -3 -6 -6z"/>
<path d="M3725 2760 c-3 -5 3 -10 15 -10 12 0 18 5 15 10 -3 6 -10 10 -15 10
-5 0 -12 -4 -15 -10z"/>
<path d="M2617 2753 c-4 -3 -7 -11 -7 -17 0 -6 5 -5 12 2 6 6 9 14 7 17 -3 3
-9 2 -12 -2z"/>
<path d="M2895 2750 c3 -5 8 -10 11 -10 2 0 4 5 4 10 0 6 -5 10 -11 10 -5 0
-7 -4 -4 -10z"/>
<path d="M2970 2750 c-23 -7 -23 -8 -3 -9 12 -1 25 4 28 9 3 6 5 10 3 9 -2 -1
-14 -5 -28 -9z"/>
<path d="M5245 2750 c3 -5 8 -10 11 -10 2 0 4 5 4 10 0 6 -5 10 -11 10 -5 0
-7 -4 -4 -10z"/>
<path d="M3146 2723 c-6 -14 -5 -15 5 -6 7 7 10 15 7 18 -3 3 -9 -2 -12 -12z"/>
<path d="M3176 2732 c-3 -5 1 -9 9 -9 8 0 15 4 15 9 0 4 -4 8 -9 8 -6 0 -12
-4 -15 -8z"/>
<path d="M3225 2730 c3 -5 12 -7 20 -3 21 7 19 13 -6 13 -11 0 -18 -4 -14 -10z"/>
<path d="M5037 2723 c-4 -3 -7 -11 -7 -17 0 -6 5 -5 12 2 6 6 9 14 7 17 -3 3
-9 2 -12 -2z"/>
<path d="M3436 2712 c-3 -5 1 -9 9 -9 8 0 12 4 9 9 -3 4 -7 8 -9 8 -2 0 -6 -4
-9 -8z"/>
<path d="M3682 2698 c5 -15 28 -23 28 -10 0 5 -7 13 -16 16 -10 4 -14 1 -12
-6z"/>
<path d="M4996 2674 c-5 -25 -11 -34 -22 -30 -21 8 -17 -3 8 -23 19 -16 19
-18 5 -24 -11 -4 -17 -1 -17 7 0 9 -7 12 -21 9 -21 -6 -21 -7 5 -20 34 -18 56
-3 53 35 -1 15 2 39 6 55 4 15 3 27 -2 27 -5 0 -12 -16 -15 -36z"/>
<path d="M3190 2690 c-13 -9 -13 -10 0 -10 8 0 22 5 30 10 13 9 13 10 0 10 -8
0 -22 -5 -30 -10z"/>
<path d="M3278 2692 c12 -8 72 -4 72 4 0 2 -19 4 -42 4 -26 0 -38 -4 -30 -8z"/>
<path d="M2740 2686 c0 -2 11 -6 25 -8 14 -3 25 -1 25 3 0 5 -11 9 -25 9 -14
0 -25 -2 -25 -4z"/>
<path d="M3535 2680 c-3 -5 1 -10 10 -10 9 0 13 5 10 10 -3 6 -8 10 -10 10 -2
0 -7 -4 -10 -10z"/>
<path d="M2401 2666 c-25 -30 -6 -86 44 -134 42 -40 48 -43 92 -40 45 3 48 5
51 33 7 81 -143 194 -187 141z m53 -41 c11 -19 23 -35 27 -35 4 0 11 -9 14
-20 4 -11 10 -18 15 -15 4 3 6 -4 3 -15 -3 -11 -8 -20 -12 -20 -17 0 -45 29
-48 51 -2 13 -10 31 -19 39 -13 13 -14 13 -9 -5 6 -18 5 -18 -5 -2 -11 17 -5
57 8 57 4 0 16 -16 26 -35z m101 -93 c-3 -3 -11 0 -18 7 -9 10 -8 11 6 5 10
-3 15 -9 12 -12z m12 -18 c-3 -3 -12 -4 -19 -1 -8 3 -5 6 6 6 11 1 17 -2 13
-5z"/>
<path d="M2476 2555 c4 -8 11 -15 16 -15 6 0 5 6 -2 15 -7 8 -14 15 -16 15 -2
0 -1 -7 2 -15z"/>
<path d="M3327 2673 c-3 -5 4 -10 15 -10 23 -2 61 -33 40 -33 -6 0 -9 -7 -5
-16 5 -15 7 -15 15 0 6 11 6 22 -1 30 -6 7 -8 16 -4 19 3 4 -1 7 -10 7 -8 0
-22 3 -30 6 -8 3 -17 1 -20 -3z"/>
<path d="M3280 2660 c-8 -5 -12 -12 -9 -15 4 -3 12 1 19 10 14 17 11 19 -10 5z"/>
<path d="M3400 2660 c0 -5 8 -10 18 -10 20 0 26 -30 9 -41 -19 -13 9 -15 33
-3 14 8 19 14 13 14 -7 0 -13 4 -13 9 0 5 6 11 13 14 6 2 5 3 -4 2 -8 -1 -24
4 -34 11 -22 17 -35 18 -35 4z"/>
<path d="M3758 2663 c7 -3 16 -2 19 1 4 3 -2 6 -13 5 -11 0 -14 -3 -6 -6z"/>
<path d="M3960 2666 c0 -2 9 -6 20 -9 11 -3 18 -1 14 4 -5 9 -34 13 -34 5z"/>
<path d="M3585 2651 c3 -6 14 -9 25 -8 24 2 15 17 -11 17 -11 0 -18 -4 -14 -9z"/>
<path d="M3816 2645 c10 -8 26 -14 34 -15 8 0 2 7 -14 15 -36 19 -45 19 -20 0z"/>
<path d="M4428 2643 c7 -3 16 -2 19 1 4 3 -2 6 -13 5 -11 0 -14 -3 -6 -6z"/>
<path d="M3640 2636 c0 -2 7 -7 16 -10 8 -3 12 -2 9 4 -6 10 -25 14 -25 6z"/>
<path d="M3692 2620 c7 -11 16 -20 20 -20 5 0 3 9 -4 20 -7 11 -16 20 -20 20
-5 0 -3 -9 4 -20z"/>
<path d="M3885 2630 c-3 -5 -1 -10 4 -10 6 0 11 5 11 10 0 6 -2 10 -4 10 -3 0
-8 -4 -11 -10z"/>
<path d="M3505 2610 c3 -5 14 -10 23 -10 15 0 15 2 2 10 -20 13 -33 13 -25 0z"/>
<path d="M3000 2601 c0 -10 30 -24 37 -17 3 2 -5 9 -16 16 -12 6 -21 7 -21 1z"/>
<path d="M4068 2603 c7 -3 16 -2 19 1 4 3 -2 6 -13 5 -11 0 -14 -3 -6 -6z"/>
<path d="M2129 2583 c-13 -16 -12 -17 4 -4 9 7 17 15 17 17 0 8 -8 3 -21 -13z"/>
<path d="M3560 2589 c0 -5 5 -7 10 -4 6 3 10 8 10 11 0 2 -4 4 -10 4 -5 0 -10
-5 -10 -11z"/>
<path d="M3594 2586 c-6 -6 -9 -17 -7 -23 2 -6 -4 -13 -14 -16 -17 -4 -17 -5
0 -6 10 0 21 7 24 17 4 9 11 20 16 23 5 4 5 9 1 12 -5 3 -14 0 -20 -7z"/>
<path d="M3776 2589 c3 -5 -5 -9 -18 -10 -22 0 -22 -1 -3 -8 11 -5 22 -5 25
-1 3 4 12 9 20 12 10 3 8 6 -8 10 -12 4 -20 2 -16 -3z"/>
<path d="M3490 2580 c-9 -6 -10 -10 -3 -10 6 0 15 5 18 10 8 12 4 12 -15 0z"/>
<path d="M4680 2579 c0 -5 5 -7 10 -4 6 3 10 8 10 11 0 2 -4 4 -10 4 -5 0 -10
-5 -10 -11z"/>
<path d="M3635 2570 c-3 -5 -4 -10 -1 -10 2 0 11 -2 19 -5 8 -4 14 0 14 10 0
17 -22 21 -32 5z"/>
<path d="M4910 2558 c0 -9 7 -19 16 -22 15 -6 15 -4 3 11 -7 10 -15 20 -16 22
-2 2 -3 -3 -3 -11z"/>
<path d="M2692 2548 c-53 -53 61 -185 153 -176 27 3 30 7 33 39 3 41 -20 76
-81 120 -42 30 -85 37 -105 17z m69 -68 c41 -54 58 -69 82 -70 9 0 17 -4 17
-10 0 -15 -20 -12 -65 9 -41 18 -67 42 -64 57 3 21 -2 28 -11 14 -7 -11 -10
-5 -10 25 0 21 4 35 8 30 5 -6 24 -30 43 -55z"/>
<path d="M2740 2461 c0 -5 7 -12 16 -15 14 -5 15 -4 4 9 -14 17 -20 19 -20 6z"/>
<path d="M3055 2550 c-3 -5 -2 -10 4 -10 5 0 13 5 16 10 3 6 2 10 -4 10 -5 0
-13 -4 -16 -10z"/>
<path d="M4614 2544 c18 -17 23 -18 23 -1 0 7 -9 14 -19 14 -16 2 -16 0 -4
-13z"/>
<path d="M3885 2540 c-3 -4 11 -10 29 -12 19 -2 33 -1 30 3 -6 10 -54 17 -59
9z"/>
<path d="M4770 2540 c0 -5 5 -10 11 -10 5 0 7 5 4 10 -3 6 -8 10 -11 10 -2 0
-4 -4 -4 -10z"/>
<path d="M3220 2530 c0 -5 5 -10 11 -10 5 0 7 5 4 10 -3 6 -8 10 -11 10 -2 0
-4 -4 -4 -10z"/>
<path d="M3684 2528 c-4 -7 -3 -8 4 -4 7 4 12 3 12 -2 0 -5 7 -9 15 -9 20 0
19 13 -1 21 -21 8 -22 8 -30 -6z"/>
<path d="M4879 2538 c0 -2 -2 -11 -4 -22 -2 -10 -13 -27 -24 -37 -23 -22 -27
-44 -9 -55 7 -4 8 -3 4 5 -10 15 13 43 27 34 6 -4 7 -1 3 6 -9 14 22 53 35 45
5 -3 9 -3 9 0 0 6 -39 29 -41 24z"/>
<path d="M3740 2521 c0 -6 5 -13 10 -16 6 -3 10 0 10 7 0 10 3 9 9 -2 6 -8 7
-18 5 -22 -3 -4 3 -5 12 -1 13 5 15 3 9 -7 -5 -9 -4 -11 4 -6 6 4 9 12 5 18
-4 6 3 8 17 6 16 -2 23 -9 22 -22 -1 -13 2 -15 10 -7 16 16 -12 44 -40 38 -15
-3 -23 1 -23 9 0 8 -11 14 -25 14 -14 0 -25 -4 -25 -9z"/>
<path d="M3965 2510 c-3 -5 -1 -10 4 -10 6 0 11 5 11 10 0 6 -2 10 -4 10 -3 0
-8 -4 -11 -10z"/>
<path d="M4203 2513 c-17 -6 -17 -20 0 -20 8 0 14 6 14 14 0 7 -1 13 -1 12 -1
0 -7 -3 -13 -6z"/>
<path d="M4575 2510 c-3 -5 -1 -10 4 -10 6 0 11 5 11 10 0 6 -2 10 -4 10 -3 0
-8 -4 -11 -10z"/>
<path d="M3645 2500 c-3 -5 1 -10 9 -10 9 0 16 5 16 10 0 6 -4 10 -9 10 -6 0
-13 -4 -16 -10z"/>
<path d="M4300 2500 c-9 -6 -10 -10 -3 -10 6 0 15 5 18 10 8 12 4 12 -15 0z"/>
<path d="M4023 2485 c0 -8 4 -12 9 -9 5 3 6 10 3 15 -9 13 -12 11 -12 -6z"/>
<path d="M4265 2489 c-4 -6 -5 -12 -2 -15 2 -3 7 2 10 11 7 17 1 20 -8 4z"/>
<path d="M3413 2483 c15 -2 37 -2 50 0 12 2 0 4 -28 4 -27 0 -38 -2 -22 -4z"/>
<path d="M4068 2458 c3 -12 7 -17 10 -10 2 8 9 9 21 3 11 -6 22 -6 32 1 11 8
11 9 -3 5 -9 -3 -18 -2 -20 2 -2 5 -13 11 -25 15 -18 6 -21 4 -15 -16z"/>
<path d="M2408 2463 c7 -3 16 -2 19 1 4 3 -2 6 -13 5 -11 0 -14 -3 -6 -6z"/>
<path d="M3885 2455 c11 -9 19 -18 17 -21 -2 -2 -1 -10 1 -17 3 -7 6 -5 6 6 1
16 19 21 83 21 9 0 15 3 12 8 -3 4 -19 7 -37 6 -18 -1 -48 1 -67 6 -33 7 -34
6 -15 -9z"/>
<path d="M4310 2459 c0 -5 5 -7 10 -4 6 3 10 8 10 11 0 2 -4 4 -10 4 -5 0 -10
-5 -10 -11z"/>
<path d="M3380 2451 c0 -5 5 -13 10 -16 6 -3 10 -2 10 4 0 5 -4 13 -10 16 -5
3 -10 2 -10 -4z"/>
<path d="M4148 2448 c-7 -17 0 -22 54 -34 44 -11 113 -22 116 -19 4 4 -23 12
-70 20 -21 3 -38 11 -38 17 0 6 -10 8 -24 4 -18 -4 -25 -2 -28 11 -3 17 -4 17
-10 1z"/>
<path d="M4345 2450 c4 -6 11 -8 16 -5 14 9 11 15 -7 15 -8 0 -12 -5 -9 -10z"/>
<path d="M4497 2449 c7 -7 15 -10 18 -7 3 3 -2 9 -12 12 -14 6 -15 5 -6 -5z"/>
<path d="M2998 2439 c-13 -7 -18 -22 -18 -50 0 -71 103 -151 177 -137 13 2 19
14 21 40 3 31 -3 44 -34 78 -53 59 -114 88 -146 69z m22 -28 c0 -14 61 -69
100 -90 42 -22 53 -52 18 -50 -18 1 -19 2 -5 6 18 5 18 5 0 18 -12 9 -23 10
-35 4 -12 -6 -18 -6 -18 1 0 5 8 11 18 11 14 1 13 2 -3 6 -11 3 -29 12 -39 22
-19 16 -19 15 -2 -14 16 -26 13 -25 -18 9 -34 37 -49 86 -26 86 6 0 10 -4 10
-9z"/>
<path d="M3440 2446 c0 -2 13 -6 29 -8 17 -2 28 -1 25 4 -5 8 -54 12 -54 4z"/>
<path d="M5170 2439 c0 -5 5 -7 10 -4 6 3 10 8 10 11 0 2 -4 4 -10 4 -5 0 -10
-5 -10 -11z"/>
<path d="M4445 2430 c3 -5 10 -10 16 -10 5 0 9 5 9 10 0 6 -7 10 -16 10 -8 0
-12 -4 -9 -10z"/>
<path d="M2606 2415 c4 -8 8 -15 10 -15 2 0 4 7 4 15 0 8 -4 15 -10 15 -5 0
-7 -7 -4 -15z"/>
<path d="M3964 2422 c3 -6 -2 -13 -11 -15 -16 -4 -16 -5 -1 -6 21 -1 32 15 17
25 -7 4 -9 3 -5 -4z"/>
<path d="M5205 2420 c-3 -5 -2 -10 4 -10 5 0 13 5 16 10 3 6 2 10 -4 10 -5 0
-13 -4 -16 -10z"/>
<path d="M4009 2418 c-7 -24 -5 -38 4 -35 7 3 11 10 10 16 -2 6 2 11 7 11 6 0
11 -4 11 -10 1 -5 2 -15 3 -22 0 -6 7 -13 15 -16 8 -3 11 0 7 7 -4 6 -2 11 3
11 16 0 26 -4 24 -11 -1 -3 8 -5 20 -6 50 -1 58 -3 51 -15 -5 -8 -2 -9 10 -5
10 4 19 1 22 -8 4 -8 10 -12 15 -9 5 2 18 0 30 -7 17 -9 19 -13 8 -20 -8 -5
-9 -9 -3 -9 6 0 17 7 24 15 7 8 20 15 29 15 13 0 14 2 2 9 -10 7 -19 4 -28 -7
-11 -16 -12 -16 -13 1 0 10 -8 17 -20 17 -11 0 -20 7 -20 15 0 10 -11 16 -32
17 -60 3 -82 9 -140 39 -17 9 -37 12 -39 7z"/>
<path d="M4128 2403 c7 -3 16 -2 19 1 4 3 -2 6 -13 5 -11 0 -14 -3 -6 -6z"/>
<path d="M4785 2391 c-3 -5 -2 -12 3 -15 5 -3 9 1 9 9 0 17 -3 19 -12 6z"/>
<path d="M5247 2374 c2 -7 11 -10 19 -7 19 7 18 10 -5 16 -13 3 -18 1 -14 -9z"/>
<path d="M4618 2373 c7 -3 16 -2 19 1 4 3 -2 6 -13 5 -11 0 -14 -3 -6 -6z"/>
<path d="M4720 2371 c-20 -4 -42 -11 -50 -16 -8 -5 -27 -10 -42 -11 -15 -1
-35 -5 -45 -9 -10 -5 -28 -7 -40 -6 -11 1 -24 -3 -28 -8 -3 -6 -31 -11 -62
-11 -48 0 -54 -2 -43 -15 15 -18 40 -20 40 -2 0 8 2 9 8 1 13 -20 50 -26 59
-11 10 18 81 29 90 14 3 -5 1 -7 -5 -3 -6 3 -13 2 -16 -3 -4 -5 0 -8 6 -7 7 1
15 6 16 11 9 25 28 36 56 33 20 -2 30 1 29 9 -1 6 11 14 27 18 16 4 32 11 35
16 4 5 5 8 3 8 -2 -1 -19 -4 -38 -8z"/>
<path d="M2588 2363 c7 -3 16 -2 19 1 4 3 -2 6 -13 5 -11 0 -14 -3 -6 -6z"/>
<path d="M2690 2361 c0 -7 -5 -9 -12 -5 -7 5 -8 3 -3 -5 5 -9 10 -10 18 -2 6
6 8 14 4 18 -4 3 -7 1 -7 -6z"/>
<path d="M4560 2361 c0 -5 9 -7 20 -4 11 3 20 7 20 9 0 2 -9 4 -20 4 -11 0
-20 -4 -20 -9z"/>
<path d="M3638 2343 c6 -2 18 -2 25 0 6 3 1 5 -13 5 -14 0 -19 -2 -12 -5z"/>
<path d="M3950 2330 c0 -5 5 -10 11 -10 5 0 7 5 4 10 -3 6 -8 10 -11 10 -2 0
-4 -4 -4 -10z"/>
<path d="M3293 2313 c-7 -2 -13 -18 -13 -34 0 -94 139 -189 194 -133 21 21 20
32 -7 76 -43 71 -122 113 -174 91z m51 -59 c30 -36 29 -57 -1 -33 -16 11 -16
11 -5 -1 7 -8 25 -15 40 -16 15 -1 43 -9 62 -17 l35 -16 -35 5 c-19 3 -48 7
-63 8 -15 2 -29 5 -30 7 -2 2 -13 17 -25 33 -21 28 -30 67 -14 65 4 0 20 -16
36 -35z m96 -94 c18 -12 2 -12 -25 0 -13 6 -15 9 -5 9 8 0 22 -4 30 -9z"/>
<path d="M4320 2311 c0 -5 -9 -11 -21 -14 -24 -6 -17 -27 9 -27 15 0 15 2 2
10 -11 7 -8 10 16 10 19 0 34 6 38 15 3 8 1 15 -3 15 -5 0 -12 -6 -14 -12 -4
-10 -6 -10 -6 0 -1 14 -21 17 -21 3z"/>
<path d="M4366 2284 c-3 -8 1 -14 9 -14 20 0 28 17 11 23 -8 3 -17 -1 -20 -9z"/>
<path d="M4073 2283 c9 -2 23 -2 30 0 6 3 -1 5 -18 5 -16 0 -22 -2 -12 -5z"/>
<path d="M4405 2270 c-3 -5 1 -10 10 -10 9 0 13 5 10 10 -3 6 -8 10 -10 10 -2
0 -7 -4 -10 -10z"/>
<path d="M4450 2270 c0 -5 5 -10 11 -10 5 0 7 5 4 10 -3 6 -8 10 -11 10 -2 0
-4 -4 -4 -10z"/>
<path d="M5170 2260 c0 -5 4 -10 9 -10 6 0 13 5 16 10 3 6 -1 10 -9 10 -9 0
-16 -4 -16 -10z"/>
<path d="M2990 2225 c5 -7 6 -16 2 -20 -4 -5 -2 -5 5 -2 6 4 14 1 16 -5 3 -8
6 -6 6 5 1 9 -4 17 -10 17 -5 0 -8 4 -5 8 3 5 -1 9 -9 9 -10 0 -12 -4 -5 -12z"/>
<path d="M4011 2224 c0 -11 3 -14 6 -6 3 7 2 16 -1 19 -3 4 -6 -2 -5 -13z"/>
<path d="M3070 2190 c6 -11 13 -20 16 -20 2 0 0 9 -6 20 -6 11 -13 20 -16 20
-2 0 0 -9 6 -20z"/>
<path d="M3597 2182 c-32 -36 -3 -98 71 -150 88 -63 159 -3 100 85 -22 32 -77
65 -128 78 -18 4 -31 1 -43 -13z m68 -67 c34 -31 42 -42 27 -38 -12 3 -25 9
-28 14 -3 5 -11 9 -17 9 -24 -1 39 -40 64 -40 14 0 34 -7 45 -15 18 -14 18
-14 -9 -15 -49 0 -120 49 -110 76 3 9 0 14 -8 12 -8 -2 -15 7 -17 20 -2 12 -2
22 1 22 2 0 25 -20 52 -45z m55 5 c0 -5 -2 -10 -4 -10 -3 0 -8 5 -11 10 -3 6
-1 10 4 10 6 0 11 -4 11 -10z"/>
<path d="M5031 2174 c0 -11 3 -14 6 -6 3 7 2 16 -1 19 -3 4 -6 -2 -5 -13z"/>
<path d="M3212 2150 c0 -14 2 -19 5 -12 2 6 2 18 0 25 -3 6 -5 1 -5 -13z"/>
<path d="M3171 2114 c0 -11 3 -14 6 -6 3 7 2 16 -1 19 -3 4 -6 -2 -5 -13z"/>
<path d="M4340 2110 c0 -5 5 -10 11 -10 5 0 7 5 4 10 -3 6 -8 10 -11 10 -2 0
-4 -4 -4 -10z"/>
<path d="M3906 2057 c-26 -19 -13 -70 31 -113 39 -39 70 -54 113 -54 90 0 59
113 -45 161 -48 22 -75 24 -99 6z m64 -62 c24 -32 45 -48 72 -56 42 -11 51
-29 16 -29 -19 0 -20 2 -8 11 12 9 11 10 -7 6 -13 -3 -23 -1 -23 4 0 6 -6 9
-13 7 -14 -3 -87 73 -87 91 0 22 17 10 50 -34z"/>
<path d="M4473 2063 c9 -2 23 -2 30 0 6 3 -1 5 -18 5 -16 0 -22 -2 -12 -5z"/>
<path d="M5016 2057 c3 -10 9 -15 12 -12 3 3 0 11 -7 18 -10 9 -11 8 -5 -6z"/>
<path d="M3540 2044 c0 -8 5 -12 10 -9 6 4 8 11 5 16 -9 14 -15 11 -15 -7z"/>
<path d="M4255 2050 c-4 -6 -11 -8 -16 -5 -5 4 -9 1 -9 -4 0 -6 5 -11 11 -11
5 0 7 -6 3 -12 -5 -10 -4 -10 6 -1 8 7 15 20 16 28 3 17 -2 19 -11 5z"/>
<path d="M3183 1983 c9 -2 23 -2 30 0 6 3 -1 5 -18 5 -16 0 -22 -2 -12 -5z"/>
<path d="M5102 1950 c0 -14 2 -19 5 -12 2 6 2 18 0 25 -3 6 -5 1 -5 -13z"/>
<path d="M4195 1941 c-3 -5 -2 -12 3 -15 5 -3 9 1 9 9 0 17 -3 19 -12 6z"/>
<path d="M4560 1901 c0 -6 4 -13 10 -16 6 -3 7 1 4 9 -7 18 -14 21 -14 7z"/>
<path d="M4420 1890 c0 -5 5 -10 10 -10 6 0 10 5 10 10 0 6 -4 10 -10 10 -5 0
-10 -4 -10 -10z"/>
<path d="M4465 1880 c-3 -5 -1 -10 4 -10 6 0 11 5 11 10 0 6 -2 10 -4 10 -3 0
-8 -4 -11 -10z"/>
<path d="M3856 1855 c-9 -26 -7 -32 5 -12 6 10 9 21 6 23 -2 3 -7 -2 -11 -11z"/>
<path d="M4112 1810 c0 -14 2 -19 5 -12 2 6 2 18 0 25 -3 6 -5 1 -5 -13z"/>
<path d="M4475 1820 c-3 -5 -1 -10 4 -10 6 0 11 5 11 10 0 6 -2 10 -4 10 -3 0
-8 -4 -11 -10z"/>
<path d="M4743 1775 c-3 -9 -3 -18 -1 -21 3 -3 8 4 11 16 6 23 -1 27 -10 5z"/>
<path d="M4255 1740 c-3 -6 1 -7 9 -4 18 7 21 14 7 14 -6 0 -13 -4 -16 -10z"/>
<path d="M4318 1733 c6 -2 18 -2 25 0 6 3 1 5 -13 5 -14 0 -19 -2 -12 -5z"/>
<path d="M4610 1650 c-9 -6 -10 -10 -3 -10 6 0 15 5 18 10 8 12 4 12 -15 0z"/>
<path d="M4490 1641 c0 -5 5 -13 10 -16 6 -3 10 -2 10 4 0 5 -4 13 -10 16 -5
3 -10 2 -10 -4z"/>
<path d="M4728 1573 c7 -3 16 -2 19 1 4 3 -2 6 -13 5 -11 0 -14 -3 -6 -6z"/>
<path d="M4498 1533 c7 -3 16 -2 19 1 4 3 -2 6 -13 5 -11 0 -14 -3 -6 -6z"/>
<path d="M7985 10 c-3 -5 -1 -10 4 -10 6 0 11 5 11 10 0 6 -2 10 -4 10 -3 0
-8 -4 -11 -10z"/>
</g>
</svg>
