<?xml version="1.0" standalone="no"?>
<!DOCTYPE svg PUBLIC "-//W3C//DTD SVG 20010904//EN"
 "http://www.w3.org/TR/2001/REC-SVG-20010904/DTD/svg10.dtd">
<svg version="1.0" xmlns="http://www.w3.org/2000/svg"
 width="347.000000pt" height="403.000000pt" viewBox="0 0 347.000000 403.000000"
 preserveAspectRatio="xMidYMid meet">

<g transform="translate(0.000000,403.000000) scale(0.100000,-0.100000)"
fill="#000000" stroke="none">
<path d="M1365 3975 c-24 -23 -25 -31 -25 -135 0 -123 0 -125 17 -125 6 0 14
-3 17 -6 3 -3 6 -180 6 -395 l1 -389 -53 -6 c-29 -3 -67 -13 -85 -22 -43 -23
-89 -81 -102 -131 -7 -26 -10 -214 -10 -524 0 -403 3 -489 15 -526 19 -56 88
-121 143 -136 l41 -11 0 -238 c0 -203 2 -240 15 -245 12 -4 15 -23 15 -85 0
-44 5 -83 10 -86 6 -4 8 -11 5 -16 -11 -16 15 -9 36 10 18 17 20 29 18 97 -3
64 -1 79 11 82 13 2 15 37 12 242 l-3 240 26 0 25 0 0 -235 c0 -211 2 -235 17
-244 15 -8 17 -22 14 -89 -2 -66 0 -80 14 -86 9 -3 13 -10 10 -16 -3 -5 0 -10
8 -10 22 0 27 22 27 111 0 62 3 81 15 85 13 5 15 42 15 245 l0 239 25 0 25 0
0 -239 c0 -203 2 -240 15 -245 12 -4 15 -23 15 -83 1 -51 5 -84 15 -97 13 -17
14 -17 35 2 19 18 21 29 19 99 -3 64 -1 78 11 78 13 0 15 35 15 243 l0 242 28
0 27 0 0 -239 c0 -209 2 -240 16 -245 13 -5 15 -17 9 -80 -7 -68 -5 -76 15
-96 21 -21 23 -22 33 -5 5 10 9 54 8 97 -2 63 1 79 13 84 14 5 16 38 16 245
l0 239 25 0 25 0 0 -239 c0 -231 1 -240 20 -246 18 -6 20 -15 20 -78 0 -86 7
-117 27 -117 8 0 12 4 9 9 -3 5 1 12 10 15 12 5 15 22 13 88 -2 70 0 83 14 86
15 3 17 28 17 243 l0 239 25 0 25 0 0 -239 c0 -203 2 -240 15 -245 12 -4 15
-24 15 -90 0 -71 3 -85 18 -90 9 -3 22 -8 28 -11 8 -4 12 23 13 87 2 69 6 95
17 101 12 7 14 49 14 247 l0 240 25 0 25 0 0 -234 c0 -195 2 -236 15 -246 11
-9 15 -33 15 -90 0 -78 0 -79 32 -94 37 -19 57 -21 40 -4 -17 17 -17 189 1
186 9 -2 13 52 15 240 l2 242 63 0 c89 0 161 37 202 104 l30 49 0 516 c0 557
0 555 -54 614 -14 16 -43 37 -63 48 -35 18 -63 19 -448 19 -225 0 -410 2 -410
5 0 2 20 37 43 77 24 40 77 132 117 203 40 72 83 149 96 172 13 23 20 44 16
47 -5 3 -57 -81 -117 -187 -59 -106 -115 -203 -124 -217 -9 -14 -23 -42 -33
-62 l-17 -38 -150 0 -150 0 2 398 c2 390 2 397 22 397 18 0 20 8 23 90 5 158
-13 195 -93 195 -35 0 -52 -6 -70 -25z m120 -10 c39 -38 32 -45 -50 -45 -46 0
-75 4 -75 10 0 21 49 60 75 60 14 0 37 -11 50 -25z m25 -150 l0 -85 -74 0 -75
0 -3 85 -3 85 78 0 77 0 0 -85z m-42 -498 l3 -397 -35 0 -36 0 0 393 c0 217 2
396 5 398 2 3 17 4 32 3 l28 -1 3 -396z m-128 -441 c0 -18 -7 -25 -31 -30 -39
-7 -88 -56 -95 -95 -6 -26 -11 -31 -35 -31 -27 0 -29 2 -23 28 20 82 91 149
162 151 17 1 22 -5 22 -23z m1212 -1 l-4 -25 -395 0 c-390 0 -394 0 -388 20 3
11 2 20 -3 20 -5 0 -12 -9 -15 -20 -5 -19 -14 -20 -196 -20 -109 0 -191 4
-191 9 0 5 -3 16 -6 25 -6 14 51 16 599 16 l604 0 -5 -25z m85 14 c40 -15 82
-57 104 -104 24 -53 24 -65 -4 -65 -17 0 -26 9 -35 35 -15 41 -64 84 -103 92
-22 4 -29 11 -29 29 0 27 20 31 67 13z m-917 -68 c0 -5 -7 -14 -15 -21 -8 -7
-15 -19 -15 -26 0 -10 -14 -14 -48 -14 -36 0 -54 -5 -67 -20 -17 -19 -17 -27
-5 -123 7 -56 16 -172 19 -257 6 -146 7 -155 26 -155 19 0 20 7 20 115 0 63
-4 153 -9 200 -14 148 -19 132 49 132 l60 0 -3 -33 c-2 -19 -10 -86 -18 -149
-19 -145 -16 -249 8 -264 9 -5 21 -7 25 -2 4 4 8 53 9 109 1 56 6 136 12 177
6 41 14 110 17 152 6 69 5 78 -14 97 -12 12 -28 21 -36 21 -12 0 -14 7 -9 28
4 15 9 30 11 35 2 4 198 7 434 7 476 0 472 0 503 -64 14 -30 16 -91 16 -515 0
-532 0 -533 -62 -571 -32 -19 -49 -20 -671 -20 -547 0 -642 2 -667 15 -62 32
-60 10 -60 573 l0 514 34 34 34 34 211 0 c116 0 211 -4 211 -9z m38 -95 c18
-23 18 -30 6 -113 -20 -137 -23 -146 -18 -43 3 52 6 104 8 115 4 36 -13 45
-85 45 -65 0 -69 -1 -75 -25 -3 -14 -4 -32 0 -40 3 -8 1 -15 -4 -15 -6 0 -10
18 -10 40 0 49 16 59 97 60 54 0 64 -3 81 -24z m-25 -37 c-13 -13 -123 -8
-123 6 0 12 111 23 125 13 5 -5 5 -12 -2 -19z m-523 -445 l0 -454 -30 0 -30 0
0 453 c0 250 2 456 5 459 3 3 17 3 30 0 l25 -4 0 -454z m1550 1 l0 -455 -25 0
-25 0 0 455 0 455 25 0 25 0 0 -455z m-1163 353 c-3 -8 -6 -5 -6 6 -1 11 2 17
5 13 3 -3 4 -12 1 -19z m13 -68 c0 -5 -2 -10 -4 -10 -3 0 -8 5 -11 10 -3 6 -1
10 4 10 6 0 11 -4 11 -10z m140 -77 c0 -10 -5 -25 -10 -33 -7 -11 -10 -7 -10
18 0 17 5 32 10 32 6 0 10 -8 10 -17z m-130 -107 c0 -52 3 -101 6 -110 3 -9 1
-16 -4 -16 -7 0 -12 42 -14 110 -2 61 0 110 5 110 4 0 7 -42 7 -94z m120 -41
c0 -50 -4 -85 -10 -85 -6 0 -10 35 -10 85 0 50 4 85 10 85 6 0 10 -35 10 -85z
m-530 -547 c1 -50 59 -108 108 -108 18 0 22 -6 22 -31 0 -30 -1 -31 -32 -25
-72 14 -137 80 -153 154 -6 31 -5 32 24 32 25 0 31 -4 31 -22z m1545 -10 c-15
-70 -53 -116 -117 -143 -55 -22 -70 -20 -66 11 2 20 12 29 43 40 44 15 81 54
91 96 4 22 11 28 31 28 23 0 24 -3 18 -32z m-205 -133 l0 -25 -601 0 c-544 0
-601 2 -595 16 3 9 6 20 6 25 0 5 240 9 595 9 l595 0 0 -25z m-1114 -61 c-3
-9 -6 -114 -6 -235 l0 -219 -40 0 -40 0 0 235 0 235 46 0 c38 0 45 -3 40 -16z
m164 -219 l0 -235 -40 0 -40 0 0 235 0 235 40 0 40 0 0 -235z m180 0 l0 -235
-45 0 -45 0 0 235 0 235 45 0 45 0 0 -235z m163 223 c-2 -5 -3 -109 -3 -233
l0 -225 -37 0 -38 0 0 235 0 236 40 -3 c22 -2 39 -6 38 -10z m177 -223 l0
-235 -45 0 -45 0 0 235 0 235 45 0 45 0 0 -235z m170 0 l0 -235 -40 0 -39 0
-3 231 c-2 127 -1 233 1 235 2 2 22 4 43 4 l38 0 0 -235z m170 0 l0 -235 -40
0 -40 0 0 235 0 235 40 0 40 0 0 -235z m-1057 -330 c0 -41 -4 -76 -9 -77 -10
-3 -18 127 -9 150 11 29 18 1 18 -73z m169 -4 c-2 -46 -8 -79 -13 -76 -10 7
-13 148 -3 158 15 15 19 -5 16 -82z m171 4 c0 -41 -4 -76 -9 -77 -10 -3 -18
127 -9 150 11 29 18 1 18 -73z m172 1 c0 -42 -5 -77 -10 -78 -11 -3 -20 125
-11 149 12 31 21 1 21 -71z m345 -7 c0 -43 -4 -79 -9 -79 -9 0 -20 158 -12
166 13 13 21 -18 21 -87z m-170 7 c0 -41 -4 -78 -10 -81 -6 -4 -10 23 -10 74
0 47 4 81 10 81 6 0 10 -31 10 -74z m340 -7 c0 -51 -4 -78 -10 -74 -5 3 -10
40 -10 81 0 43 4 74 10 74 6 0 10 -34 10 -81z"/>
<path d="M1363 1850 c-34 -14 -54 -52 -47 -89 17 -83 134 -80 150 5 4 24 0 37
-21 62 -28 33 -44 37 -82 22z m65 -33 c11 -12 -5 -14 -71 -8 -5 1 -5 6 -2 11
9 14 61 12 73 -3z m22 -37 c0 -5 -10 -11 -22 -11 -17 -1 -19 -2 -6 -6 14 -3
16 -9 8 -23 -12 -23 -54 -21 -78 3 -15 16 -15 17 6 17 13 0 20 -4 17 -10 -4
-6 5 -10 20 -10 24 0 25 2 11 15 -8 8 -29 15 -46 15 -18 0 -29 4 -25 10 3 6
31 10 61 10 30 0 54 -4 54 -10z"/>
<path d="M1516 1835 c-36 -33 -36 -86 0 -114 37 -29 78 -27 103 5 35 45 26 95
-20 119 -39 20 -52 19 -83 -10z m54 -15 c0 -11 -2 -11 -38 -15 -18 -2 -20 0
-11 11 13 16 49 19 49 4z m38 -8 c2 -7 -2 -10 -12 -6 -9 3 -16 11 -16 16 0 13
23 5 28 -10z m12 -32 c0 -5 -25 -10 -55 -10 -30 0 -55 5 -55 10 0 6 25 10 55
10 30 0 55 -4 55 -10z m-57 -29 c13 -2 7 -19 -9 -25 -16 -6 -44 9 -44 24 0 3
10 6 23 4 12 -1 25 -3 30 -3z m41 -12 c-8 -14 -24 -10 -24 6 0 9 6 12 15 9 8
-4 12 -10 9 -15z"/>
<path d="M1703 1850 c-27 -11 -43 -40 -43 -79 0 -67 77 -95 127 -45 21 21 24
32 20 61 -6 37 -39 73 -66 72 -9 0 -26 -4 -38 -9z m66 -34 c9 -11 6 -13 -13
-11 -14 2 -29 6 -35 9 -5 4 -12 2 -16 -4 -10 -16 -25 -12 -19 5 8 19 67 20 83
1z m21 -36 c0 -5 -9 -10 -20 -10 -11 0 -20 -5 -20 -12 0 -9 -3 -9 -12 0 -7 7
-22 12 -35 12 -13 0 -23 5 -23 10 0 6 25 10 55 10 30 0 55 -4 55 -10z m-86
-29 c3 -5 17 -8 31 -8 14 0 28 3 31 8 3 5 10 9 16 9 6 0 3 -9 -7 -20 -13 -14
-25 -18 -44 -14 -28 7 -63 34 -44 34 7 0 14 -4 17 -9z"/>
<path d="M1858 1835 c-38 -35 -38 -85 -2 -114 54 -43 124 -12 124 53 0 72 -73
108 -122 61z m90 -23 c2 -6 -5 -8 -17 -5 -12 3 -21 1 -21 -6 0 -6 11 -11 25
-11 14 0 25 -4 25 -10 0 -5 -9 -10 -19 -10 -22 0 -37 -17 -26 -28 4 -4 10 -1
12 6 3 6 12 12 21 12 15 0 15 -1 0 -16 -9 -9 -28 -16 -43 -16 -15 0 -34 7 -43
16 -10 9 -12 16 -5 16 7 0 15 -5 18 -10 7 -12 25 -4 25 11 0 5 -11 9 -25 9
-14 0 -25 5 -25 10 0 6 12 10 26 10 16 0 24 5 21 13 -2 6 -11 11 -21 9 -24 -4
-20 7 7 17 24 9 59 0 65 -17z"/>
<path d="M2043 1850 c-73 -30 -48 -150 31 -150 69 0 102 85 51 135 -25 26 -45
30 -82 15z m78 -36 c9 -11 8 -14 -5 -14 -9 0 -16 5 -16 11 0 5 -4 7 -10 4 -18
-11 -10 -25 15 -25 14 0 25 -4 25 -10 0 -5 -8 -10 -18 -10 -10 0 -19 -7 -19
-15 0 -8 4 -15 9 -15 4 0 8 5 8 10 0 6 6 10 13 10 13 -1 -30 -40 -44 -40 -5 0
-9 8 -9 18 0 13 -2 14 -9 3 -5 -7 -14 -10 -20 -7 -18 11 -13 24 12 29 19 4 18
4 -5 6 -35 1 -37 21 -3 21 16 0 25 6 25 15 0 13 -4 14 -20 5 -11 -6 -20 -7
-20 -2 0 13 42 30 62 24 10 -2 23 -10 29 -18z"/>
<path d="M2204 1837 c-77 -66 11 -180 94 -121 28 20 31 93 5 117 -33 29 -68
31 -99 4z m83 -20 c4 -6 0 -8 -11 -4 -9 4 -15 3 -11 -2 3 -5 -1 -12 -7 -14 -7
-3 -1 -6 15 -6 32 -1 37 -21 5 -22 -23 -1 -23 -1 1 -8 19 -5 21 -8 10 -17 -32
-25 -89 -20 -89 7 0 8 4 9 13 0 8 -6 17 -8 20 -4 14 13 6 23 -18 23 -14 0 -25
5 -25 10 0 6 11 10 25 10 14 0 25 5 25 11 0 6 -9 8 -20 4 -27 -9 -25 8 3 21
25 11 54 7 64 -9z"/>
<path d="M2378 1844 c-24 -13 -28 -21 -28 -59 0 -80 72 -114 125 -60 39 38 27
102 -22 124 -31 14 -42 13 -75 -5z m52 -29 c0 -20 5 -25 25 -25 14 0 25 -4 25
-10 0 -5 -11 -10 -25 -10 -20 0 -25 -5 -25 -25 0 -14 -4 -25 -10 -25 -5 0 -10
11 -10 25 0 18 -5 25 -20 25 -11 0 -20 5 -20 10 0 6 9 10 20 10 15 0 20 7 20
25 0 14 5 25 10 25 6 0 10 -11 10 -25z m-30 0 c0 -8 -7 -15 -16 -15 -14 0 -14
3 -4 15 7 8 14 15 16 15 2 0 4 -7 4 -15z m64 0 c3 -9 0 -15 -9 -15 -8 0 -15 7
-15 15 0 8 4 15 9 15 5 0 11 -7 15 -15z m-64 -71 c0 -9 -5 -14 -12 -12 -18 6
-21 28 -4 28 9 0 16 -7 16 -16z m70 12 c0 -2 -6 -9 -13 -15 -10 -8 -14 -7 -14
4 0 8 6 15 14 15 7 0 13 -2 13 -4z"/>
</g>
</svg>
