<svg width="null" height="null" xmlns="http://www.w3.org/2000/svg" style="animation-delay: 0s; animation-direction: normal; animation-duration: 0s; animation-fill-mode: none; animation-iteration-count: 1; animation-name: none; animation-play-state: running; animation-timing-function: ease; background-attachment: scroll; background-blend-mode: normal; background-clip: border-box; background-color: rgba(0, 0, 0, 0); background-image: none; background-origin: padding-box; background-position: 0% 0%; background-repeat: repeat; background-size: auto; border-bottom-color: rgb(0, 0, 0); border-bottom-left-radius: 0px; border-bottom-right-radius: 0px; border-bottom-style: none; border-bottom-width: 0px; border-collapse: separate; border-image-outset: 0px; border-image-repeat: stretch; border-image-slice: 100%; border-image-source: none; border-image-width: 1; border-left-color: rgb(0, 0, 0); border-left-style: none; border-left-width: 0px; border-right-color: rgb(0, 0, 0); border-right-style: none; border-right-width: 0px; border-top-color: rgb(0, 0, 0); border-top-left-radius: 0px; border-top-right-radius: 0px; border-top-style: none; border-top-width: 0px; bottom: auto; box-shadow: none; box-sizing: content-box; break-after: auto; break-before: auto; break-inside: auto; caption-side: top; clear: none; clip: auto; color: rgb(0, 0, 0); content: ; cursor: auto; direction: ltr; display: block; empty-cells: show; float: none; font-family: &quot;Times New Roman&quot;; font-kerning: auto; font-size: 16px; font-stretch: normal; font-style: normal; font-variant: normal; font-variant-ligatures: normal; font-variant-caps: normal; font-variant-numeric: normal; font-weight: normal; height: 617px; image-rendering: auto; isolation: auto; left: auto; letter-spacing: normal; line-height: normal; list-style-image: none; list-style-position: outside; list-style-type: disc; margin-bottom: 0px; margin-left: 0px; margin-right: 0px; margin-top: 0px; max-height: none; max-width: none; min-height: 0px; min-width: 0px; mix-blend-mode: normal; motion-offset: 0px; motion-path: none; motion-rotation: auto 0deg; object-fit: fill; object-position: 50% 50%; opacity: 1; orphans: 2; outline-color: rgb(0, 0, 0); outline-offset: 0px; outline-style: none; outline-width: 0px; overflow-wrap: normal; overflow-x: visible; overflow-y: visible; padding-bottom: 0px; padding-left: 0px; padding-right: 0px; padding-top: 0px; pointer-events: auto; position: static; resize: none; right: auto; speak: normal; table-layout: auto; tab-size: 8; text-align: start; text-align-last: auto; text-decoration: none; text-indent: 0px; text-rendering: auto; text-shadow: none; text-overflow: clip; text-transform: none; top: auto; touch-action: auto; transition-delay: 0s; transition-duration: 0s; transition-property: all; transition-timing-function: ease; unicode-bidi: normal; vertical-align: baseline; visibility: visible; white-space: normal; widows: 2; width: 798px; will-change: auto; word-break: normal; word-spacing: 0px; word-wrap: normal; z-index: 0; zoom: 1; -webkit-appearance: none; backface-visibility: visible; -webkit-background-clip: border-box; -webkit-background-origin: padding-box; -webkit-border-horizontal-spacing: 0px; -webkit-border-image: none; -webkit-border-vertical-spacing: 0px; -webkit-box-align: stretch; -webkit-box-decoration-break: slice; -webkit-box-direction: normal; -webkit-box-flex: 0; -webkit-box-flex-group: 1; -webkit-box-lines: single; -webkit-box-ordinal-group: 1; -webkit-box-orient: horizontal; -webkit-box-pack: start; -webkit-box-reflect: none; -webkit-clip-path: none; column-count: auto; column-gap: normal; column-rule-color: rgb(0, 0, 0); column-rule-style: none; column-rule-width: 0px; column-span: none; column-width: auto; -webkit-filter: none; align-content: normal; align-items: stretch; align-self: start; flex-basis: auto; flex-grow: 0; flex-shrink: 1; flex-direction: row; flex-wrap: nowrap; justify-content: normal; -webkit-font-smoothing: auto; -webkit-highlight: none; -webkit-hyphenate-character: auto; -webkit-line-break: auto; -webkit-line-clamp: none; -webkit-locale: auto; -webkit-margin-before-collapse: collapse; -webkit-margin-after-collapse: collapse; -webkit-mask-box-image: none; -webkit-mask-box-image-outset: 0px; -webkit-mask-box-image-repeat: stretch; -webkit-mask-box-image-slice: 0 fill; -webkit-mask-box-image-source: none; -webkit-mask-box-image-width: auto; -webkit-mask-clip: border-box; -webkit-mask-composite: source-over; -webkit-mask-image: none; -webkit-mask-origin: border-box; -webkit-mask-position: 0% 0%; -webkit-mask-repeat: repeat; -webkit-mask-size: auto; order: 0; perspective: none; perspective-origin: 399px 308.5px; -webkit-print-color-adjust: economy; -webkit-rtl-ordering: logical; shape-outside: none; shape-image-threshold: 0; shape-margin: 0px; -webkit-tap-highlight-color: rgba(0, 0, 0, 0.180392); -webkit-text-combine: none; -webkit-text-decorations-in-effect: none; -webkit-text-emphasis-color: rgb(0, 0, 0); -webkit-text-emphasis-position: over; -webkit-text-emphasis-style: none; -webkit-text-fill-color: rgb(0, 0, 0); -webkit-text-orientation: vertical-right; -webkit-text-security: none; -webkit-text-stroke-color: rgb(0, 0, 0); -webkit-text-stroke-width: 0px; transform: none; transform-origin: 0px 0px; transform-style: flat; -webkit-user-drag: auto; -webkit-user-modify: read-only; -webkit-user-select: text; -webkit-writing-mode: horizontal-tb; -webkit-app-region: no-drag; buffered-rendering: auto; clip-path: none; clip-rule: nonzero; mask: none; filter: none; flood-color: rgb(0, 0, 0); flood-opacity: 1; lighting-color: rgb(255, 255, 255); stop-color: rgb(0, 0, 0); stop-opacity: 1; color-interpolation: sRGB; color-interpolation-filters: linearRGB; color-rendering: auto; fill: rgb(0, 0, 0); fill-opacity: 1; fill-rule: nonzero; marker-end: none; marker-mid: none; marker-start: none; mask-type: luminance; shape-rendering: auto; stroke: none; stroke-dasharray: none; stroke-dashoffset: 0px; stroke-linecap: butt; stroke-linejoin: miter; stroke-miterlimit: 4; stroke-opacity: 1; stroke-width: 1px; alignment-baseline: auto; baseline-shift: 0px; dominant-baseline: auto; text-anchor: start; writing-mode: horizontal-tb; vector-effect: none; paint-order: fill stroke markers; d: none; cx: 0px; cy: 0px; x: 0px; y: 0px; r: 0px; rx: 0px; ry: 0px;" version="1.1" xmlns:xlink="http://www.w3.org/1999/xlink"><style type="text/css">.st0 { fill-rule: evenodd; clip-rule: evenodd; fill: rgb(2, 2, 4); }</style><svg xmlns="http://www.w3.org/2000/svg" xmlns:xlink="http://www.w3.org/1999/xlink" version="1.1" id="Layer_1" x="0px" y="0px" viewBox="0 0 300 200" style="enable-background:new 0 0 300 200;" xml:space="preserve">
<style type="text/css">
	.st0{fill-rule:evenodd;clip-rule:evenodd;fill:#020204;}
</style>
<path class="st0" d="M66,51.06l-3.28,6.64c-8.51-8.41-17.68-12.51-33.75-11.84C11.75,46.58,6.72,51.42,0,61.52v5.61  c3.76,4.31,4.98,6.49,12.72,4.1c-0.42,4.36-2.05,9.93-3.05,14.47C6.83,98.71,3.04,90.13,3.07,97c4.12,1.7,45.78,2.83,37.5-5.72  l-13.36,3.48l6.31-30.26c2.91-6.18,3.87-0.63,5.12-6.15C20.05,47.22,14.25,71.94,5.06,67c-8.92-16.01,35.81-22.03,40.81-4.62  c1.5,5.21-0.55,10.07-4.05,12.68c-8.11,6.04-7.17-8.52-9.46,0.13c-2.81,10.63,16.14,8.5,22.58,5.93  c-2.11,12.65-10.5,38.76-11.94,51.97c-2.1,19.4,3.18,10.42,4.81,10.91c-6.72,8.76-24.5,42.42-12.82,56h4.64  c11.92-9.58-0.41-35.81,18.82-51.54c23.72-19.41,74.03,5.27,121.07-18.87c11.97-6.14,31.41-22.03,35.52-34.29l4.7-6.51  c9.99,11.46,31.87,14.77,39.89-0.16c2.67-4.98,0.28-19.06-2.5-21.72c-6.06-5.82-16.17-3.29-24.09-1.69  c4.73-10.97,17.91-32.64,24.94-39.21C271.91,13.03,285.02,13.54,300,3.65V0h-9.77c-18.08,11.31-101.99,3.5-132.05,5.49  c-21.71,1.44-39.96,2.56-57.59,11.02C87.21,22.94,68.34,35.92,66,51.06 M66,51.06c9.61-3.27,14.79-4.51,26.2-2.09l-4.14,19.09  c24.38-10.36,30.86,8.46,18.11,25.29l5.71-0.65c0.87,7.65-20.3,5.67-24.8,4.26c0.72-6.88,13.38-14.99,8.26-25.31  c-10.32-3.61-13.56,18.68-11.84,20.53c0.13,0.14,5.89-0.2,1.02,4c-2.64,2.28-20.87,2.93-23.93,0.03c0.35-4.28,3.46,0.55,5.81-7.79  c1.01-3.58,1.82-8.3,2.75-12.26c1.83-7.81,3.52-16.34,5.3-24.55l-8.11,3.62L66,51.06z M157.74,55.58  c-1.16-6.89,8.84-6.41,15.27-6.46c11.08-0.08,11.81-1.46,9.23,9.07c-2.05,8.34-7.56,27.89-7.96,35.77l7.66-2.92  c-0.39,5.93-5.36,6.68-11.88,6.66c-5.52-0.02-13.96,0.97-17.71-1.11c0.66-5.98,3.51,1.03,5.93-8.35l7.97-35.23  C160.08,54.14,162.21,56.72,157.74,55.58z M206.49,49.02c10.6-4.21,17.69,10.24,5.91,13.43C202.32,65.18,194.47,53.8,206.49,49.02z   M138.85,48.57c11.08-2.84,16.2,11.71,4.79,14.09C132.21,65.03,127.57,51.46,138.85,48.57z M215.06,95.3  c-6.08,2.71-19.81,3.68-28.07,1.92c0.67-6.72,0.9-0.2,4.59-5.71l5.46-22.65c-4.72,1.07-4.47,4.68-7.05,2.16  c-2-1.96,1.37-4.48,3.6-5.36c4.55-1.81,17.09-2.11,21.04,0.74L208.82,92C212.14,94.46,214.75,89.27,215.06,95.3z M121.65,71.35  c-2.27-8.57,17.04-6.97,24.11-6.23c0.85,6.44-4.61,21.22-5.39,28.52c4.78-0.62,2.17-2.6,6.52-0.55c-1.94,6.99-20.6,5.31-28.17,4.23  c1.06-7.23,0.94,0.12,4.69-5.97L129,68.76C123.46,70.06,125.7,72.3,121.65,71.35z M256.82,79c1.65,18.59-23.68,19.2-21.26,3.45  c2.35-15.27,22.89-15.12,19.64-9.12c-2.09,3.86-6.72-7.2-6.22,1.62C249.22,79.34,254.97,78.17,256.82,79z M50.07,140.7  c3.35-7.98,12.26-21.09,22.73-24.23c-0.94,2.63-3.22,4.06-5.24,6.1L50.07,140.7z"/>
</svg></svg>