<?xml version="1.0" encoding="utf-8"?>
<!-- Generator: Adobe Illustrator 22.1.0, SVG Export Plug-In . SVG Version: 6.00 Build 0)  -->
<svg version="1.1" id="Layer_1" xmlns="http://www.w3.org/2000/svg" xmlns:xlink="http://www.w3.org/1999/xlink" x="0px" y="0px"
	 viewBox="0 0 507.7 537.3" style="enable-background:new 0 0 507.7 537.3;" xml:space="preserve">
<style type="text/css">
	.st0{fill:none;stroke:#000000;stroke-width:4;stroke-miterlimit:10;}
</style>
<ellipse transform="matrix(0.2335 -0.9724 0.9724 0.2335 -90.6298 391.0132)" class="st0" cx="202.7" cy="253" rx="58.6" ry="51.3"/>
<ellipse transform="matrix(0.342 -0.9397 0.9397 0.342 -103.7146 355.3534)" class="st0" cx="201.9" cy="251.7" rx="118" ry="104.4"/>
<ellipse transform="matrix(0.3077 -0.9515 0.9515 0.3077 -93.4091 386.9276)" class="st0" cx="219.2" cy="257.7" rx="226.8" ry="202.1"/>
<ellipse transform="matrix(0.4076 -0.9132 0.9132 0.4076 -104.1809 365.3372)" class="st0" cx="229.5" cy="263" rx="231" ry="213"/>
<ellipse transform="matrix(0.342 -0.9397 0.9397 0.342 -87.5232 408.57)" class="st0" cx="248" cy="266.8" rx="267.9" ry="239"/>
<ellipse transform="matrix(0.3177 -0.9482 0.9482 0.3177 -82.6813 424.8178)" class="st0" cx="253.8" cy="269.9" rx="267" ry="250"/>
<circle cx="470" cy="241.5" r="6.5"/>
<ellipse transform="matrix(0.5 -0.866 0.866 0.5 -336.5805 452.9455)" cx="224" cy="518" rx="6" ry="5.5"/>
<circle cx="224" cy="16.5" r="5.5"/>
</svg>
