<?xml version="1.0" encoding="utf-8"?>
<!DOCTYPE svg PUBLIC "-//W3C//DTD SVG 1.1//EN" "http://www.w3.org/Graphics/SVG/1.1/DTD/svg11.dtd">
<svg version="1.1" xmlns="http://www.w3.org/2000/svg" xmlns:xlink="http://www.w3.org/1999/xlink" x="0px" y="0px" viewBox="0 0 1000 1000" enable-background="new 0 0 1000 1000" xml:space="preserve">
<metadata> Svg Vector Icon </metadata>
<g><g transform="translate(0.000000,511.000000) scale(0.100000,-0.100000)"><path d="M4520.4,3747.8c-627.1-74.8-1145-224.4-1678.1-485.2c-498.6-245.5-914.8-540.8-1304.1-932.1C771,1565.3,303.1,631.3,134.3-473.3c-46-303-46-1049.1,1.9-1357.8c71-467.9,216.7-958.9,408.5-1369.4c88.2-193.7,136.2-257,220.6-301.1c78.6-40.3,8390.6-40.3,8469.2,0c84.4,44.1,132.3,107.4,220.6,301.1c193.7,414.3,343.3,920.6,410.4,1388.5c46,316.4,46,1024.1,0,1332.9c-163,1097-638.6,2048.3-1403.9,2809.6C7730.9,3057.4,6841,3515.8,5792,3703.7c-184.1,34.5-318.4,42.2-715.4,46C4808.1,3753.6,4556.9,3751.7,4520.4,3747.8z M4693,2815.8c0-383.6,21.1-456.4,141.9-533.2c153.4-94,364.4-34.5,435.4,122.7c30.7,67.1,36.4,128.5,36.4,410.4v331.8l101.6-13.4c514-59.5,960.9-178.4,1361.7-362.5l107.4-49.9L6750.9,2507c-203.3-347.1-222.5-393.2-211-489.1c24.9-220.6,278.1-347.1,456.4-228.2c71,46,109.3,103.6,293.4,420l118.9,205.2l161.1-120.8c216.7-161.1,427.7-352.9,606-548.5c147.7-163,372.1-452.6,372.1-475.6c0-7.7-115.1-78.6-255.1-157.3c-303-172.6-370.1-228.2-397-328c-44.1-164.9,55.6-337.5,218.6-379.7c113.1-28.8,161.1-11.5,473.7,170.7c145.8,84.4,268.5,153.4,274.3,153.4c17.2,0,182.2-416.2,239.7-604.1c94-308.8,174.5-723,174.5-901.4v-67.1h-341.4c-295.4,0-349.1-3.8-406.6-36.4c-78.6-40.3-153.4-170.7-153.4-264.7c0-94,65.2-205.2,147.7-257c69-42.2,95.9-46,416.2-51.8l343.3-7.7l-13.4-145.8c-28.8-331.8-174.5-893.7-316.4-1217.8l-38.4-90.1l-3918.2,3.8l-3916.2,5.8l-78.6,201.4c-136.2,347.1-239.7,769.1-270.4,1097L717.3-1461l343.3,7.7c322.2,5.8,347.1,7.7,418.1,51.8c80.6,49.9,143.8,164.9,145.8,262.7c0,88.2-76.7,218.6-153.4,258.9c-57.5,32.6-111.2,36.4-410.4,36.4H717.3l13.4,159.2c19.2,235.9,97.8,598.4,191.8,882.2c71,214.8,186,500.6,211,527.4c5.8,3.8,128.5-63.3,276.2-149.6c314.5-182.2,362.5-199.5,475.6-170.7c163,42.2,262.7,214.8,218.6,379.7c-26.9,99.7-94,155.4-397,328c-140,78.6-255.1,149.6-255.1,157.3c0,23,226.3,314.5,366.3,468c170.7,189.9,400.8,398.9,609.9,556.2c88.2,67.1,163,120.8,164.9,118.9c1.9-3.8,71-122.7,153.4-264.7c80.6-141.9,166.9-280,189.9-303c174.5-193.7,494.8-88.2,523.6,172.6c11.5,97.8,0,124.7-207.1,479.5l-130.4,224.4l107.4,49.9c404.7,184.1,1031.8,349.1,1430.7,372.1C4691.1,3145.6,4693,3116.9,4693,2815.8z"/><path d="M6739.4,606.4c-166.9-101.7-404.7-276.2-818.9-606c-517.8-414.2-1285-1056.7-1357.8-1139.2c-63.3-72.9-118.9-226.3-118.9-328c0-113.1,55.6-251.2,138.1-345.2c180.3-203.3,456.5-241.6,703.8-95.9c113.2,67.1,1231.3,1779.8,1492.1,2286.1C6942.7,698.5,6936.9,725.3,6739.4,606.4z"/></g></g>
</svg>
