<?xml version="1.0" encoding="utf-8"?>
<!-- Generator: Adobe Illustrator 21.1.0, SVG Export Plug-In . SVG Version: 6.00 Build 0)  -->
<svg version="1.1" id="Layer_1" xmlns="http://www.w3.org/2000/svg" xmlns:xlink="http://www.w3.org/1999/xlink" x="0px" y="0px"
	 viewBox="0 0 612 792" style="enable-background:new 0 0 612 792;" xml:space="preserve">
<style type="text/css">
	.st0{fill:#1A1A18;}
</style>
<g>
	<path class="st0" d="M330.6,792h-32.7c-60.3,0-109.3-49.1-109.3-109.3V109.3C188.5,49.1,237.6,0,297.9,0h32.7
		c60.3,0,109.3,49.1,109.3,109.3v573.3C439.9,743,390.9,792,330.6,792z M297.9,6.5c-56.7,0-102.8,46.1-102.8,102.8v573.3
		c0,56.7,46.1,102.8,102.8,102.8h32.7c56.7,0,102.8-46.1,102.8-102.8V109.3c0-56.7-46.1-102.8-102.8-102.8L297.9,6.5L297.9,6.5z"/>
</g>
<g>
	<path class="st0" d="M330.6,770.7h-32.7c-48.6,0-88.1-39.5-88.1-88.1V109.3c0-48.6,39.5-88.1,88.1-88.1h32.7
		c48.6,0,88.1,39.5,88.1,88.1v573.3C418.7,731.2,379.2,770.7,330.6,770.7z M297.9,24.5c-46.8,0-84.8,38-84.8,84.8v573.3
		c0,46.8,38,84.8,84.8,84.8h32.7c46.8,0,84.8-38,84.8-84.8V109.3c0-46.8-38-84.8-84.8-84.8C330.6,24.5,297.9,24.5,297.9,24.5z"/>
</g>
<g>
	<path d="M346.6,208v-17.6c0.3-0.5-0.1-0.1,0.4-0.5l0.5-0.3l0.9-0.5l13.8-7.9c0.5,0,13.7,7.9,15.7,8.9v18.2
		c-2.2,0.9-14.9,8.9-15.7,8.8c-0.4,0-10.1-5.8-11.8-6.7C349.6,210,347,208.6,346.6,208 M314.1,207.6v-17.2c0.3-0.7,6.9-4.2,7.7-4.7
		c0.8-0.5,7.7-4.5,7.8-4.5c0.6,0,13.6,7.9,15.7,8.9l0,18c-0.1,0.4-10.1,6.1-11.8,7l-2,1.1c-2.8,1.6-1.3,1.3-10-3.7l-5.9-3.4
		C315,208.7,314.1,208.6,314.1,207.6z M329.7,160.9c-0.3,0-6.9-3.9-7.8-4.4l-7.8-4.5v-18.1c1.8-0.7,14.9-8.9,15.7-8.9
		c0.7,0,13.4,8,15.5,8.9V152c-1.3,0.6-2.6,1.5-3.9,2.2l-7.9,4.5C332.9,159.2,330.2,161,329.7,160.9z M297.4,160.9l-11.8-6.7
		l-0.8-0.4l-2-1.1c-0.6-0.4-1.1-0.7-1.1-1l0-16.3v-1.5c2-0.9,15-8.9,15.6-8.9c0.8,0,13.3,7.9,15.6,8.8v18.2
		C311.4,152.6,298.9,160.4,297.4,160.9z M280.5,151.7c-0.4,0.7-15.5,9.2-15.6,9.2c-0.1,0-15-8.5-15.6-9V134c0.6-0.6,2.9-1.8,3.9-2.3
		c1.8-1,11.4-6.7,11.9-6.6c0.3,0,7,4,7.9,4.5c1.3,0.8,2.5,1.5,3.9,2.3c0.7,0.4,3.5,1.8,3.7,2.4L280.5,151.7L280.5,151.7z
		 M265.5,180.1V162c2-0.9,14.5-8.6,15.6-8.9l15.6,8.9l0,17.8c0,0.3-0.1,0.3-0.4,0.5l-15.2,8.7c-0.4,0-6.9-3.9-7.8-4.4
		c-1.3-0.7-2.6-1.5-3.9-2.3C268.3,181.7,266.7,180.6,265.5,180.1z M264.3,180.1c-1.9,0.8-15,8.9-15.6,8.9
		c-0.6-0.1-13.3-7.9-15.6-8.9V162l7.9-4.5c1.3-0.8,2.6-1.5,3.9-2.3c0.6-0.4,3.4-2.1,3.8-2.1c0.5,0,13.6,7.9,15.6,8.9
		C264.3,166.3,264.4,176.1,264.3,180.1z M362.8,180.1l0-18.1c2.1-0.9,15-8.9,15.6-8.9c0.6,0,14.1,8.3,15.5,8.9
		c0.2,4.5,0.1,13.4,0,18.2c-1.8,0.7-14.9,8.9-15.7,8.9c-0.2,0-7.1-4-7.8-4.4L362.8,180.1z M362.2,160.9c-0.6,0-13.4-7.9-15.6-8.9
		l0-18.2c2.1-0.9,15-8.9,15.7-8.9l11.7,6.7c0.9,0.5,3,1.9,3.9,2.2V152C376,152.8,363,161,362.2,160.9z M330.4,180.1l0-18
		c1.2-0.9,15.5-9,15.6-9c0.2,0,14.6,8.2,15.6,9v18c-1.3,0.9-15.3,9-15.6,9C345.6,189,331.9,181,330.4,180.1z M313.6,189l-15.6-9
		v-17.8c0.1-0.4,0.5-0.5,2-1.4l8-4.6c6.5-3.9,5.1-3.6,8-1.9l13.3,7.6v18.1c-1.2,0.5-2.7,1.5-3.9,2.2
		C323.5,183.3,314.2,188.9,313.6,189z M281.7,208.2v-17.8c0.2-0.4,0-0.3,0.6-0.6l10-5.8c0.9-0.5,1.8-1,2.7-1.5
		c0.5-0.3,0.8-0.5,1.3-0.8c0.4-0.3,0.7-0.5,1.1-0.5c3.3,2.1,12.9,7.2,15.4,8.9c0.1,0.1,0.1,0.3,0.1,0.4l0,17.4l0,0.2
		c-0.5,0.6-15.4,9-15.6,9l-11.8-6.7C284.6,209.8,282.7,208.5,281.7,208.2z M222.9,155.4v-25l9.4-5.4c0.8-0.1,13.9,8.1,15.8,8.8
		l0,18.2c-1.3,0.6-2.7,1.6-3.9,2.2c-1.4,0.8-2.7,1.5-3.9,2.3c-0.9,0.5-7.4,4.5-7.8,4.4L222.9,155.4z M222.9,185.2v-28.4
		c4.1,2.3,8.6,4.9,8.9,5.2l0,18l-7.8,4.6L222.9,185.2z M222.9,211.6v-25c4.3-2.5,9.2-5.5,9.6-5.4l11.7,6.7c0.9,0.5,3,1.9,3.9,2.2
		v18.1c-1.8,0.7-14.8,8.9-15.7,8.9C232.1,217,227.2,214.1,222.9,211.6z M231.9,219h-8.9v-6c4,2.3,8.4,4.8,8.9,5.2V219z M264.3,219
		h-31.2v-0.8c2.1-0.9,15-8.9,15.7-8.9c0.6,0,14.1,8.3,15.5,8.9L264.3,219z M296.8,219h-31.2v-0.9c1-0.4,2.9-1.6,3.9-2.2
		c1.6-0.9,11.4-6.6,11.7-6.6l11.7,6.7c1.2,0.7,2.6,1.6,3.9,2.2V219z M405.6,212.3v6.7H297.9v-0.8l15.7-9c2.6,1.7,12.2,7.1,13.7,8
		c3.2,1.9,1.8,1.7,6.2-0.7c1.4-0.8,2.7-1.6,4.1-2.4c1.5-0.8,2.7-1.5,4.1-2.4c5.4-3.1,3-3,8.4,0c1.4,0.8,11.6,7,12.3,6.8
		c0.3-0.1,3.6-2.1,4.1-2.3c1.4-0.8,2.7-1.6,4.1-2.4c1.4-0.8,2.6-1.5,4-2.3c4.5-2.5,2.7-2.9,8.1,0.3l8.1,4.7c4.4,2.5,3.2,2.6,6.2,0.8
		L405.6,212.3z M405.6,187.4V211l-3,1.7c-0.9,0.5-7.5,4.4-7.9,4.4c-0.5,0-10.1-5.7-12-6.8l-2-1.1c-0.5-0.3-1.7-0.8-1.7-1.3v-17.3
		c0-0.7,1.2-1.1,1.8-1.4c2.1-1.2,13.5-7.9,13.8-7.9C395,181.3,402.5,185.6,405.6,187.4z M405.6,156.1v30c-4-2.4-9.1-5.4-10.3-5.9
		l0-18.2c1-0.4,2.9-1.6,3.9-2.2C400,159.3,402.9,157.6,405.6,156.1z M405.6,131.2v23.5l-3.1,1.8c-1,0.6-7.4,4.4-7.8,4.4
		c-0.1,0-14.8-8.4-15.6-9l0-18c0.9-0.7,2.8-1.7,3.9-2.3c1.7-0.9,11.3-6.7,11.7-6.6C394.8,125,401,128.6,405.6,131.2z M395.3,123.8
		h10.3v6.1l-2.5-1.5c-1.3-0.7-2.6-1.5-3.9-2.3c-1.2-0.6-2.8-1.7-3.9-2.2L395.3,123.8L395.3,123.8z M362.8,123.8H394v0.2
		c-1.9,0.8-15,8.9-15.6,8.9c-0.6-0.1-13.3-7.9-15.6-8.9L362.8,123.8L362.8,123.8z M330.4,123.8h31.2v0.1l-7.8,4.6
		c-0.9,0.5-7.4,4.4-7.8,4.4c0,0-14.4-8.1-15.6-9L330.4,123.8z M296.7,123.8h32.5v0.2c-2.1,0.9-15.1,8.9-15.7,8.9
		c-0.3,0-12.2-7-14.7-8.4l-0.9-0.7H296.7z M265.5,123.8h31.3v0.2l-15.6,8.9L265.5,123.8z M233,123.8h31.5c-0.8,0.6-3.1,1.8-3.8,2.2
		c-1.3,0.7-2.6,1.5-3.9,2.3c-1.1,0.6-7.5,4.5-8.1,4.5C248.4,132.7,234.8,125,233,123.8z M222.9,123.8h9.1c-1,0.7-5.2,3.1-9.1,5.3
		V123.8z M264.9,217.1c-0.1,0-14.8-8.4-15.6-9l0-18c0.9-0.7,2.8-1.7,3.9-2.3c1.7-0.9,11.3-6.7,11.7-6.6c0.2,0,14.4,8.1,15.6,9v18
		l-7.8,4.6C271.7,213.2,265.3,217.1,264.9,217.1z"/>
</g>
</svg>
