<?xml version="1.0" encoding="UTF-8" standalone="no"?>
<svg
   xmlns:dc="http://purl.org/dc/elements/1.1/"
   xmlns:cc="http://creativecommons.org/ns#"
   xmlns:rdf="http://www.w3.org/1999/02/22-rdf-syntax-ns#"
   xmlns:svg="http://www.w3.org/2000/svg"
   xmlns="http://www.w3.org/2000/svg"
   xmlns:sodipodi="http://sodipodi.sourceforge.net/DTD/sodipodi-0.dtd"
   xmlns:inkscape="http://www.inkscape.org/namespaces/inkscape"
   version="1.1"
   width="500px"
   height="500px"
   viewBox="0 0 500 500"
   preserveAspectRatio="none"
   id="svg6"
   sodipodi:docname="icon.svg"
   inkscape:version="0.92.4 (5da689c313, 2019-01-14)">
  <metadata
     id="metadata12">
    <rdf:RDF>
      <cc:Work
         rdf:about="">
        <dc:format>image/svg+xml</dc:format>
        <dc:type
           rdf:resource="http://purl.org/dc/dcmitype/StillImage" />
        <dc:title />
      </cc:Work>
    </rdf:RDF>
  </metadata>
  <defs
     id="defs10" />
  <sodipodi:namedview
     pagecolor="#ffffff"
     bordercolor="#666666"
     borderopacity="1"
     objecttolerance="10"
     gridtolerance="10"
     guidetolerance="10"
     inkscape:pageopacity="0"
     inkscape:pageshadow="2"
     inkscape:window-width="1680"
     inkscape:window-height="987"
     id="namedview8"
     showgrid="false"
     inkscape:zoom="1.3350176"
     inkscape:cx="42.272977"
     inkscape:cy="156.05051"
     inkscape:window-x="-8"
     inkscape:window-y="-8"
     inkscape:window-maximized="1"
     inkscape:current-layer="svg6" />
  <path
     style="fill:none;stroke:#000000;stroke-width:1.12639844;stroke-linecap:butt;stroke-linejoin:miter;stroke-miterlimit:4;stroke-dasharray:none;stroke-opacity:1"
     d="m 405.0813,437.80524 -0.97609,-162.06061 c -0.20935,-34.75876 -24.22999,-43.17302 -53.91197,-43.17302 H 142.57317 c -32.3912,0 -40.75394,23.84122 -40.56944,46.53553 l 1.19323,146.76591"
     id="path834"
     inkscape:connector-curvature="0"
     sodipodi:nodetypes="cssssc" />
  <path
     sodipodi:nodetypes="ssssssccs"
     inkscape:connector-curvature="0"
     id="path836"
     d="m 405.0813,437.80524 -0.97609,-169.17621 c -0.20935,-36.2849 -24.22999,-45.06861 -53.91197,-45.06861 H 142.57317 c -32.3912,0 -40.75394,24.88801 -40.56944,48.57877 l 1.19323,153.20995 c 0.30445,39.09135 13.72781,46.08755 56.08127,46.08755 66.82025,0 133.6405,0 200.46075,0 31.19681,0 45.42336,-19.58466 45.34232,-33.63145 z"
     style="fill:none;stroke:#000000;stroke-width:3.45258355;stroke-linecap:butt;stroke-linejoin:miter;stroke-miterlimit:4;stroke-dasharray:none;stroke-opacity:1" />
  <path
     style="fill:#000000;fill-opacity:1;fill-rule:evenodd;stroke-width:1.3141315"
     id="path838"
     sodipodi:type="arc"
     sodipodi:cx="148.05566"
     sodipodi:cy="433.38785"
     sodipodi:rx="11.812263"
     sodipodi:ry="11.812263"
     sodipodi:start="2.4065996"
     sodipodi:end="2.4059364"
     sodipodi:open="true"
     d="m 139.29291,441.30894 a 11.812263,11.812263 0 0 1 0.84021,-16.68253 11.812263,11.812263 0 0 1 16.68267,0.83744 11.812263,11.812263 0 0 1 -0.83468,16.68281 11.812263,11.812263 0 0 1 -16.68295,-0.83191" />
  <path
     d="m 181.86934,441.30894 a 11.812263,11.812263 0 0 1 0.84021,-16.68253 11.812263,11.812263 0 0 1 16.68267,0.83744 11.812263,11.812263 0 0 1 -0.83468,16.68281 11.812263,11.812263 0 0 1 -16.68294,-0.83191"
     sodipodi:open="true"
     sodipodi:end="2.4059364"
     sodipodi:start="2.4065996"
     sodipodi:ry="11.812263"
     sodipodi:rx="11.812263"
     sodipodi:cy="433.38785"
     sodipodi:cx="190.6321"
     sodipodi:type="arc"
     id="path840"
     style="fill:#000000;fill-opacity:1;fill-rule:evenodd;stroke-width:1.3141315" />
  <path
     style="fill:#000000;fill-opacity:1;fill-rule:evenodd;stroke-width:1.3141315"
     id="path842"
     sodipodi:type="arc"
     sodipodi:cx="275.84351"
     sodipodi:cy="433.38785"
     sodipodi:rx="11.812263"
     sodipodi:ry="11.812263"
     sodipodi:start="2.4065996"
     sodipodi:end="2.4059364"
     sodipodi:open="true"
     d="m 267.08075,441.30894 a 11.812263,11.812263 0 0 1 0.84021,-16.68253 11.812263,11.812263 0 0 1 16.68267,0.83744 11.812263,11.812263 0 0 1 -0.83468,16.68281 11.812263,11.812263 0 0 1 -16.68294,-0.83191" />
  <text
     xml:space="preserve"
     style="font-style:normal;font-variant:normal;font-weight:normal;font-stretch:normal;font-size:30.66666603px;line-height:1.25;font-family:sans-serif;-inkscape-font-specification:'sans-serif, Normal';font-variant-ligatures:normal;font-variant-caps:normal;font-variant-numeric:normal;font-feature-settings:normal;text-align:start;letter-spacing:0px;word-spacing:0px;writing-mode:lr-tb;text-anchor:start;fill:#000000;fill-opacity:1;stroke:none;stroke-width:0.89430112"
     x="136.37843"
     y="410.60709"
     id="text850"><tspan
       sodipodi:role="line"
       id="tspan848"
       x="136.37843"
       y="410.60709"
       style="font-style:normal;font-variant:normal;font-weight:normal;font-stretch:normal;font-size:30.66666603px;font-family:sans-serif;-inkscape-font-specification:'sans-serif, Normal';font-variant-ligatures:normal;font-variant-caps:normal;font-variant-numeric:normal;font-feature-settings:normal;text-align:start;writing-mode:lr-tb;text-anchor:start;stroke-width:0.89430112">N</tspan></text>
  <text
     id="text854"
     y="410.60709"
     x="170.58405"
     style="font-style:normal;font-variant:normal;font-weight:normal;font-stretch:normal;font-size:30.66666603px;line-height:1.25;font-family:sans-serif;-inkscape-font-specification:'sans-serif, Normal';font-variant-ligatures:normal;font-variant-caps:normal;font-variant-numeric:normal;font-feature-settings:normal;text-align:start;letter-spacing:0px;word-spacing:0px;writing-mode:lr-tb;text-anchor:start;fill:#000000;fill-opacity:1;stroke:none;stroke-width:0.89430112"
     xml:space="preserve"><tspan
       style="font-style:normal;font-variant:normal;font-weight:normal;font-stretch:normal;font-size:30.66666603px;font-family:sans-serif;-inkscape-font-specification:'sans-serif, Normal';font-variant-ligatures:normal;font-variant-caps:normal;font-variant-numeric:normal;font-feature-settings:normal;text-align:start;writing-mode:lr-tb;text-anchor:start;stroke-width:0.89430112"
       y="410.60709"
       x="170.58405"
       id="tspan852"
       sodipodi:role="line">S1</tspan></text>
  <text
     xml:space="preserve"
     style="font-style:normal;font-weight:normal;font-size:22.33355713px;line-height:1.25;font-family:sans-serif;letter-spacing:0px;word-spacing:0px;fill:#000000;fill-opacity:1;stroke:none;stroke-width:0.55833894"
     x="373.83884"
     y="-265.79858"
     id="text866"
     transform="rotate(89.708027)"><tspan
       sodipodi:role="line"
       id="tspan864"
       x="373.83884"
       y="-265.79858"
       style="stroke-width:0.55833894">NO1</tspan></text>
  <text
     xml:space="preserve"
     style="font-style:normal;font-weight:normal;font-size:22.33355522px;line-height:1.25;font-family:sans-serif;letter-spacing:0px;word-spacing:0px;fill:#000000;fill-opacity:1;stroke:none;stroke-width:0.55833894"
     x="345.51181"
     y="410.81519"
     id="text870"><tspan
       sodipodi:role="line"
       id="tspan868"
       x="345.51181"
       y="410.81519"
       style="stroke-width:0.55833894">D07</tspan></text>
  <path
     style="fill:none;stroke:#000000;stroke-width:3.37919545;stroke-linecap:butt;stroke-linejoin:miter;stroke-miterlimit:4;stroke-dasharray:none;stroke-opacity:1"
     d="m 187.71112,353.6551 0.84374,-45.56158 -5.06239,-38.81173 c 0,0 -2.20416,-15.18719 2.95305,-15.18719 26.15573,0 0,0 26.15573,0 5.82692,0 5.90614,16.45279 5.90614,16.45279 l -7.17174,40.92106 -1.2656,42.60852"
     id="path872"
     inkscape:connector-curvature="0"
     sodipodi:nodetypes="cccssccc" />
  <path
     style="fill:none;stroke:#000000;stroke-width:3.37919545;stroke-linecap:butt;stroke-linejoin:miter;stroke-miterlimit:4;stroke-dasharray:none;stroke-opacity:1"
     d="m 148.8994,222.03274 -0.3164,-149.97355 22.35893,10e-7 0.007,-40.115707 c -7.04309,-14.38835 -22.3759,-14.949065 -31.42375,-0.0053 l -0.0118,40.015541 23.30813,0.3164 -0.42187,150.184495"
     id="path874"
     inkscape:connector-curvature="0"
     sodipodi:nodetypes="cccccccc" />
  <path
     style="opacity:1;fill:#000000;fill-opacity:1;stroke:#000000;stroke-width:5.06239843;stroke-linecap:round;stroke-linejoin:miter;stroke-miterlimit:4;stroke-dasharray:none;stroke-dashoffset:0;stroke-opacity:1;paint-order:markers stroke fill"
     d="M 140.76401,50.617875 V 31.362018 l 5.19188,-4.36867 c 6.66141,-5.605214 13.8899,-5.689891 19.35309,-0.226708 3.9193,3.919302 4.14196,5.18929 4.14196,23.624526 v 19.482563 h -14.34346 -14.34347 z"
     id="path878"
     inkscape:connector-curvature="0" />
  <path
     style="fill:#000000;fill-opacity:1;fill-rule:evenodd;stroke-width:1.3141315"
     id="path870"
     sodipodi:type="arc"
     sodipodi:cx="233.13399"
     sodipodi:cy="433.38785"
     sodipodi:rx="11.812263"
     sodipodi:ry="11.812263"
     sodipodi:start="2.4065996"
     sodipodi:end="2.4059364"
     sodipodi:open="true"
     d="m 224.37123,441.30894 a 11.812263,11.812263 0 0 1 0.84021,-16.68253 11.812263,11.812263 0 0 1 16.68267,0.83744 11.812263,11.812263 0 0 1 -0.83467,16.68281 11.812263,11.812263 0 0 1 -16.68295,-0.83191" />
  <text
     xml:space="preserve"
     style="font-style:normal;font-variant:normal;font-weight:normal;font-stretch:normal;font-size:30.66666603px;line-height:1.25;font-family:sans-serif;-inkscape-font-specification:'sans-serif, Normal';font-variant-ligatures:normal;font-variant-caps:normal;font-variant-numeric:normal;font-feature-settings:normal;text-align:start;letter-spacing:0px;word-spacing:0px;writing-mode:lr-tb;text-anchor:start;fill:#000000;fill-opacity:1;stroke:none;stroke-width:0.89430112"
     x="212.46425"
     y="410.60709"
     id="text874"><tspan
       sodipodi:role="line"
       id="tspan872"
       x="212.46425"
       y="410.60709"
       style="font-style:normal;font-variant:normal;font-weight:normal;font-stretch:normal;font-size:30.66666603px;font-family:sans-serif;-inkscape-font-specification:'sans-serif, Normal';font-variant-ligatures:normal;font-variant-caps:normal;font-variant-numeric:normal;font-feature-settings:normal;text-align:start;writing-mode:lr-tb;text-anchor:start;stroke-width:0.89430112">S2</tspan></text>
  <path
     d="m 309.30072,441.30894 a 11.812263,11.812263 0 0 1 0.84021,-16.68253 11.812263,11.812263 0 0 1 16.68267,0.83744 11.812263,11.812263 0 0 1 -0.83468,16.68281 11.812263,11.812263 0 0 1 -16.68294,-0.83191"
     sodipodi:open="true"
     sodipodi:end="2.4059364"
     sodipodi:start="2.4065996"
     sodipodi:ry="11.812263"
     sodipodi:rx="11.812263"
     sodipodi:cy="433.38785"
     sodipodi:cx="318.06348"
     sodipodi:type="arc"
     id="path880"
     style="fill:#000000;fill-opacity:1;fill-rule:evenodd;stroke-width:1.3141315" />
  <text
     id="text884"
     y="410.60709"
     x="307.88422"
     style="font-style:normal;font-variant:normal;font-weight:normal;font-stretch:normal;font-size:30.66666603px;line-height:1.25;font-family:sans-serif;-inkscape-font-specification:'sans-serif, Normal';font-variant-ligatures:normal;font-variant-caps:normal;font-variant-numeric:normal;font-feature-settings:normal;text-align:start;letter-spacing:0px;word-spacing:0px;writing-mode:lr-tb;text-anchor:start;fill:#000000;fill-opacity:1;stroke:none;stroke-width:0.89430112"
     xml:space="preserve"><tspan
       style="font-style:normal;font-variant:normal;font-weight:normal;font-stretch:normal;font-size:30.66666603px;font-family:sans-serif;-inkscape-font-specification:'sans-serif, Normal';font-variant-ligatures:normal;font-variant-caps:normal;font-variant-numeric:normal;font-feature-settings:normal;text-align:start;writing-mode:lr-tb;text-anchor:start;stroke-width:0.89430112"
       y="410.60709"
       x="307.88422"
       id="tspan882"
       sodipodi:role="line">L</tspan></text>
</svg>
