<?xml version="1.0" standalone="no"?>
<!DOCTYPE svg PUBLIC "-//W3C//DTD SVG 20010904//EN"
 "http://www.w3.org/TR/2001/REC-SVG-20010904/DTD/svg10.dtd">
<svg version="1.0" xmlns="http://www.w3.org/2000/svg"
 width="500.000000pt" height="468.000000pt" viewBox="0 0 500.000000 468.000000"
 preserveAspectRatio="xMidYMid meet">

<g transform="translate(0.000000,468.000000) scale(0.100000,-0.100000)"
fill="#000000" stroke="none">
<path d="M0 4669 c0 -5 5 -7 10 -4 5 3 10 8 10 11 0 2 -4 4 -10 4 -5 0 -10 -5
-10 -11z"/>
<path d="M3210 4670 c-80 -9 -158 -47 -330 -160 -136 -90 -377 -267 -399 -293
-7 -10 -17 -17 -22 -17 -11 0 -110 -75 -154 -117 -8 -7 -17 -13 -22 -13 -4 0
-34 -22 -65 -48 -31 -26 -76 -62 -100 -79 -24 -18 -91 -70 -149 -115 -152
-119 -542 -420 -844 -653 -143 -110 -294 -227 -336 -260 -81 -64 -392 -303
-513 -395 -136 -103 -215 -180 -240 -234 -49 -103 -43 -348 14 -571 48 -187
116 -331 209 -443 42 -51 106 -118 141 -149 36 -30 80 -71 98 -89 18 -19 37
-34 42 -34 5 0 12 -5 16 -12 4 -7 3 -8 -4 -4 -7 4 -12 2 -12 -5 0 -7 8 -9 21
-6 15 4 19 2 15 -8 -3 -8 0 -15 6 -17 6 -2 13 -15 15 -28 4 -27 35 -54 44 -38
4 7 9 6 13 -1 4 -6 4 -16 0 -23 -4 -7 -3 -8 4 -4 6 3 16 -3 22 -14 6 -11 18
-20 28 -21 10 0 12 -3 5 -6 -7 -2 -13 -11 -13 -19 0 -9 4 -12 10 -9 5 3 10 1
10 -5 0 -8 9 -10 25 -6 15 4 25 2 25 -4 0 -6 -4 -9 -9 -5 -5 3 -12 1 -16 -5
-3 -5 1 -10 9 -10 9 0 16 -4 16 -9 0 -5 11 -12 25 -15 14 -4 25 -11 25 -16 0
-5 -7 -6 -17 -3 -12 5 -14 3 -8 -7 8 -13 -7 -3 -78 51 -15 11 -27 19 -27 17 0
-3 116 -120 258 -261 297 -295 398 -377 533 -432 132 -53 143 -55 249 -64 151
-13 165 -6 445 224 88 73 311 253 495 400 663 532 910 735 910 747 0 21 -30 4
-75 -43 -44 -45 -263 -227 -307 -254 -8 -5 -73 -57 -143 -115 -70 -58 -137
-112 -149 -120 -29 -20 -234 -180 -329 -257 -44 -35 -84 -60 -90 -56 -6 4 -7
1 -3 -6 5 -8 0 -14 -13 -18 -12 -3 -21 -9 -21 -14 0 -5 -7 -9 -15 -9 -8 0 -15
-6 -15 -14 0 -13 -27 -31 -42 -28 -5 1 -8 -2 -8 -8 0 -13 -159 -140 -177 -140
-8 0 -12 -4 -9 -9 3 -4 -4 -17 -15 -27 -17 -16 -22 -16 -29 -4 -8 12 -10 11
-10 -5 0 -26 -18 -45 -43 -45 -10 0 -16 -4 -12 -9 6 -11 -72 -77 -86 -74 -5 2
-9 -1 -9 -6 0 -12 -83 -66 -97 -63 -7 2 -13 -2 -13 -9 0 -6 -6 -9 -14 -6 -8 3
-22 -3 -31 -13 -14 -15 -20 -16 -31 -7 -21 18 -94 89 -131 128 -18 19 -43 44
-55 56 -25 24 -69 71 -138 146 -34 37 -41 50 -30 57 7 4 19 6 27 3 7 -3 13 0
13 6 0 6 11 11 25 11 14 0 34 9 45 20 11 11 16 20 11 20 -6 0 -12 -4 -15 -9
-6 -8 -31 -14 -118 -27 -109 -17 -479 117 -583 210 -61 54 -37 52 46 -6 92
-64 201 -111 344 -149 160 -42 233 -38 329 19 38 22 46 43 9 24 -59 -31 -128
-52 -167 -52 -35 1 -92 42 -82 59 4 6 3 11 -2 11 -11 0 -199 219 -225 263 -10
17 -36 47 -56 68 -55 54 -58 67 -13 74 20 3 47 8 59 11 13 2 26 4 29 3 4 0 10
3 13 8 3 4 23 17 44 28 20 11 37 24 37 28 0 5 11 7 25 5 21 -4 23 -3 14 13 -5
11 -6 19 -1 19 8 0 36 20 72 53 42 38 90 68 100 62 6 -4 9 -2 8 4 -4 13 82 92
92 86 5 -3 10 5 12 17 2 13 9 22 16 21 6 -2 12 1 12 7 0 5 7 7 15 4 9 -4 15
-1 15 7 0 18 58 51 65 38 4 -5 11 -6 17 -3 7 5 6 11 -4 18 -14 10 -18 17 -18
31 0 3 -30 -18 -67 -46 -38 -29 -67 -56 -66 -61 2 -4 -2 -8 -7 -8 -6 0 -10 -7
-10 -16 0 -8 -5 -12 -10 -9 -13 8 -63 -27 -78 -57 -7 -13 -27 -30 -44 -37 -17
-8 -49 -31 -71 -53 -22 -21 -42 -38 -44 -38 -3 0 -23 -18 -45 -40 -23 -22 -52
-43 -67 -47 -14 -3 -31 -9 -36 -14 -27 -20 -113 -21 -196 0 -46 11 -120 25
-165 31 -206 27 -311 81 -417 215 -21 28 -56 68 -77 91 -40 42 -66 86 -72 119
-1 11 -5 22 -8 25 -18 16 -38 76 -29 86 7 8 4 11 -8 10 -13 -1 -18 6 -18 26 1
14 -3 24 -7 22 -4 -2 -7 4 -8 13 -4 68 -6 81 -12 76 -5 -2 -9 3 -9 11 -2 20
-3 25 -18 61 -23 57 -55 274 -46 315 3 14 9 55 14 93 7 66 8 68 67 122 32 30
64 56 69 57 6 0 17 1 25 2 8 1 15 7 15 15 0 13 35 37 95 67 14 8 26 17 70 54
14 12 19 18 11 14 -9 -5 -12 -3 -7 5 4 6 11 9 15 7 8 -5 81 50 94 71 4 7 13
13 20 13 7 0 34 20 61 45 27 25 54 45 60 45 17 1 80 58 82 75 3 18 -17 20 -36
3 -12 -11 -12 -10 0 5 7 10 21 22 30 27 14 8 17 5 14 -15 -1 -14 0 -25 2 -25
5 0 27 18 107 87 33 28 65 51 71 50 5 -1 12 6 14 17 2 10 0 16 -6 12 -6 -3 -9
1 -8 9 3 21 16 31 16 12 0 -9 4 -17 9 -17 14 0 32 26 23 35 -4 5 -1 5 6 1 7
-4 9 -13 5 -19 -3 -7 18 10 48 38 30 27 56 53 57 57 2 5 7 6 12 3 4 -3 30 15
58 40 27 25 53 45 57 45 4 0 40 27 81 60 41 33 78 60 83 60 5 0 18 10 28 23
10 12 32 31 48 41 17 11 46 34 65 52 19 19 38 34 43 34 15 0 66 53 60 63 -3 5
1 13 8 18 23 15 34 10 13 -6 -25 -19 -11 -19 26 0 16 8 31 24 35 35 3 11 15
20 25 20 16 0 31 19 35 45 0 6 7 9 14 7 8 -2 21 0 30 4 9 4 18 8 21 8 3 1 20
16 39 33 56 52 69 62 76 55 4 -4 5 0 3 8 -1 8 2 14 7 15 18 1 105 69 105 81 0
6 11 15 24 18 13 3 41 23 63 44 22 21 46 41 54 44 23 10 163 118 153 119 -14
1 39 22 58 23 9 1 20 4 24 8 3 4 -3 6 -15 3 -11 -2 -21 -2 -21 0 0 2 24 19 53
39 28 19 63 44 77 55 29 24 48 27 30 6 -9 -10 -9 -15 -1 -15 6 0 12 5 12 10 1
6 2 16 3 22 0 7 19 22 41 33 22 11 43 25 47 31 4 7 20 15 34 18 15 4 24 10 20
13 -11 11 15 32 32 26 13 -4 12 -2 -3 11 -11 9 -15 15 -9 14 6 -2 27 9 45 24
154 123 199 158 206 158 5 0 24 14 43 31 19 17 27 26 18 19 -13 -9 -18 -9 -18
-1 0 14 59 50 129 80 42 18 79 24 180 28 167 7 410 -31 545 -85 164 -65 372
-225 442 -339 47 -76 92 -179 98 -228 28 -194 28 -185 1 -279 -15 -48 -33 -99
-42 -112 -13 -21 -13 -23 -1 -19 20 8 62 100 55 119 -4 9 -1 15 5 13 6 -1 13
15 15 38 3 22 6 42 8 44 7 7 65 -57 65 -72 0 -7 11 -19 24 -25 25 -11 64 -77
53 -89 -4 -3 -12 6 -18 21 -13 28 -35 37 -25 10 3 -9 6 -19 6 -24 0 -5 9 -11
20 -15 25 -8 63 -61 55 -75 -5 -8 -11 -7 -21 1 -7 6 -12 15 -9 19 3 5 0 12 -6
16 -7 4 -9 3 -5 -4 3 -5 0 -13 -6 -15 -10 -4 -10 -6 0 -6 8 -1 10 -6 6 -13 -4
-7 -4 -10 1 -6 4 4 14 3 22 -3 7 -6 13 -8 13 -4 0 5 9 0 20 -10 11 -10 20 -28
20 -40 0 -11 5 -26 10 -33 7 -9 7 -9 -2 -2 -22 18 -27 10 -12 -20 14 -27 28
-42 22 -22 -2 4 1 8 6 10 5 1 10 -12 11 -28 3 -30 15 -56 15 -32 0 7 4 12 9
12 23 0 41 -148 26 -207 -4 -16 -1 -23 9 -23 9 0 12 7 10 18 -3 9 -1 28 5 42
l9 25 7 -32 c4 -18 11 -30 16 -27 5 3 12 -3 15 -13 3 -10 20 -54 37 -98 18
-44 31 -83 29 -87 -1 -5 3 -8 9 -8 6 0 8 -7 5 -15 -3 -9 0 -18 8 -21 7 -3 19
-30 26 -60 7 -30 17 -57 22 -60 4 -3 8 -14 8 -25 0 -11 8 -23 18 -26 9 -4 20
-11 24 -17 50 -72 -139 404 -257 649 -43 88 -114 239 -160 335 -176 372 -207
435 -255 509 -137 214 -398 383 -655 425 -226 36 -316 41 -455 26z m-230 -135
c-7 -8 -18 -15 -24 -15 -6 0 -2 7 8 15 25 19 32 19 16 0z m-190 -130 c-7 -8
-18 -15 -24 -15 -6 0 -2 7 8 15 25 19 32 19 16 0z m-49 -39 c-1 -3 -3 -6 -6
-6 -3 0 -22 -12 -42 -26 l-38 -25 39 35 c35 32 49 39 47 22z m-63 -83 c-10
-13 -13 -13 -23 1 -7 9 -16 12 -20 8 -5 -4 -5 -2 -2 4 4 6 18 9 32 6 21 -4 23
-7 13 -19z m-62 -28 c-1 -8 -5 -17 -8 -21 -5 -4 -4 16 1 34 3 9 9 -1 7 -13z
m-52 -20 c-9 -14 -20 -23 -24 -20 -5 3 -16 -5 -24 -17 -11 -15 -16 -17 -16 -8
0 8 17 27 38 42 46 34 46 34 26 3z m-124 -100 c-18 -19 -36 -33 -38 -30 -3 3
-11 0 -19 -6 -8 -7 -13 -8 -13 -1 0 5 11 17 25 26 14 9 25 13 25 9 0 -4 7 3
16 15 8 12 20 22 27 22 6 0 -4 -16 -23 -35z m-90 -64 c-13 -24 -31 -37 -28
-19 3 11 27 37 36 38 1 0 -2 -9 -8 -19z m-63 -39 c-10 -10 -14 -22 -10 -27 5
-4 3 -5 -3 -2 -7 4 -26 -9 -43 -28 -17 -19 -37 -35 -46 -35 -8 0 -15 -4 -15
-9 0 -5 -10 -11 -21 -14 -21 -6 -21 -5 2 19 13 13 29 22 36 19 8 -2 17 5 22
16 4 12 25 34 47 49 47 34 52 36 31 12z m2153 -87 c0 -7 7 -26 14 -42 24 -45
76 -165 76 -172 0 -3 -7 3 -15 13 -8 11 -26 32 -40 48 -26 29 -43 74 -24 63 5
-4 9 -1 9 4 0 6 -5 11 -12 11 -6 0 -8 3 -5 6 3 4 3 14 -2 23 -15 29 -23 73
-11 66 5 -3 10 -12 10 -20z m-2325 -55 c-3 -5 -11 -10 -16 -10 -6 0 -7 5 -4
10 3 6 11 10 16 10 6 0 7 -4 4 -10z m-35 -25 c0 -2 -10 -10 -22 -16 -21 -11
-22 -11 -9 4 13 16 31 23 31 12z m-60 -39 c0 -2 -8 -10 -17 -17 -16 -13 -17
-12 -4 4 13 16 21 21 21 13z m-40 -36 c0 -5 -5 -10 -11 -10 -5 0 -7 5 -4 10 3
6 8 10 11 10 2 0 4 -4 4 -10z m-92 -71 c-9 -5 -15 -16 -12 -23 3 -8 1 -17 -5
-21 -7 -3 -8 0 -5 10 5 11 2 14 -12 9 -14 -4 -12 0 6 15 14 11 30 21 35 20 6
0 2 -4 -7 -10z m-75 -72 c7 3 9 2 4 -2 -4 -5 -16 -9 -27 -10 -16 -1 -17 1 -8
13 8 9 14 10 16 3 2 -6 9 -8 15 -4z m-143 -91 c0 -2 -8 -10 -17 -17 -16 -13
-17 -12 -4 4 13 16 21 21 21 13z m-1024 -804 c-3 -5 -16 -12 -28 -15 -22 -6
-22 -6 2 13 25 19 37 20 26 2z m-57 -35 c-2 -1 -13 -9 -24 -17 -19 -14 -19
-14 -6 3 7 9 18 17 24 17 6 0 8 -1 6 -3z m-124 -97 c-10 -11 -21 -18 -23 -15
-3 3 3 12 14 20 27 20 30 18 9 -5z m-30 -48 c-3 -3 -11 0 -18 7 -9 10 -8 11 6
5 10 -3 15 -9 12 -12z m-108 -67 c0 -8 -4 -15 -9 -15 -10 0 -11 14 -1 23 9 10
10 9 10 -8z m-47 -29 c0 -3 -13 -14 -30 -26 -16 -12 -30 -18 -30 -13 0 5 12
16 28 25 30 19 32 20 32 14z m-180 -161 c-7 -9 -15 -13 -17 -11 -7 7 7 26 19
26 6 0 6 -6 -2 -15z m564 -1320 c20 -8 36 -19 36 -24 0 -5 7 -12 16 -15 13 -5
14 -3 6 7 -6 7 -7 18 -2 26 6 11 11 9 21 -8 8 -11 18 -21 23 -21 4 0 3 7 -4
15 -12 15 0 22 14 8 4 -4 19 -8 34 -8 58 -2 100 -17 112 -41 10 -17 19 -22 35
-18 16 4 26 -1 38 -20 10 -14 17 -32 17 -39 0 -17 34 -49 43 -40 4 3 7 1 7 -6
0 -7 4 -10 9 -7 5 3 11 -1 15 -9 3 -10 -1 -15 -12 -16 -12 0 -11 -3 6 -10 13
-5 20 -13 17 -19 -4 -6 -3 -10 2 -9 15 4 43 -13 43 -25 0 -6 9 -17 20 -24 11
-7 20 -17 20 -24 0 -6 16 -26 35 -45 19 -19 35 -38 35 -43 0 -6 4 -10 8 -10 8
0 34 -61 29 -67 -7 -6 -117 30 -117 39 0 5 -5 6 -10 3 -17 -10 -176 55 -199
81 -12 13 -21 28 -21 32 0 8 -60 36 -73 33 -5 -1 -6 3 -2 9 7 11 -12 50 -23
49 -20 -3 -32 3 -32 16 0 8 -5 15 -11 15 -5 0 -8 4 -4 9 3 5 -6 18 -20 29 -14
11 -25 25 -25 32 0 6 -4 8 -10 5 -5 -3 -10 -2 -10 4 0 5 -9 13 -20 16 -11 4
-18 10 -16 14 7 11 -6 25 -37 39 -20 8 -27 17 -23 28 3 8 1 24 -4 35 -13 23
-12 23 34 4z m291 -55 c3 -5 2 -10 -4 -10 -5 0 -13 5 -16 10 -3 6 -2 10 4 10
5 0 13 -4 16 -10z m88 -94 c4 -10 1 -13 -8 -9 -8 3 -12 9 -9 14 7 12 11 11 17
-5z m14 -348 c33 -15 57 -38 66 -63 4 -10 10 -15 13 -12 3 3 1 15 -6 26 -11
21 3 31 15 11 3 -5 18 -10 33 -10 22 0 24 -2 12 -10 -11 -8 -8 -9 13 -4 20 5
34 1 49 -12 12 -11 18 -13 14 -6 -11 19 9 14 29 -8 22 -24 43 -27 24 -3 -13
15 -11 16 15 9 43 -11 83 -42 90 -70 3 -13 15 -26 26 -29 14 -3 20 -13 20 -31
0 -14 3 -26 8 -27 4 0 17 -2 29 -3 24 -3 44 -16 25 -16 -7 0 -12 -5 -12 -11 0
-6 7 -8 16 -5 8 3 12 2 9 -4 -3 -6 1 -10 9 -10 9 0 16 -3 16 -7 0 -5 13 -17
29 -28 16 -10 27 -23 25 -27 -3 -4 0 -16 5 -25 6 -10 11 -14 11 -8 0 12 80
-66 80 -78 0 -5 -7 -4 -15 3 -8 7 -21 10 -29 7 -8 -3 -20 1 -27 9 -7 8 -20 19
-30 25 -15 8 -17 6 -12 -7 5 -13 2 -15 -18 -9 -13 4 -26 12 -27 16 -2 5 -9 6
-15 2 -6 -4 -8 0 -4 10 5 14 2 16 -18 11 -16 -4 -25 -2 -25 6 0 6 -5 8 -11 5
-6 -4 -16 0 -22 9 -7 9 -25 18 -41 20 -18 2 -33 12 -41 26 -8 16 -14 19 -17 9
-3 -9 -20 3 -50 35 -26 26 -51 45 -57 42 -5 -4 -13 -1 -17 5 -5 8 -3 9 6 4 8
-5 11 -3 8 6 -3 8 -14 15 -26 17 -12 2 -22 8 -22 13 0 5 -8 10 -17 10 -17 1
-17 2 -1 6 15 4 12 10 -16 39 -32 33 -65 47 -50 22 5 -8 1 -7 -10 2 -11 8 -14
16 -7 18 6 2 -2 17 -19 33 -16 17 -29 36 -27 42 1 7 -7 12 -17 12 -11 0 -21 6
-24 13 -5 15 0 15 35 0z m453 -218 c0 -5 -7 -7 -15 -4 -8 4 -15 8 -15 10 0 2
7 4 15 4 8 0 15 -4 15 -10z m151 -147 c13 -16 12 -17 -3 -4 -10 7 -18 15 -18
17 0 8 8 3 21 -13z"/>
<path d="M737 919 c4 -13 8 -18 11 -10 2 7 -1 18 -6 23 -8 8 -9 4 -5 -13z"/>
<path d="M878 813 c7 -3 16 -2 19 1 4 3 -2 6 -13 5 -11 0 -14 -3 -6 -6z"/>
<path d="M960 809 c0 -5 5 -7 10 -4 6 3 10 8 10 11 0 2 -4 4 -10 4 -5 0 -10
-5 -10 -11z"/>
<path d="M918 773 c6 -2 18 -2 25 0 6 3 1 5 -13 5 -14 0 -19 -2 -12 -5z"/>
<path d="M965 749 c7 -11 44 -18 50 -9 3 4 -8 10 -25 12 -16 2 -27 1 -25 -3z"/>
<path d="M1356 387 c7 -19 42 -42 51 -33 3 3 -3 9 -13 13 -10 4 -25 14 -32 22
-11 14 -11 14 -6 -2z"/>
<path d="M1200 380 c0 -5 5 -10 11 -10 5 0 7 5 4 10 -3 6 -8 10 -11 10 -2 0
-4 -4 -4 -10z"/>
<path d="M1330 350 c8 -5 20 -10 25 -10 6 0 3 5 -5 10 -8 5 -19 10 -25 10 -5
0 -3 -5 5 -10z"/>
<path d="M1410 291 c0 -5 7 -12 16 -15 14 -5 15 -4 4 9 -14 17 -20 19 -20 6z"/>
<path d="M1470 201 c0 -5 5 -13 10 -16 6 -3 10 -2 10 4 0 5 -4 13 -10 16 -5 3
-10 2 -10 -4z"/>
<path d="M1580 161 c0 -6 5 -13 10 -16 6 -3 10 1 10 9 0 9 -4 16 -10 16 -5 0
-10 -4 -10 -9z"/>
<path d="M1570 121 c0 -5 7 -11 15 -15 8 -3 15 -1 15 3 0 5 -7 11 -15 15 -8 3
-15 1 -15 -3z"/>
<path d="M3500 4600 c-8 -5 -12 -12 -9 -15 4 -3 12 1 19 10 14 17 11 19 -10 5z"/>
<path d="M3548 4593 c7 -3 16 -2 19 1 4 3 -2 6 -13 5 -11 0 -14 -3 -6 -6z"/>
<path d="M3334 4568 c-11 -17 6 -22 22 -7 13 14 13 16 -1 16 -9 0 -18 -4 -21
-9z"/>
<path d="M3261 4547 c-6 -6 -11 -8 -11 -4 0 4 -14 0 -31 -8 -17 -9 -37 -14
-45 -11 -7 3 -16 1 -19 -4 -8 -14 28 -12 62 2 15 6 42 13 58 15 38 6 54 21 22
21 -14 0 -30 -5 -36 -11z"/>
<path d="M3466 4543 c-2 -2 -16 -5 -32 -7 -16 -2 -47 -8 -69 -12 -22 -4 -44
-9 -50 -9 -5 -1 -12 -3 -15 -4 -3 -2 -13 -4 -23 -6 -18 -3 -105 -31 -142 -45
-144 -56 -196 -79 -287 -130 -293 -162 -563 -426 -668 -653 -108 -232 -69
-442 99 -541 72 -42 172 -74 224 -72 20 0 37 -3 37 -8 0 -21 303 10 425 44
141 40 364 139 488 218 115 72 307 223 384 301 40 40 73 77 73 80 0 4 16 25
35 47 19 21 35 45 35 52 0 6 5 12 10 12 6 0 10 6 10 14 0 7 10 24 23 38 12 13
24 33 25 44 2 10 12 35 23 56 10 20 19 42 19 47 0 5 5 22 11 38 42 109 -1 300
-86 383 -57 55 -73 44 -17 -13 71 -72 95 -131 96 -232 1 -174 -101 -369 -291
-560 -109 -109 -187 -172 -332 -265 -264 -169 -542 -269 -796 -286 -246 -16
-460 77 -515 224 -23 62 -29 182 -11 237 56 179 148 323 305 478 60 60 125
120 145 133 20 13 74 51 121 84 193 137 517 268 727 295 29 4 55 11 58 15 5 8
-32 10 -39 3z"/>
<path d="M3089 4491 c-24 -20 -24 -20 -2 -14 12 3 28 11 34 19 17 21 -5 17
-32 -5z"/>
<path d="M3640 4488 c0 -12 68 -9 75 2 4 7 -8 10 -34 8 -23 -2 -41 -6 -41 -10z"/>
<path d="M3734 4478 c-5 -8 -2 -9 10 -5 10 4 24 1 32 -8 8 -8 22 -11 31 -8 11
4 14 3 9 -5 -7 -12 11 -17 43 -13 7 2 10 -2 7 -7 -3 -5 2 -12 12 -16 49 -17
79 -46 109 -107 18 -35 32 -72 32 -81 1 -20 21 -35 21 -16 0 20 -27 103 -43
134 -23 46 -90 92 -169 119 -84 29 -85 29 -94 13z"/>
<path d="M3040 4460 c-9 -6 -10 -10 -3 -10 6 0 15 5 18 10 8 12 4 12 -15 0z"/>
<path d="M2965 4420 c-3 -6 1 -7 9 -4 18 7 21 14 7 14 -6 0 -13 -4 -16 -10z"/>
<path d="M3837 4379 c7 -7 15 -10 18 -7 3 3 -2 9 -12 12 -14 6 -15 5 -6 -5z"/>
<path d="M3920 4360 c0 -5 5 -10 10 -10 6 0 10 5 10 10 0 6 -4 10 -10 10 -5 0
-10 -4 -10 -10z"/>
<path d="M3924 4295 c5 -11 12 -37 17 -57 5 -21 23 -64 40 -97 l31 -59 -36
-74 c-20 -41 -36 -83 -36 -92 0 -74 79 104 86 194 5 60 3 69 -28 119 -35 57
-90 106 -74 66z"/>
<path d="M2758 4232 c-29 -17 -37 -32 -15 -28 21 3 57 26 57 36 0 14 -11 12
-42 -8z"/>
<path d="M4061 4194 c0 -11 3 -14 6 -6 3 7 2 16 -1 19 -3 4 -6 -2 -5 -13z"/>
<path d="M3862 4187 c-11 -15 -42 -94 -42 -107 0 -6 6 -10 14 -10 10 0 15 -19
18 -72 5 -70 14 -103 40 -141 11 -15 9 -21 -12 -37 -13 -10 -29 -16 -34 -13
-5 4 -7 0 -4 -9 4 -8 -2 -20 -13 -26 -16 -10 -19 -9 -19 4 0 8 5 12 10 9 6 -3
10 -2 10 3 0 6 -8 13 -17 16 -17 7 -55 -27 -61 -54 -2 -8 -12 -24 -23 -35 -31
-32 -89 -113 -89 -124 0 -6 -3 -11 -8 -11 -4 0 -26 -17 -48 -39 -22 -21 -55
-46 -72 -57 -18 -10 -32 -23 -32 -30 0 -6 -21 -22 -46 -35 -26 -13 -48 -29
-51 -36 -3 -7 -9 -10 -14 -7 -5 3 -9 1 -9 -5 0 -6 -21 -31 -47 -56 l-48 -46
85 47 c113 62 167 100 175 123 3 10 16 23 29 29 13 6 40 25 60 42 20 18 36 28
36 24 0 -4 7 1 16 12 8 10 12 13 8 5 -5 -10 -3 -12 5 -7 7 5 10 11 7 14 -4 3
29 42 71 87 92 96 131 144 163 202 23 41 23 43 6 62 -29 32 -31 100 -7 173 12
36 19 72 15 81 -8 22 -60 39 -72 24z m43 -59 c-8 -48 -23 -83 -32 -74 -9 9 19
116 29 116 6 0 7 -18 3 -42z m-96 -372 c9 -10 4 -20 -21 -45 -17 -17 -35 -31
-39 -31 -4 0 -10 -10 -13 -22 -6 -22 -7 -22 -17 -5 -8 14 -7 23 6 37 10 11 22
17 26 14 5 -3 9 5 9 18 0 23 16 48 31 48 4 0 12 -6 18 -14z"/>
<path d="M3729 3683 c-13 -16 -12 -17 4 -4 16 13 21 21 13 21 -2 0 -10 -8 -17
-17z"/>
<path d="M3040 4160 c0 -6 7 -10 15 -10 8 0 15 2 15 4 0 2 -7 6 -15 10 -8 3
-15 1 -15 -4z"/>
<path d="M3781 4120 c-37 -51 -46 -79 -32 -93 17 -17 13 -29 -8 -22 -18 5 -19
2 -15 -42 10 -112 22 -129 93 -125 28 2 51 8 51 14 0 6 -7 8 -15 5 -8 -4 -17
-2 -19 2 -3 5 -16 6 -28 4 -28 -5 -48 24 -55 80 -4 34 -2 39 12 33 9 -3 18 -6
20 -6 2 0 1 -8 -2 -19 -3 -10 1 -22 8 -26 8 -6 10 -4 4 5 -6 9 -4 11 4 6 7 -5
10 -14 7 -21 -5 -14 27 -49 36 -39 10 9 -12 62 -28 68 -8 3 -14 12 -14 21 0 8
-4 15 -9 15 -16 0 -21 73 -6 90 8 9 15 25 15 36 0 11 5 25 12 32 6 6 9 14 6
18 -4 3 -20 -13 -37 -36z"/>
<path d="M2985 4141 c-3 -6 3 -9 14 -8 11 0 17 5 15 9 -7 11 -22 10 -29 -1z"/>
<path d="M2464 4098 l-29 -33 33 29 c30 28 37 36 29 36 -2 0 -16 -15 -33 -32z"/>
<path d="M2835 4111 c-6 -20 23 -80 167 -334 21 -38 38 -71 38 -74 0 -2 12
-25 26 -49 18 -31 30 -42 37 -35 14 14 -21 93 -37 84 -8 -4 -8 -2 0 6 9 10 2
28 -27 74 -22 34 -42 70 -45 80 -4 9 -10 17 -15 17 -5 0 -9 9 -9 19 0 10 -7
21 -15 25 -8 3 -15 12 -15 19 0 15 -59 133 -84 169 -14 20 -14 20 -21 -1z"/>
<path d="M3270 4010 c0 -5 6 -10 14 -10 8 0 18 5 21 10 3 6 -3 10 -14 10 -12
0 -21 -4 -21 -10z"/>
<path d="M2260 3893 c-19 -25 -42 -54 -52 -64 -9 -9 -14 -20 -11 -22 2 -3 -5
-8 -16 -12 -12 -3 -19 -11 -15 -16 3 -6 -4 -18 -15 -28 -26 -22 -27 -31 -3
-32 13 0 12 -2 -5 -9 -14 -6 -21 -15 -17 -23 3 -8 -2 -17 -11 -20 -9 -4 -15
-17 -14 -34 1 -16 -8 -51 -20 -80 -11 -29 -17 -55 -12 -58 5 -3 8 -16 6 -30
-1 -14 2 -25 6 -25 5 0 9 24 9 53 0 31 6 61 16 75 8 12 13 26 10 30 -3 5 2 21
10 36 7 16 14 34 14 41 0 7 7 18 15 25 8 7 15 20 15 30 0 10 7 23 15 30 8 7
13 16 10 20 -2 4 4 15 14 24 23 21 95 125 90 130 -2 2 -20 -17 -39 -41z"/>
<path d="M2645 3849 c-4 -6 -5 -12 -2 -15 2 -3 7 2 10 11 7 17 1 20 -8 4z"/>
<path d="M2586 3832 c-2 -4 4 -8 14 -8 10 0 16 4 14 8 -3 4 -9 8 -14 8 -5 0
-11 -4 -14 -8z"/>
<path d="M2665 3810 c-3 -5 1 -10 9 -10 10 0 13 -6 10 -17 -5 -14 -4 -15 4 -4
11 15 5 41 -8 41 -5 0 -12 -4 -15 -10z"/>
<path d="M2394 3746 c-3 -8 -4 -23 -2 -33 3 -11 6 -6 9 15 6 34 2 42 -7 18z"/>
<path d="M2470 3739 c0 -5 5 -7 10 -4 6 3 10 8 10 11 0 2 -4 4 -10 4 -5 0 -10
-5 -10 -11z"/>
<path d="M2725 3720 c-6 -9 -4 -11 4 -6 8 5 11 2 9 -9 -2 -10 3 -20 10 -22 16
-6 15 9 -1 32 -11 14 -16 15 -22 5z"/>
<path d="M4510 3700 c0 -5 5 -10 11 -10 5 0 7 5 4 10 -3 6 -8 10 -11 10 -2 0
-4 -4 -4 -10z"/>
<path d="M3305 3689 c-10 -15 3 -25 16 -12 7 7 7 13 1 17 -6 3 -14 1 -17 -5z"/>
<path d="M2255 3650 c-3 -5 -1 -10 4 -10 6 0 11 5 11 10 0 6 -2 10 -4 10 -3 0
-8 -4 -11 -10z"/>
<path d="M3455 3640 c-3 -5 -1 -10 4 -10 6 0 11 5 11 10 0 6 -2 10 -4 10 -3 0
-8 -4 -11 -10z"/>
<path d="M3104 3606 c-9 -24 12 -44 28 -28 10 10 8 16 -5 29 -15 15 -17 15
-23 -1z"/>
<path d="M3408 3602 c-16 -10 -28 -20 -28 -23 0 -13 27 -4 50 18 28 26 18 29
-22 5z"/>
<path d="M4312 3560 c-18 -29 -15 -33 12 -13 13 10 22 21 19 26 -7 12 -18 8
-31 -13z"/>
<path d="M2846 3531 c-4 -5 -2 -12 3 -15 5 -4 12 -2 15 3 4 5 2 12 -3 15 -5 4
-12 2 -15 -3z"/>
<path d="M3157 3514 c-3 -4 1 -21 10 -38 10 -18 18 -26 21 -18 2 7 -3 21 -12
31 -9 10 -13 21 -9 24 3 4 4 7 1 7 -2 0 -7 -3 -11 -6z"/>
<path d="M4270 3505 c-14 -16 -10 -18 14 -9 9 3 16 10 16 15 0 14 -16 11 -30
-6z"/>
<path d="M4620 3485 c7 -9 15 -13 17 -11 7 7 -7 26 -19 26 -6 0 -6 -6 2 -15z"/>
<path d="M4232 3468 c-16 -16 -15 -25 3 -25 8 0 15 9 15 19 0 21 -2 22 -18 6z"/>
<path d="M2496 3452 c-3 -6 -1 -14 5 -17 15 -10 25 3 12 16 -7 7 -13 7 -17 1z"/>
<path d="M2910 3450 c0 -5 5 -10 10 -10 6 0 10 5 10 10 0 6 -4 10 -10 10 -5 0
-10 -4 -10 -10z"/>
<path d="M3253 3452 c-13 -2 -23 -7 -23 -12 0 -4 -12 -11 -26 -14 -36 -9 -74
-36 -74 -51 0 -7 -7 -15 -15 -19 -17 -6 -21 -76 -5 -76 6 0 10 15 10 34 0 26
8 41 36 66 23 20 44 30 55 27 11 -3 17 -1 14 4 -7 11 33 21 65 16 14 -2 26
-11 28 -20 3 -13 -4 -17 -31 -17 -32 0 -134 -56 -123 -67 3 -3 17 4 33 14 31
22 94 46 101 38 3 -2 -2 -15 -11 -29 -13 -19 -28 -25 -77 -31 -44 -5 -63 -12
-71 -26 -8 -16 -6 -19 12 -19 100 0 219 109 181 166 -8 13 -48 21 -79 16z"/>
<path d="M3539 3443 c-13 -16 -12 -17 4 -4 16 13 21 21 13 21 -2 0 -10 -8 -17
-17z"/>
<path d="M2460 3438 c0 -10 5 -18 11 -18 5 0 7 -4 4 -10 -3 -5 -1 -10 5 -10 6
0 8 -5 4 -12 -4 -7 -3 -8 4 -4 12 7 9 18 -18 56 -8 13 -10 13 -10 -2z"/>
<path d="M4188 3433 c-1 -5 -21 -20 -43 -35 -22 -15 -64 -50 -93 -78 -29 -27
-55 -49 -58 -48 -3 0 -19 -9 -35 -21 -24 -18 -28 -25 -19 -41 6 -11 16 -20 23
-20 8 0 8 3 -2 9 -21 13 -5 45 31 60 18 8 38 13 43 11 5 -1 7 1 4 5 -8 8 24
41 81 83 24 18 40 32 34 32 -5 1 6 7 24 15 17 8 32 19 32 25 0 12 -17 14 -22
3z"/>
<path d="M2072 3405 c0 -16 2 -22 5 -12 2 9 2 23 0 30 -3 6 -5 -1 -5 -18z"/>
<path d="M2620 3360 c0 -5 5 -10 10 -10 6 0 10 5 10 10 0 6 -4 10 -10 10 -5 0
-10 -4 -10 -10z"/>
<path d="M2213 3325 c0 -8 4 -15 9 -15 4 0 8 4 8 9 0 6 -4 12 -8 15 -5 3 -9
-1 -9 -9z"/>
<path d="M3130 3241 c-34 -20 -212 -72 -315 -92 -89 -17 -132 -20 -225 -16
-130 6 -200 25 -274 75 -38 26 -47 29 -44 15 2 -10 10 -17 16 -15 7 1 15 -5
18 -13 3 -8 10 -12 15 -9 5 3 9 0 9 -6 0 -6 5 -8 10 -5 6 3 10 1 10 -5 0 -6 5
-8 10 -5 6 3 10 2 10 -4 0 -6 19 -16 43 -22 23 -7 49 -14 57 -17 40 -11 240
-13 313 -2 88 12 228 45 255 60 9 5 50 21 90 36 39 15 72 29 72 31 0 7 -56 2
-70 -6z"/>
<path d="M4703 3197 c-2 -30 -2 -31 8 -8 5 14 6 28 1 33 -4 4 -9 -7 -9 -25z"/>
<path d="M3853 3165 c-24 -25 -50 -45 -57 -45 -6 0 -18 -9 -26 -20 -8 -11 -20
-20 -27 -20 -6 0 -18 -9 -26 -21 -8 -11 -23 -22 -33 -24 -11 -2 -21 -4 -24 -5
-3 0 3 -5 13 -11 14 -8 23 -4 47 20 17 16 39 33 50 36 11 4 20 11 20 17 0 5 7
8 15 4 8 -3 14 -2 12 3 -2 9 63 70 78 72 5 1 15 0 20 -1 6 -1 7 2 3 6 -4 4 -3
13 3 21 9 10 8 13 -6 13 -9 0 -37 -20 -62 -45z"/>
<path d="M3775 3190 c-3 -5 -1 -10 4 -10 6 0 11 5 11 10 0 6 -2 10 -4 10 -3 0
-8 -4 -11 -10z"/>
<path d="M3695 3130 c-3 -5 -2 -10 4 -10 5 0 13 5 16 10 3 6 2 10 -4 10 -5 0
-13 -4 -16 -10z"/>
<path d="M4721 3104 c0 -11 3 -14 6 -6 3 7 2 16 -1 19 -3 4 -6 -2 -5 -13z"/>
<path d="M3570 3028 c0 -19 2 -20 10 -8 13 19 13 30 0 30 -5 0 -10 -10 -10
-22z"/>
<path d="M3530 3010 c0 -5 5 -10 11 -10 5 0 7 5 4 10 -3 6 -8 10 -11 10 -2 0
-4 -4 -4 -10z"/>
<path d="M1732 2970 c0 -14 2 -19 5 -12 2 6 2 18 0 25 -3 6 -5 1 -5 -13z"/>
<path d="M3593 2966 c-18 -12 -32 -26 -33 -32 0 -7 -15 -19 -32 -27 -18 -9
-50 -32 -72 -51 -21 -20 -42 -36 -47 -36 -9 0 -51 -51 -46 -57 2 -2 15 1 28 6
13 5 20 10 15 10 -14 1 61 71 77 71 7 0 23 9 34 19 12 11 24 17 29 13 4 -4 4
-1 0 6 -5 8 4 18 23 30 17 9 31 20 31 25 0 4 11 12 25 17 26 10 34 27 13 26
-7 0 -27 -9 -45 -20z"/>
<path d="M3442 2935 c-6 -14 -8 -25 -3 -25 8 0 23 41 17 47 -1 2 -8 -8 -14
-22z"/>
<path d="M3378 2887 c-16 -6 -28 -14 -28 -19 0 -11 2 -10 38 8 49 24 42 32
-10 11z"/>
<path d="M4450 2860 c0 -5 5 -10 10 -10 6 0 10 5 10 10 0 6 -4 10 -10 10 -5 0
-10 -4 -10 -10z"/>
<path d="M4486 2812 c-2 -4 -1 -14 3 -21 6 -10 10 -9 14 3 6 16 -8 32 -17 18z"/>
<path d="M4385 2800 c3 -5 8 -10 11 -10 2 0 4 5 4 10 0 6 -5 10 -11 10 -5 0
-7 -4 -4 -10z"/>
<path d="M3273 2785 c0 -8 4 -12 9 -9 4 3 8 9 8 15 0 5 -4 9 -8 9 -5 0 -9 -7
-9 -15z"/>
<path d="M4363 2785 c0 -8 4 -12 9 -9 5 3 6 10 3 15 -9 13 -12 11 -12 -6z"/>
<path d="M3330 2755 c0 -8 -7 -15 -15 -15 -9 0 -18 -7 -22 -16 -3 -9 -8 -11
-12 -6 -3 6 -19 0 -36 -14 -17 -14 -22 -22 -12 -18 30 11 19 -2 -39 -45 -30
-23 -52 -36 -49 -30 8 12 -16 1 -49 -24 -19 -14 -19 -15 2 -21 24 -8 45 0 37
15 -4 5 -2 9 4 9 5 0 13 -5 16 -10 4 -6 11 -8 16 -4 5 3 7 9 4 13 -7 13 43 54
67 56 17 1 23 8 23 25 0 15 7 24 19 26 10 1 29 12 42 25 13 12 30 19 38 16 24
-9 19 -1 -9 17 -22 14 -25 15 -25 1z"/>
<path d="M3216 2752 c-3 -5 1 -9 9 -9 8 0 15 4 15 9 0 4 -4 8 -9 8 -6 0 -12
-4 -15 -8z"/>
<path d="M4960 2721 c0 -6 4 -13 10 -16 6 -3 7 1 4 9 -7 18 -14 21 -14 7z"/>
<path d="M3166 2705 c-30 -23 -14 -27 19 -5 17 11 23 20 15 20 -8 -1 -24 -7
-34 -15z"/>
<path d="M3120 2679 c0 -5 5 -7 10 -4 6 3 10 8 10 11 0 2 -4 4 -10 4 -5 0 -10
-5 -10 -11z"/>
<path d="M3197 2673 c-4 -3 -7 -11 -7 -17 0 -6 5 -5 12 2 6 6 9 14 7 17 -3 3
-9 2 -12 -2z"/>
<path d="M4991 2663 c0 -13 -5 -23 -10 -23 -5 0 -12 -19 -16 -41 -6 -33 -18
-52 -56 -87 -33 -30 -48 -51 -44 -62 6 -19 -28 -48 -335 -293 -113 -89 -265
-212 -339 -272 -74 -61 -173 -141 -220 -179 -197 -159 -379 -319 -375 -330 9
-22 130 -65 216 -77 161 -22 363 5 456 63 20 12 83 60 140 106 l104 84 22 -21
23 -22 54 36 c29 19 56 35 60 35 3 0 11 12 18 26 10 22 9 31 -5 51 -13 21 -14
27 -3 34 8 4 60 43 116 86 112 86 122 100 153 228 35 144 29 184 -61 401 -12
31 -11 34 33 85 46 54 84 143 75 176 -4 14 -5 13 -6 -4z m-103 -324 c12 -28
20 -55 17 -59 -3 -5 -1 -11 5 -15 5 -3 10 -17 10 -30 0 -13 6 -26 13 -28 9 -4
8 -8 -3 -16 -13 -10 -13 -13 3 -25 20 -16 24 -71 4 -63 -10 4 -15 -6 -16 -31
-1 -21 -3 -42 -3 -49 -1 -7 -6 -9 -11 -6 -6 4 -8 -5 -5 -21 4 -19 0 -31 -13
-40 -10 -7 -16 -16 -12 -19 3 -4 12 -2 20 5 12 9 13 6 9 -16 -3 -16 -12 -38
-20 -51 -15 -23 -146 -130 -146 -119 0 4 -7 1 -15 -6 -8 -7 -22 -10 -30 -6 -9
3 -13 2 -10 -3 3 -5 -4 -16 -16 -24 -20 -15 -20 -16 -3 -53 17 -36 17 -37 -5
-55 -13 -11 -29 -19 -36 -19 -6 0 -24 -11 -39 -25 -23 -21 -56 -25 -56 -6 0 3
-31 60 -69 126 -37 66 -77 136 -87 155 -10 19 -22 37 -26 38 -23 11 -1 44 60
87 37 28 98 79 136 115 42 40 75 64 87 63 20 -3 26 12 9 22 -6 4 -40 -20 -76
-52 -64 -56 -260 -213 -268 -213 -2 0 -42 -22 -90 -50 -48 -27 -89 -50 -92
-50 -3 0 90 78 208 173 310 250 293 238 306 225 9 -9 12 -7 12 9 0 22 22 43
115 108 32 22 67 48 79 57 11 10 23 17 26 18 3 0 15 -23 28 -51z m-535 -537
c25 -42 53 -93 64 -112 11 -19 34 -57 51 -85 27 -43 29 -50 14 -54 -9 -2 -29
-12 -44 -22 -14 -11 -29 -19 -32 -19 -4 0 -21 -16 -38 -36 -41 -47 -87 -71
-100 -52 -6 10 -8 8 -6 -6 4 -25 -40 -50 -59 -35 -7 6 -12 14 -11 17 2 16 -3
23 -12 17 -7 -4 -6 -13 1 -26 12 -23 10 -28 -17 -34 -11 -2 -36 -10 -56 -19
-44 -19 -72 -21 -62 -5 4 8 -1 9 -16 4 -27 -9 -161 -13 -174 -6 -5 2 -24 5
-42 6 -18 0 -40 8 -50 16 -11 8 -15 9 -10 2 4 -7 2 -13 -4 -13 -6 0 -13 7 -17
16 -3 10 -8 12 -12 5 -11 -17 -48 -1 -60 25 -6 13 -7 24 -3 24 8 0 43 30 231
201 140 127 141 127 266 193 61 32 116 64 124 72 8 7 18 11 22 8 4 -2 27 -39
52 -82z"/>
<path d="M4750 2202 c0 -11 4 -23 8 -26 10 -6 9 30 -1 40 -4 4 -7 -2 -7 -14z"/>
<path d="M4810 2060 c0 -5 5 -10 11 -10 5 0 7 5 4 10 -3 6 -8 10 -11 10 -2 0
-4 -4 -4 -10z"/>
<path d="M4865 1980 c3 -5 8 -10 11 -10 2 0 4 5 4 10 0 6 -5 10 -11 10 -5 0
-7 -4 -4 -10z"/>
<path d="M4763 1803 c4 -3 1 -13 -6 -22 -11 -14 -10 -14 5 -2 16 12 16 31 1
31 -4 0 -3 -3 0 -7z"/>
<path d="M4620 1749 c0 -5 5 -7 10 -4 6 3 10 8 10 11 0 2 -4 4 -10 4 -5 0 -10
-5 -10 -11z"/>
<path d="M4316 1762 c-2 -4 -1 -14 3 -21 6 -9 11 -10 15 -2 4 6 2 11 -4 11 -6
0 -8 5 -5 10 3 6 4 10 1 10 -3 0 -7 -4 -10 -8z"/>
<path d="M4030 1656 c0 -3 9 -10 20 -16 11 -6 20 -8 20 -6 0 3 -9 10 -20 16
-11 6 -20 8 -20 6z"/>
<path d="M4075 1590 c10 -11 20 -18 23 -15 7 6 -18 35 -31 35 -5 0 -2 -9 8
-20z"/>
<path d="M4102 1540 c13 -20 28 -27 28 -12 0 10 -22 32 -32 32 -5 0 -3 -9 4
-20z"/>
<path d="M4134 1465 c11 -8 25 -15 30 -15 6 0 2 7 -8 15 -11 8 -25 15 -30 15
-6 0 -2 -7 8 -15z"/>
<path d="M3104 2662 c3 -6 -5 -14 -19 -19 -16 -5 -22 -12 -17 -21 6 -9 14 -6
31 12 17 18 19 26 10 31 -7 5 -10 4 -5 -3z"/>
<path d="M4136 2594 c-5 -14 -4 -15 9 -4 17 14 19 20 6 20 -5 0 -12 -7 -15
-16z"/>
<path d="M3016 2585 c-3 -8 -10 -14 -15 -13 -5 2 -9 0 -10 -4 -1 -5 1 -8 4 -8
3 0 9 0 15 0 5 0 14 9 20 20 6 11 7 20 1 20 -5 0 -11 -7 -15 -15z"/>
<path d="M3075 2551 c-3 -6 -10 -9 -15 -6 -5 3 -34 -14 -63 -37 -30 -24 -86
-67 -125 -97 -39 -30 -69 -58 -66 -62 2 -4 -6 -11 -18 -14 -20 -7 -348 -263
-348 -272 0 -3 7 -2 16 1 8 3 12 2 9 -4 -3 -6 4 -10 15 -10 17 0 21 4 16 17
-4 10 -4 15 -1 11 3 -3 18 5 32 18 14 13 32 24 38 24 7 0 16 7 19 16 5 12 1
14 -17 9 -22 -7 -22 -7 -2 9 25 20 35 20 35 1 0 -13 2 -14 14 -3 12 11 11 14
-3 20 -11 5 -8 7 11 7 26 1 94 51 69 51 -7 0 -9 5 -6 10 4 6 11 8 16 5 5 -4
22 3 38 14 15 11 31 18 35 14 3 -3 6 1 6 10 0 9 10 22 23 28 24 13 53 49 49
62 -1 5 2 6 8 2 17 -10 50 14 44 33 -5 14 -4 14 4 3 9 -12 13 -12 26 -2 9 8
16 20 16 29 0 8 3 12 7 9 3 -4 14 0 24 9 10 9 25 14 33 11 14 -6 16 9 3 30 -4
6 -2 15 4 19 8 4 9 3 5 -4 -5 -8 1 -11 16 -9 12 1 29 13 36 26 12 24 10 42 -3
22z m-415 -341 c0 -5 -5 -10 -11 -10 -5 0 -7 5 -4 10 3 6 8 10 11 10 2 0 4 -4
4 -10z"/>
<path d="M2930 2540 c0 -4 9 -10 20 -13 11 -3 20 -2 20 3 0 4 -9 10 -20 13
-11 3 -20 2 -20 -3z"/>
<path d="M4054 2539 c-8 -14 14 -19 25 -6 8 10 7 14 -5 14 -8 0 -17 -4 -20 -8z"/>
<path d="M830 2490 c-13 -8 -12 -10 3 -10 9 0 17 5 17 10 0 12 -1 12 -20 0z"/>
<path d="M2870 2475 c0 -16 16 -20 24 -6 3 5 -1 11 -9 15 -9 3 -15 0 -15 -9z"/>
<path d="M2825 2440 c-6 -18 -39 -44 -58 -45 -4 0 -11 -5 -15 -11 -4 -6 -20
-18 -37 -27 l-30 -16 33 1 c22 1 38 8 45 20 7 10 34 33 60 50 35 22 45 33 35
39 -20 13 -26 11 -33 -11z"/>
<path d="M3935 2429 c-10 -15 3 -25 16 -12 7 7 7 13 1 17 -6 3 -14 1 -17 -5z"/>
<path d="M3880 2397 c0 -2 6 -10 14 -16 11 -9 16 -9 22 1 4 7 4 10 -1 6 -4 -4
-14 -3 -22 3 -7 6 -13 9 -13 6z"/>
<path d="M3840 2355 c-16 -20 8 -31 27 -13 13 14 13 16 0 21 -9 3 -21 0 -27
-8z"/>
<path d="M885 2329 c-19 -17 -35 -38 -35 -46 0 -13 48 -79 118 -162 28 -32 30
-33 65 -22 38 13 87 62 87 88 0 9 -15 33 -32 53 -18 21 -41 50 -51 65 -11 14
-21 25 -23 23 -7 -7 35 -81 62 -109 14 -15 23 -32 19 -38 -3 -6 -10 -9 -15 -6
-4 3 -10 -4 -13 -14 -2 -10 -18 -25 -36 -34 l-31 -15 -37 44 -36 45 22 17 c13
9 35 27 49 39 l27 22 -40 40 c-21 23 -45 41 -52 41 -7 0 -28 -14 -48 -31z m73
-22 c5 -24 -27 -59 -46 -52 -11 4 -13 0 -9 -15 4 -17 3 -19 -8 -10 -13 10 -7
62 10 89 10 18 49 9 53 -12z"/>
<path d="M2654 2295 c-24 -21 -33 -35 -23 -35 8 0 30 16 49 35 44 45 25 45
-26 0z"/>
<path d="M3755 2290 c-4 -6 -11 -7 -17 -4 -7 4 -8 2 -4 -5 6 -9 11 -9 22 0 14
11 18 19 10 19 -3 0 -8 -5 -11 -10z"/>
<path d="M3702 2263 c-6 -2 -10 -9 -6 -14 8 -14 21 -11 21 6 0 8 -1 15 -1 14
-1 0 -7 -3 -14 -6z"/>
<path d="M2598 2250 c-2 -6 -13 -12 -25 -13 -12 0 -21 -4 -20 -8 1 -4 -6 -14
-16 -21 -17 -13 -17 -14 2 -15 12 -1 23 6 26 18 4 10 15 19 25 19 21 0 35 16
21 24 -5 4 -11 1 -13 -4z"/>
<path d="M998 2215 c-16 -13 -24 -26 -19 -29 12 -8 55 28 50 42 -2 6 -15 1
-31 -13z"/>
<path d="M1040 2195 c-5 -14 -14 -24 -19 -21 -4 3 -17 -1 -27 -9 -18 -13 -17
-14 12 -15 44 0 83 47 54 65 -6 3 -15 -6 -20 -20z"/>
<path d="M3640 2205 c7 -8 11 -15 9 -16 -2 0 -12 -2 -22 -4 -27 -5 -34 -15
-11 -15 20 0 44 17 44 31 0 4 -7 10 -16 13 -14 5 -15 4 -4 -9z"/>
<path d="M2473 2158 c-18 -11 -47 -33 -65 -50 -18 -17 -43 -34 -57 -39 -13 -5
-21 -12 -18 -16 9 -8 -38 -43 -57 -43 -10 0 -13 -5 -9 -17 4 -10 2 -14 -4 -10
-6 4 -23 -5 -37 -18 -15 -14 -31 -25 -35 -25 -5 0 -12 -7 -15 -16 -8 -21 -8
-24 5 -24 5 0 7 5 3 11 -4 7 -1 10 7 7 8 -3 22 6 32 19 10 13 24 23 31 23 7 0
27 16 46 35 19 19 38 35 44 35 5 0 27 18 48 41 21 22 42 38 47 34 6 -3 15 3
20 14 6 11 20 22 30 26 11 3 22 12 25 20 7 19 -2 18 -41 -7z"/>
<path d="M3569 2158 c0 -2 -2 -11 -4 -21 -3 -15 -1 -16 11 -6 7 6 11 15 8 20
-5 9 -13 12 -15 7z"/>
<path d="M3525 2110 c3 -5 11 -10 16 -10 6 0 7 5 4 10 -3 6 -11 10 -16 10 -6
0 -7 -4 -4 -10z"/>
<path d="M3487 2083 c-4 -3 -7 -11 -7 -17 0 -6 5 -4 10 4 7 11 10 11 10 2 0
-7 5 -10 10 -7 6 4 8 11 5 16 -7 11 -19 12 -28 2z"/>
<path d="M2376 2017 c-25 -24 -47 -42 -49 -41 -2 2 -25 -17 -53 -42 -27 -26
-40 -40 -29 -33 18 13 19 13 6 -3 -7 -10 -17 -15 -22 -12 -13 7 -90 -57 -82
-69 4 -6 1 -7 -6 -3 -12 8 -19 3 -103 -79 -27 -26 -48 -44 -48 -40 0 12 -45
-25 -45 -38 -1 -6 -6 -11 -13 -9 -7 1 -12 -2 -12 -7 0 -6 -12 -16 -27 -23 -16
-7 -28 -20 -28 -28 0 -8 -8 -15 -17 -15 -23 0 -60 -36 -54 -52 3 -7 -1 -13 -8
-13 -7 0 -20 -7 -27 -16 -27 -33 27 -5 73 36 24 22 49 40 55 40 7 0 13 7 13
15 0 9 -6 12 -17 9 -13 -4 -15 -3 -5 4 7 5 24 7 38 4 19 -3 24 0 24 17 0 16 6
21 26 21 14 0 23 4 20 9 -3 5 12 21 34 36 22 15 40 31 40 35 0 4 12 12 26 18
14 7 23 16 19 22 -3 5 4 7 15 5 11 -2 18 0 15 5 -3 5 4 11 15 15 11 4 18 11
15 16 -4 5 -2 9 4 9 5 0 27 16 48 34 30 29 40 33 52 23 8 -7 12 -7 9 -2 -3 6
1 24 8 40 7 17 13 24 14 18 0 -21 17 -15 23 9 5 19 8 20 23 7 16 -12 17 -12
12 2 -8 20 9 39 34 39 10 0 18 4 18 8 0 5 11 15 25 22 24 13 28 29 10 42 -16
12 -20 10 -69 -35z m54 9 c0 -3 -4 -8 -10 -11 -5 -3 -10 -1 -10 4 0 6 5 11 10
11 6 0 10 -2 10 -4z m-230 -181 c0 -2 -10 -10 -22 -16 -21 -11 -22 -11 -9 4
13 16 31 23 31 12z m-125 -95 c-3 -5 -12 -10 -18 -10 -7 0 -6 4 3 10 19 12 23
12 15 0z m-100 -80 c-3 -5 -12 -10 -18 -10 -7 0 -6 4 3 10 19 12 23 12 15 0z"/>
<path d="M1805 2030 c-3 -5 -1 -10 4 -10 6 0 11 5 11 10 0 6 -2 10 -4 10 -3 0
-8 -4 -11 -10z"/>
<path d="M3399 2011 l-24 -20 23 -1 c12 0 25 7 29 15 9 25 -2 27 -28 6z"/>
<path d="M3345 1959 c-4 -6 -5 -12 -2 -15 2 -3 7 2 10 11 7 17 1 20 -8 4z"/>
<path d="M3306 1924 c-5 -14 -4 -15 9 -4 17 14 19 20 6 20 -5 0 -12 -7 -15
-16z"/>
<path d="M3247 1889 c7 -7 15 -10 18 -7 3 3 -2 9 -12 12 -14 6 -15 5 -6 -5z"/>
<path d="M2117 1881 c-10 -4 -18 -10 -18 -14 3 -21 0 -27 -14 -27 -8 0 -15 -4
-15 -10 0 -18 15 -11 43 21 30 35 31 40 4 30z"/>
<path d="M3204 1856 c-10 -8 -16 -18 -11 -22 4 -4 7 -2 7 4 0 6 7 9 15 6 9 -4
15 0 15 10 0 20 -1 20 -26 2z"/>
<path d="M2030 1810 c-13 -11 -21 -23 -17 -26 8 -8 41 17 45 34 3 16 -1 15
-28 -8z"/>
<path d="M3115 1780 c-38 -39 -28 -47 15 -11 19 15 29 30 23 34 -5 3 -23 -7
-38 -23z"/>
<path d="M1970 1747 c-14 -13 -31 -22 -37 -20 -6 2 -15 -1 -19 -8 -4 -7 -3 -9
4 -5 5 3 12 2 14 -3 1 -5 21 6 42 25 22 19 35 34 30 34 -5 0 -20 -10 -34 -23z"/>
<path d="M3025 1712 c-48 -44 -123 -106 -176 -145 -20 -15 -40 -34 -43 -42 -3
-8 -12 -15 -20 -15 -9 0 -23 -11 -32 -25 -9 -14 -20 -23 -24 -20 -10 6 -25
-14 -17 -21 4 -4 175 127 247 188 8 7 23 18 34 23 10 6 18 14 17 19 -1 5 11
15 28 22 20 9 31 20 31 34 0 11 -1 20 -2 20 -2 0 -21 -17 -43 -38z"/>
<path d="M1860 1660 c0 -5 7 -7 15 -4 8 4 15 8 15 10 0 2 -7 4 -15 4 -8 0 -15
-4 -15 -10z"/>
<path d="M1825 1640 c-16 -7 -17 -9 -3 -9 9 -1 20 4 23 9 7 11 7 11 -20 0z"/>
<path d="M1802 1604 c-7 -8 -8 -14 -3 -14 10 0 25 19 20 25 -2 1 -10 -3 -17
-11z"/>
<path d="M1730 1565 c-18 -19 -20 -25 -8 -25 15 0 48 30 48 43 0 14 -17 6 -40
-18z"/>
<path d="M1666 1524 c-4 -9 -4 -19 -2 -21 8 -8 26 8 26 23 0 19 -16 18 -24 -2z"/>
<path d="M1713 1481 c-29 -26 -53 -53 -53 -59 0 -17 25 -15 40 3 7 9 19 14 26
11 15 -6 38 27 27 38 -4 3 -16 -2 -27 -11 -12 -10 -3 2 19 25 53 57 33 53 -32
-7z"/>
<path d="M1630 1479 c0 -6 -9 -9 -20 -6 -11 3 -18 1 -15 -4 3 -4 -3 -14 -15
-21 -11 -7 -20 -20 -20 -28 0 -10 8 -6 23 12 12 14 32 29 45 33 22 6 31 25 12
25 -5 0 -10 -5 -10 -11z"/>
<path d="M2671 1426 c-10 -11 -9 -14 1 -12 14 2 23 15 15 22 -2 2 -10 -2 -16
-10z"/>
<path d="M1541 1404 c0 -11 3 -14 6 -6 3 7 2 16 -1 19 -3 4 -6 -2 -5 -13z"/>
<path d="M2592 1359 c-29 -22 -52 -45 -52 -50 0 -6 -4 -8 -8 -5 -5 3 -9 -1 -9
-9 0 -13 3 -13 17 0 9 8 19 15 22 15 10 0 91 80 86 85 -3 3 -28 -13 -56 -36z"/>
<path d="M1496 1372 c-35 -20 -70 -52 -58 -52 11 0 92 58 92 65 0 7 -2 6 -34
-13z"/>
<path d="M1394 1300 c-12 -4 -24 -15 -27 -24 -9 -22 0 -20 31 9 29 27 28 28
-4 15z"/>
<path d="M2459 1248 c-9 -17 -8 -18 10 -9 26 15 34 28 15 28 -8 0 -20 -9 -25
-19z"/>
<path d="M1325 1240 c-3 -5 -2 -10 4 -10 5 0 13 5 16 10 3 6 2 10 -4 10 -5 0
-13 -4 -16 -10z"/>
<path d="M2416 1208 c3 -5 10 -6 15 -3 13 9 11 12 -6 12 -8 0 -12 -4 -9 -9z"/>
<path d="M1270 1200 c0 -5 5 -10 11 -10 5 0 7 5 4 10 -3 6 -8 10 -11 10 -2 0
-4 -4 -4 -10z"/>
<path d="M2390 1189 c0 -5 5 -7 10 -4 6 3 10 8 10 11 0 2 -4 4 -10 4 -5 0 -10
-5 -10 -11z"/>
<path d="M2362 1163 c-11 -11 -17 -12 -28 -2 -9 7 -14 8 -12 3 4 -14 -22 -55
-31 -50 -4 3 -8 -1 -8 -9 0 -11 6 -9 26 5 58 43 75 59 71 63 -3 3 -11 -2 -18
-10z"/>
<path d="M799 1113 c-13 -16 -12 -17 4 -4 9 7 17 15 17 17 0 8 -8 3 -21 -13z"/>
<path d="M1178 1123 c6 -2 18 -2 25 0 6 3 1 5 -13 5 -14 0 -19 -2 -12 -5z"/>
<path d="M2236 1081 c-10 -11 -13 -22 -8 -25 5 -3 17 3 26 13 10 11 13 22 8
25 -5 3 -17 -3 -26 -13z m24 5 c0 -2 -8 -10 -17 -17 -16 -13 -17 -12 -4 4 13
16 21 21 21 13z"/>
<path d="M2196 1033 c-7 -8 -11 -9 -37 -12 -5 0 -8 -5 -4 -10 5 -9 -54 -61
-69 -61 -15 0 -103 -81 -103 -95 0 -8 1 -15 2 -15 2 0 120 106 161 145 18 17
38 31 46 33 18 5 35 22 22 22 -6 0 -14 -3 -18 -7z m-116 -97 c0 -2 -8 -10 -17
-17 -16 -13 -17 -12 -4 4 13 16 21 21 21 13z"/>
<path d="M1030 946 c0 -2 8 -10 18 -17 15 -13 16 -12 3 4 -13 16 -21 21 -21
13z"/>
<path d="M1905 807 c-25 -24 -48 -41 -52 -38 -3 3 -3 1 0 -5 6 -11 -43 -54
-62 -54 -6 0 -15 -8 -20 -17 -6 -10 -11 -14 -11 -9 0 5 -7 3 -15 -4 -8 -7 -12
-17 -9 -22 3 -5 -2 -8 -12 -6 -11 2 -19 -3 -19 -12 0 -8 -10 -16 -23 -18 -12
-2 -20 -7 -17 -12 8 -13 -42 -43 -60 -36 -13 5 -14 2 -4 -15 11 -21 11 -21 42
9 18 16 68 57 112 91 44 34 104 83 133 108 29 26 60 52 69 58 11 8 12 14 5 19
-6 4 -32 -13 -57 -37z"/>
<path d="M2530 599 c0 -5 5 -7 10 -4 6 3 10 8 10 11 0 2 -4 4 -10 4 -5 0 -10
-5 -10 -11z"/>
<path d="M4985 10 c-3 -5 -1 -10 4 -10 6 0 11 5 11 10 0 6 -2 10 -4 10 -3 0
-8 -4 -11 -10z"/>
</g>
</svg>
