<?xml version="1.0" standalone="no"?>
<!DOCTYPE svg PUBLIC "-//W3C//DTD SVG 20010904//EN"
 "http://www.w3.org/TR/2001/REC-SVG-20010904/DTD/svg10.dtd">
<svg version="1.0" xmlns="http://www.w3.org/2000/svg"
 width="271.000000pt" height="271.000000pt" viewBox="0 0 271.000000 271.000000"
 preserveAspectRatio="xMidYMid meet">

<g transform="translate(0.000000,271.000000) scale(0.100000,-0.100000)"
fill="#000000" stroke="none">
<path d="M1900 2184 c-65 -13 -199 -78 -186 -91 2 -3 22 7 43 20 22 14 62 33
89 42 66 23 218 23 304 1 98 -26 239 -99 305 -159 l58 -52 -57 -38 -56 -37
-65 49 c-87 67 -174 114 -270 147 -66 22 -99 27 -185 28 -182 1 -204 -6 -317
-109 l-53 -47 0 -110 c0 -60 -4 -107 -8 -104 -10 6 -435 66 -469 66 -58 0 -8
-9 207 -39 124 -18 235 -34 248 -37 l22 -4 0 -451 c0 -355 3 -456 13 -482 34
-79 181 -176 352 -231 68 -22 98 -26 202 -26 136 0 168 8 262 68 56 35 190
139 203 157 4 5 8 75 8 155 1 111 4 149 15 164 8 11 15 36 15 57 0 24 5 39 15
43 20 7 20 62 0 73 -12 7 -4 17 35 46 28 21 50 45 50 55 0 40 -47 55 -87 27
-17 -12 -23 -13 -30 -3 -4 7 -10 135 -13 285 l-5 271 -31 39 c-65 80 -195 161
-329 203 -69 21 -229 35 -285 24z m135 -124 c37 -10 99 -35 138 -55 72 -35
207 -130 207 -144 0 -5 -25 -27 -56 -50 l-56 -42 -57 53 c-151 141 -258 190
-416 191 -88 1 -199 -19 -190 -34 4 -5 2 -9 -4 -9 -24 0 -17 19 17 47 52 41
55 43 125 58 77 18 199 11 292 -15z m-61 -103 c32 -15 63 -24 69 -20 6 4 7 1
2 -7 -6 -10 -4 -12 8 -7 17 7 50 -15 114 -76 l42 -41 -19 -31 c-11 -18 -20
-40 -20 -49 0 -24 24 -29 -345 73 -77 22 -155 42 -173 46 -18 4 -35 12 -36 18
-2 7 -8 31 -13 54 l-10 43 36 9 c20 5 45 12 56 15 11 3 67 4 125 2 89 -2 114
-6 164 -29z m-404 3 c-13 -8 -12 -10 3 -10 9 0 17 -6 17 -14 0 -7 3 -28 6 -45
4 -20 3 -31 -5 -31 -6 0 -11 8 -11 18 0 9 -9 30 -20 47 -19 29 -14 45 15 45 6
0 3 -5 -5 -10z m-14 -55 c8 -20 14 -67 14 -110 0 -71 -1 -75 -22 -75 -22 0
-23 3 -22 98 1 140 4 149 30 87z m974 -1 c12 -32 12 -32 -44 -72 l-45 -33 -16
30 -15 31 47 35 c27 19 51 35 56 35 4 0 12 -12 17 -26z m-930 -124 c0 -40 -4
-70 -10 -70 -6 0 -10 30 -10 70 0 40 4 70 10 70 6 0 10 -30 10 -70z m818 31
c9 -27 7 -30 -46 -65 -30 -20 -56 -35 -57 -34 0 2 -8 15 -17 29 -16 25 -16 26
40 67 31 22 59 39 63 36 4 -2 12 -17 17 -33z m122 -495 l0 -534 -44 -36 c-24
-20 -47 -36 -50 -36 -3 0 -6 240 -6 533 l0 532 42 37 c24 21 46 38 51 38 4 0
7 -240 7 -534z m-648 451 l267 -73 3 -375 c2 -206 0 -403 -4 -439 -4 -36 -4
-47 0 -25 4 24 8 -30 10 -137 l2 -177 -46 -7 c-78 -11 -183 2 -279 36 -88 31
-189 79 -181 87 2 2 102 -24 222 -57 121 -33 226 -59 234 -58 14 3 -141 47
-402 116 l-98 25 0 91 c0 50 -3 102 -6 116 -4 20 -3 22 5 10 6 -8 11 -10 11
-5 0 6 3 21 5 35 5 22 4 23 -5 5 -8 -16 -9 -11 -5 23 3 23 7 61 10 85 4 33 3
38 -5 22 -8 -16 -9 -13 -5 15 3 19 10 39 16 45 8 7 9 3 4 -15 -9 -29 -3 -25
15 9 8 15 8 21 1 17 -6 -4 -11 -3 -11 1 0 14 62 68 93 81 37 16 124 14 167 -4
19 -8 24 -12 10 -8 -65 15 -137 16 -174 0 -20 -8 -35 -20 -32 -25 3 -5 -2 -8
-12 -7 -9 0 -16 -5 -14 -12 1 -8 -2 -11 -8 -7 -5 3 -10 2 -10 -4 0 -5 5 -13
10 -16 6 -3 10 -20 10 -36 0 -17 -4 -28 -9 -25 -4 3 -6 18 -4 33 4 22 2 25 -6
13 -6 -8 -11 -25 -11 -37 0 -32 32 -30 76 3 33 25 34 26 34 6 0 -14 -19 -36
-55 -63 -38 -28 -55 -48 -55 -64 0 -30 20 -85 31 -85 5 0 35 17 66 38 39 25
58 33 61 24 7 -22 81 -111 102 -122 17 -9 19 -17 13 -58 -3 -26 -12 -55 -20
-64 -14 -15 -13 -18 10 -23 20 -5 37 2 80 34 36 28 64 41 85 41 39 0 40 -9 5
-42 -71 -66 -161 -75 -259 -25 -62 31 -138 111 -169 178 -19 42 -24 47 -30 30
-15 -50 96 -188 192 -236 49 -25 70 -30 134 -30 66 0 81 4 118 28 23 15 51 42
61 60 24 38 26 59 4 31 -15 -19 -16 -19 -9 1 4 11 9 31 11 45 l4 25 -8 -25
c-11 -34 -67 -42 -75 -11 -3 15 -13 21 -31 21 -14 0 -26 -2 -26 -4 0 -2 -3
-13 -6 -23 -5 -16 -4 -16 10 1 12 15 16 16 16 5 0 -11 2 -12 9 0 6 9 11 10 15
2 12 -19 -3 -31 -34 -27 -20 2 -27 0 -23 -8 4 -8 2 -8 -6 0 -10 9 -10 17 3 36
9 14 13 28 9 33 -5 4 8 5 27 1 27 -5 32 -4 22 6 -8 8 -23 9 -58 1 -45 -11 -47
-10 -87 26 -62 56 -87 102 -87 160 0 40 -4 52 -20 61 -11 6 -20 18 -20 28 0 9
9 23 20 30 14 8 20 23 20 48 l0 37 40 -6 c118 -16 229 -120 277 -262 13 -40
13 -40 8 -5 -3 25 -2 31 5 20 22 -34 9 16 -18 67 -38 74 -116 151 -187 184
-112 54 -235 32 -292 -50 -15 -22 -30 -40 -33 -41 -3 0 -5 130 -5 290 0 253 2
289 15 286 8 -3 56 -10 106 -16 81 -11 90 -15 90 -33 -1 -16 10 -23 53 -35 50
-14 55 -14 67 2 7 10 10 24 8 31 -7 18 -52 35 -94 37 -19 0 -83 7 -141 15
l-106 15 -2 64 c-1 35 2 64 6 64 5 0 128 -33 275 -73z m358 8 c14 -17 1 -20
-18 -5 -7 6 -6 3 2 -6 12 -14 10 -19 -11 -40 -40 -40 -53 -31 -32 23 16 42 38
53 59 28z m179 -549 c1 -299 -1 -551 -5 -559 -7 -19 -101 -81 -124 -82 -8 0
-28 -9 -43 -19 -15 -10 -30 -17 -32 -14 -3 2 -5 262 -5 577 -1 600 -1 589 43
613 15 7 22 7 28 -3 15 -24 10 -34 -7 -13 -15 18 -15 18 -5 -3 7 -14 11 -208
11 -578 l0 -556 60 41 c33 22 60 43 60 46 0 6 -14 -1 -53 -29 -16 -10 -30 -18
-32 -16 -1 2 -6 243 -9 534 l-6 530 58 37 c31 21 58 38 58 38 1 0 2 -245 3
-544z m-859 -3 c0 -486 -1 -488 -20 -463 -19 24 -20 44 -20 456 0 237 -3 446
-6 463 -6 28 -4 31 20 31 l26 0 0 -487z m31 170 c0 -170 2 -395 2 -500 1 -125
-2 -192 -8 -190 -14 5 -19 997 -5 997 6 0 10 -108 11 -307z m599 -225 c1 -288
3 -547 6 -575 5 -44 3 -53 -10 -53 -14 0 -16 57 -16 575 0 377 3 575 10 575 7
0 10 -181 10 -522z m-285 490 c24 -11 35 -38 15 -38 -5 0 -10 7 -10 15 0 8 -5
15 -11 15 -6 0 -8 -7 -5 -16 5 -13 1 -14 -27 -9 -43 10 -52 16 -36 26 19 12
32 11 24 -1 -3 -5 1 -10 9 -10 10 0 13 6 10 15 -7 18 -3 19 31 3z m742 -318
c2 -19 -6 -31 -37 -52 l-40 -28 0 41 c0 46 21 71 55 66 13 -1 21 -10 22 -27z
m-92 11 c3 -5 1 -12 -5 -16 -5 -3 -10 1 -10 9 0 18 6 21 15 7z m21 -131 c21
-18 17 -36 -11 -54 -21 -14 -25 -14 -25 -2 0 9 9 20 20 26 22 12 18 33 -3 24
-15 -5 -23 78 -10 99 5 7 9 -7 11 -35 2 -25 10 -52 18 -58z m-778 -41 c-1 -25
-10 -37 -52 -65 l-51 -34 -3 37 c-2 25 1 39 13 45 8 5 12 14 9 20 -4 7 -2 8 4
4 7 -4 22 0 34 8 34 24 47 20 46 -15z m157 11 c3 -6 -1 -7 -9 -4 -18 7 -21 14
-7 14 6 0 13 -4 16 -10z m108 -93 c34 -42 67 -99 67 -114 -1 -4 -13 14 -27 42
-14 27 -51 74 -82 104 -32 32 -42 46 -24 33 18 -13 48 -42 66 -65z m497 19 c0
-14 -4 -28 -10 -31 -6 -4 -10 7 -10 24 0 17 5 31 10 31 6 0 10 -11 10 -24z
m-763 -101 c1 -42 -1 -46 -53 -85 l-54 -41 0 39 c0 30 5 41 28 55 15 9 38 25
51 36 l24 19 -27 0 c-17 0 -23 -4 -16 -8 9 -6 9 -9 0 -15 -6 -4 -16 -3 -22 3
-11 11 20 37 49 39 16 1 19 -6 20 -42z m-190 -17 c-3 -7 -5 -2 -5 12 0 14 2
19 5 13 2 -7 2 -19 0 -25z m108 -4 c-9 -7 -23 -10 -31 -7 -12 4 -12 8 3 18 9
7 24 10 31 7 12 -4 12 -7 -3 -18z m-35 -66 c0 -36 -4 -35 -14 5 -4 16 -2 27 4
27 5 0 10 -14 10 -32z m-26 -84 c3 -8 2 -12 -4 -9 -6 3 -10 10 -10 16 0 14 7
11 14 -7z m36 -56 c15 -21 17 -28 6 -19 -16 13 -41 51 -33 51 2 0 14 -15 27
-32z m288 15 c-3 -5 -11 -23 -18 -40 -8 -18 -18 -33 -23 -33 -11 0 0 50 15 67
11 14 32 18 26 6z m507 -88 c-28 -24 -52 -39 -54 -33 -2 5 7 16 18 25 12 8 34
25 49 38 15 13 29 21 32 18 3 -2 -18 -24 -45 -48z m-705 -22 c0 -7 -58 36 -66
49 -4 7 9 -1 29 -16 20 -16 37 -30 37 -33z m240 53 c0 -13 -84 -64 -97 -59
-14 5 -14 8 2 19 9 7 23 10 31 7 10 -4 12 0 7 13 -5 13 -3 16 9 12 8 -4 21 -2
29 3 16 10 19 11 19 5z m281 -63 c1 -35 -1 -66 -4 -70 -4 -3 -7 27 -7 67 0 88
7 90 11 3z m-210 3 c-59 -61 -171 -72 -260 -26 -23 11 -41 23 -41 25 0 3 19
-4 42 -16 64 -33 146 -37 203 -9 25 12 53 33 62 46 9 14 18 22 21 19 3 -3 -9
-21 -27 -39z"/>
<path d="M2060 1918 c3 -3 37 -31 75 -62 l70 -57 -53 50 c-30 28 -63 56 -75
62 -12 7 -20 10 -17 7z"/>
<path d="M2486 1875 c-11 -8 -15 -15 -9 -15 6 0 16 7 23 15 16 19 11 19 -14 0z"/>
<path d="M1877 1113 c-12 -12 -7 -60 7 -73 21 -16 60 -9 64 13 8 39 -47 85
-71 60z m32 -24 c6 9 11 8 21 -4 12 -14 10 -15 -14 -11 -18 3 -26 1 -23 -7 2
-7 15 -11 28 -9 22 2 22 2 5 -9 -26 -16 -51 10 -40 42 7 21 8 22 12 5 3 -13 6
-15 11 -7z"/>
<path d="M2019 1077 c6 -8 7 -18 3 -22 -4 -5 -1 -5 6 -1 10 6 10 11 1 22 -6 8
-14 14 -16 14 -3 0 0 -6 6 -13z"/>
<path d="M2001 971 c-35 -22 -1 -101 44 -101 49 0 61 56 19 89 -29 23 -42 25
-63 12z m32 -7 c-7 -3 -10 -11 -7 -19 3 -7 0 -16 -5 -20 -6 -3 -8 -11 -5 -17
4 -6 2 -8 -4 -4 -6 3 -9 19 -8 34 5 34 3 32 24 31 9 0 12 -3 5 -5z m47 -35 c0
-5 -9 -9 -19 -9 -14 0 -18 5 -14 20 4 16 8 18 19 9 8 -6 14 -15 14 -20z m0
-29 c0 -5 -5 -10 -11 -10 -5 0 -7 5 -4 10 3 6 8 10 11 10 2 0 4 -4 4 -10z"/>
<path d="M1945 930 c3 -5 8 -10 11 -10 2 0 4 5 4 10 0 6 -5 10 -11 10 -5 0 -7
-4 -4 -10z"/>
<path d="M2360 2146 c0 -2 8 -10 18 -17 15 -13 16 -12 3 4 -13 16 -21 21 -21
13z"/>
</g>
</svg>
